G04 (created by PCBNEW (2013-07-07 BZR 4022)-stable) date 14/01/2016 17:53:05*
%MOIN*%
G04 Gerber Fmt 3.4, Leading zero omitted, Abs format*
%FSLAX34Y34*%
G01*
G70*
G90*
G04 APERTURE LIST*
%ADD10C,0.00590551*%
%ADD11C,0.0031*%
%ADD12C,0.005*%
%ADD13C,0.0039*%
%ADD14C,0.0047*%
%ADD15C,0.0035*%
G04 APERTURE END LIST*
G54D10*
X66261Y-42210D02*
G75*
G03X66261Y-42210I-149J0D01*
G74*
G01*
X65771Y-41714D02*
X65771Y-44706D01*
X65771Y-44706D02*
X69905Y-44706D01*
X69905Y-44706D02*
X69905Y-41714D01*
X69905Y-41714D02*
X65771Y-41714D01*
G54D11*
X71585Y-35148D02*
G75*
G03X71585Y-35148I-62J0D01*
G74*
G01*
X70560Y-34810D02*
X70560Y-35210D01*
X71585Y-34810D02*
X71585Y-35210D01*
X70560Y-35210D02*
X71585Y-35210D01*
X71585Y-34810D02*
X70560Y-34810D01*
X66575Y-37948D02*
G75*
G03X66575Y-37948I-62J0D01*
G74*
G01*
X65550Y-37610D02*
X65550Y-38010D01*
X66575Y-37610D02*
X66575Y-38010D01*
X65550Y-38010D02*
X66575Y-38010D01*
X66575Y-37610D02*
X65550Y-37610D01*
X67575Y-35078D02*
G75*
G03X67575Y-35078I-62J0D01*
G74*
G01*
X66550Y-34740D02*
X66550Y-35140D01*
X67575Y-34740D02*
X67575Y-35140D01*
X66550Y-35140D02*
X67575Y-35140D01*
X67575Y-34740D02*
X66550Y-34740D01*
X72565Y-37988D02*
G75*
G03X72565Y-37988I-62J0D01*
G74*
G01*
X71540Y-37650D02*
X71540Y-38050D01*
X72565Y-37650D02*
X72565Y-38050D01*
X71540Y-38050D02*
X72565Y-38050D01*
X72565Y-37650D02*
X71540Y-37650D01*
X68565Y-37958D02*
G75*
G03X68565Y-37958I-62J0D01*
G74*
G01*
X67540Y-37620D02*
X67540Y-38020D01*
X68565Y-37620D02*
X68565Y-38020D01*
X67540Y-38020D02*
X68565Y-38020D01*
X68565Y-37620D02*
X67540Y-37620D01*
X65575Y-35958D02*
G75*
G03X65575Y-35958I-62J0D01*
G74*
G01*
X64550Y-35620D02*
X64550Y-36020D01*
X65575Y-35620D02*
X65575Y-36020D01*
X64550Y-36020D02*
X65575Y-36020D01*
X65575Y-35620D02*
X64550Y-35620D01*
X70575Y-37988D02*
G75*
G03X70575Y-37988I-62J0D01*
G74*
G01*
X69550Y-37650D02*
X69550Y-38050D01*
X70575Y-37650D02*
X70575Y-38050D01*
X69550Y-38050D02*
X70575Y-38050D01*
X70575Y-37650D02*
X69550Y-37650D01*
X69545Y-35128D02*
G75*
G03X69545Y-35128I-62J0D01*
G74*
G01*
X68520Y-34790D02*
X68520Y-35190D01*
X69545Y-34790D02*
X69545Y-35190D01*
X68520Y-35190D02*
X69545Y-35190D01*
X69545Y-34790D02*
X68520Y-34790D01*
G54D10*
X90981Y-42210D02*
G75*
G03X90981Y-42210I-149J0D01*
G74*
G01*
X90491Y-41714D02*
X90491Y-44706D01*
X90491Y-44706D02*
X94625Y-44706D01*
X94625Y-44706D02*
X94625Y-41714D01*
X94625Y-41714D02*
X90491Y-41714D01*
X123001Y-42210D02*
G75*
G03X123001Y-42210I-149J0D01*
G74*
G01*
X122511Y-41714D02*
X122511Y-44706D01*
X122511Y-44706D02*
X126645Y-44706D01*
X126645Y-44706D02*
X126645Y-41714D01*
X126645Y-41714D02*
X122511Y-41714D01*
X115091Y-42210D02*
G75*
G03X115091Y-42210I-149J0D01*
G74*
G01*
X114601Y-41714D02*
X114601Y-44706D01*
X114601Y-44706D02*
X118735Y-44706D01*
X118735Y-44706D02*
X118735Y-41714D01*
X118735Y-41714D02*
X114601Y-41714D01*
X107101Y-42210D02*
G75*
G03X107101Y-42210I-149J0D01*
G74*
G01*
X106611Y-41714D02*
X106611Y-44706D01*
X106611Y-44706D02*
X110745Y-44706D01*
X110745Y-44706D02*
X110745Y-41714D01*
X110745Y-41714D02*
X106611Y-41714D01*
X99201Y-42210D02*
G75*
G03X99201Y-42210I-149J0D01*
G74*
G01*
X98711Y-41714D02*
X98711Y-44706D01*
X98711Y-44706D02*
X102845Y-44706D01*
X102845Y-44706D02*
X102845Y-41714D01*
X102845Y-41714D02*
X98711Y-41714D01*
X82901Y-42210D02*
G75*
G03X82901Y-42210I-149J0D01*
G74*
G01*
X82411Y-41714D02*
X82411Y-44706D01*
X82411Y-44706D02*
X86545Y-44706D01*
X86545Y-44706D02*
X86545Y-41714D01*
X86545Y-41714D02*
X82411Y-41714D01*
X75071Y-42210D02*
G75*
G03X75071Y-42210I-149J0D01*
G74*
G01*
X74581Y-41714D02*
X74581Y-44706D01*
X74581Y-44706D02*
X78715Y-44706D01*
X78715Y-44706D02*
X78715Y-41714D01*
X78715Y-41714D02*
X74581Y-41714D01*
G54D11*
X73565Y-35138D02*
G75*
G03X73565Y-35138I-62J0D01*
G74*
G01*
X72540Y-34800D02*
X72540Y-35200D01*
X73565Y-34800D02*
X73565Y-35200D01*
X72540Y-35200D02*
X73565Y-35200D01*
X73565Y-34800D02*
X72540Y-34800D01*
X80545Y-37998D02*
G75*
G03X80545Y-37998I-62J0D01*
G74*
G01*
X79520Y-37660D02*
X79520Y-38060D01*
X80545Y-37660D02*
X80545Y-38060D01*
X79520Y-38060D02*
X80545Y-38060D01*
X80545Y-37660D02*
X79520Y-37660D01*
X79565Y-35158D02*
G75*
G03X79565Y-35158I-62J0D01*
G74*
G01*
X78540Y-34820D02*
X78540Y-35220D01*
X79565Y-34820D02*
X79565Y-35220D01*
X78540Y-35220D02*
X79565Y-35220D01*
X79565Y-34820D02*
X78540Y-34820D01*
X78575Y-38008D02*
G75*
G03X78575Y-38008I-62J0D01*
G74*
G01*
X77550Y-37670D02*
X77550Y-38070D01*
X78575Y-37670D02*
X78575Y-38070D01*
X77550Y-38070D02*
X78575Y-38070D01*
X78575Y-37670D02*
X77550Y-37670D01*
X77575Y-35168D02*
G75*
G03X77575Y-35168I-62J0D01*
G74*
G01*
X76550Y-34830D02*
X76550Y-35230D01*
X77575Y-34830D02*
X77575Y-35230D01*
X76550Y-35230D02*
X77575Y-35230D01*
X77575Y-34830D02*
X76550Y-34830D01*
X76565Y-38018D02*
G75*
G03X76565Y-38018I-62J0D01*
G74*
G01*
X75540Y-37680D02*
X75540Y-38080D01*
X76565Y-37680D02*
X76565Y-38080D01*
X75540Y-38080D02*
X76565Y-38080D01*
X76565Y-37680D02*
X75540Y-37680D01*
X75575Y-35148D02*
G75*
G03X75575Y-35148I-62J0D01*
G74*
G01*
X74550Y-34810D02*
X74550Y-35210D01*
X75575Y-34810D02*
X75575Y-35210D01*
X74550Y-35210D02*
X75575Y-35210D01*
X75575Y-34810D02*
X74550Y-34810D01*
X74555Y-37998D02*
G75*
G03X74555Y-37998I-62J0D01*
G74*
G01*
X73530Y-37660D02*
X73530Y-38060D01*
X74555Y-37660D02*
X74555Y-38060D01*
X73530Y-38060D02*
X74555Y-38060D01*
X74555Y-37660D02*
X73530Y-37660D01*
X81575Y-35158D02*
G75*
G03X81575Y-35158I-62J0D01*
G74*
G01*
X80550Y-34820D02*
X80550Y-35220D01*
X81575Y-34820D02*
X81575Y-35220D01*
X80550Y-35220D02*
X81575Y-35220D01*
X81575Y-34820D02*
X80550Y-34820D01*
X88565Y-37998D02*
G75*
G03X88565Y-37998I-62J0D01*
G74*
G01*
X87540Y-37660D02*
X87540Y-38060D01*
X88565Y-37660D02*
X88565Y-38060D01*
X87540Y-38060D02*
X88565Y-38060D01*
X88565Y-37660D02*
X87540Y-37660D01*
X87565Y-35158D02*
G75*
G03X87565Y-35158I-62J0D01*
G74*
G01*
X86540Y-34820D02*
X86540Y-35220D01*
X87565Y-34820D02*
X87565Y-35220D01*
X86540Y-35220D02*
X87565Y-35220D01*
X87565Y-34820D02*
X86540Y-34820D01*
X86565Y-37988D02*
G75*
G03X86565Y-37988I-62J0D01*
G74*
G01*
X85540Y-37650D02*
X85540Y-38050D01*
X86565Y-37650D02*
X86565Y-38050D01*
X85540Y-38050D02*
X86565Y-38050D01*
X86565Y-37650D02*
X85540Y-37650D01*
X85555Y-35168D02*
G75*
G03X85555Y-35168I-62J0D01*
G74*
G01*
X84530Y-34830D02*
X84530Y-35230D01*
X85555Y-34830D02*
X85555Y-35230D01*
X84530Y-35230D02*
X85555Y-35230D01*
X85555Y-34830D02*
X84530Y-34830D01*
X84555Y-37988D02*
G75*
G03X84555Y-37988I-62J0D01*
G74*
G01*
X83530Y-37650D02*
X83530Y-38050D01*
X84555Y-37650D02*
X84555Y-38050D01*
X83530Y-38050D02*
X84555Y-38050D01*
X84555Y-37650D02*
X83530Y-37650D01*
X83565Y-35158D02*
G75*
G03X83565Y-35158I-62J0D01*
G74*
G01*
X82540Y-34820D02*
X82540Y-35220D01*
X83565Y-34820D02*
X83565Y-35220D01*
X82540Y-35220D02*
X83565Y-35220D01*
X83565Y-34820D02*
X82540Y-34820D01*
X82545Y-37988D02*
G75*
G03X82545Y-37988I-62J0D01*
G74*
G01*
X81520Y-37650D02*
X81520Y-38050D01*
X82545Y-37650D02*
X82545Y-38050D01*
X81520Y-38050D02*
X82545Y-38050D01*
X82545Y-37650D02*
X81520Y-37650D01*
X89545Y-35158D02*
G75*
G03X89545Y-35158I-62J0D01*
G74*
G01*
X88520Y-34820D02*
X88520Y-35220D01*
X89545Y-34820D02*
X89545Y-35220D01*
X88520Y-35220D02*
X89545Y-35220D01*
X89545Y-34820D02*
X88520Y-34820D01*
X96555Y-37998D02*
G75*
G03X96555Y-37998I-62J0D01*
G74*
G01*
X95530Y-37660D02*
X95530Y-38060D01*
X96555Y-37660D02*
X96555Y-38060D01*
X95530Y-38060D02*
X96555Y-38060D01*
X96555Y-37660D02*
X95530Y-37660D01*
X95555Y-35138D02*
G75*
G03X95555Y-35138I-62J0D01*
G74*
G01*
X94530Y-34800D02*
X94530Y-35200D01*
X95555Y-34800D02*
X95555Y-35200D01*
X94530Y-35200D02*
X95555Y-35200D01*
X95555Y-34800D02*
X94530Y-34800D01*
X94555Y-37978D02*
G75*
G03X94555Y-37978I-62J0D01*
G74*
G01*
X93530Y-37640D02*
X93530Y-38040D01*
X94555Y-37640D02*
X94555Y-38040D01*
X93530Y-38040D02*
X94555Y-38040D01*
X94555Y-37640D02*
X93530Y-37640D01*
X93555Y-35148D02*
G75*
G03X93555Y-35148I-62J0D01*
G74*
G01*
X92530Y-34810D02*
X92530Y-35210D01*
X93555Y-34810D02*
X93555Y-35210D01*
X92530Y-35210D02*
X93555Y-35210D01*
X93555Y-34810D02*
X92530Y-34810D01*
X92565Y-37978D02*
G75*
G03X92565Y-37978I-62J0D01*
G74*
G01*
X91540Y-37640D02*
X91540Y-38040D01*
X92565Y-37640D02*
X92565Y-38040D01*
X91540Y-38040D02*
X92565Y-38040D01*
X92565Y-37640D02*
X91540Y-37640D01*
X91555Y-35148D02*
G75*
G03X91555Y-35148I-62J0D01*
G74*
G01*
X90530Y-34810D02*
X90530Y-35210D01*
X91555Y-34810D02*
X91555Y-35210D01*
X90530Y-35210D02*
X91555Y-35210D01*
X91555Y-34810D02*
X90530Y-34810D01*
X90545Y-37988D02*
G75*
G03X90545Y-37988I-62J0D01*
G74*
G01*
X89520Y-37650D02*
X89520Y-38050D01*
X90545Y-37650D02*
X90545Y-38050D01*
X89520Y-38050D02*
X90545Y-38050D01*
X90545Y-37650D02*
X89520Y-37650D01*
X97565Y-35138D02*
G75*
G03X97565Y-35138I-62J0D01*
G74*
G01*
X96540Y-34800D02*
X96540Y-35200D01*
X97565Y-34800D02*
X97565Y-35200D01*
X96540Y-35200D02*
X97565Y-35200D01*
X97565Y-34800D02*
X96540Y-34800D01*
X104565Y-37988D02*
G75*
G03X104565Y-37988I-62J0D01*
G74*
G01*
X103540Y-37650D02*
X103540Y-38050D01*
X104565Y-37650D02*
X104565Y-38050D01*
X103540Y-38050D02*
X104565Y-38050D01*
X104565Y-37650D02*
X103540Y-37650D01*
X103555Y-35148D02*
G75*
G03X103555Y-35148I-62J0D01*
G74*
G01*
X102530Y-34810D02*
X102530Y-35210D01*
X103555Y-34810D02*
X103555Y-35210D01*
X102530Y-35210D02*
X103555Y-35210D01*
X103555Y-34810D02*
X102530Y-34810D01*
X102555Y-37988D02*
G75*
G03X102555Y-37988I-62J0D01*
G74*
G01*
X101530Y-37650D02*
X101530Y-38050D01*
X102555Y-37650D02*
X102555Y-38050D01*
X101530Y-38050D02*
X102555Y-38050D01*
X102555Y-37650D02*
X101530Y-37650D01*
X101555Y-35138D02*
G75*
G03X101555Y-35138I-62J0D01*
G74*
G01*
X100530Y-34800D02*
X100530Y-35200D01*
X101555Y-34800D02*
X101555Y-35200D01*
X100530Y-35200D02*
X101555Y-35200D01*
X101555Y-34800D02*
X100530Y-34800D01*
X100555Y-37988D02*
G75*
G03X100555Y-37988I-62J0D01*
G74*
G01*
X99530Y-37650D02*
X99530Y-38050D01*
X100555Y-37650D02*
X100555Y-38050D01*
X99530Y-38050D02*
X100555Y-38050D01*
X100555Y-37650D02*
X99530Y-37650D01*
X99565Y-35138D02*
G75*
G03X99565Y-35138I-62J0D01*
G74*
G01*
X98540Y-34800D02*
X98540Y-35200D01*
X99565Y-34800D02*
X99565Y-35200D01*
X98540Y-35200D02*
X99565Y-35200D01*
X99565Y-34800D02*
X98540Y-34800D01*
X98555Y-37988D02*
G75*
G03X98555Y-37988I-62J0D01*
G74*
G01*
X97530Y-37650D02*
X97530Y-38050D01*
X98555Y-37650D02*
X98555Y-38050D01*
X97530Y-38050D02*
X98555Y-38050D01*
X98555Y-37650D02*
X97530Y-37650D01*
X105555Y-35148D02*
G75*
G03X105555Y-35148I-62J0D01*
G74*
G01*
X104530Y-34810D02*
X104530Y-35210D01*
X105555Y-34810D02*
X105555Y-35210D01*
X104530Y-35210D02*
X105555Y-35210D01*
X105555Y-34810D02*
X104530Y-34810D01*
X112575Y-37988D02*
G75*
G03X112575Y-37988I-62J0D01*
G74*
G01*
X111550Y-37650D02*
X111550Y-38050D01*
X112575Y-37650D02*
X112575Y-38050D01*
X111550Y-38050D02*
X112575Y-38050D01*
X112575Y-37650D02*
X111550Y-37650D01*
X111555Y-35138D02*
G75*
G03X111555Y-35138I-62J0D01*
G74*
G01*
X110530Y-34800D02*
X110530Y-35200D01*
X111555Y-34800D02*
X111555Y-35200D01*
X110530Y-35200D02*
X111555Y-35200D01*
X111555Y-34800D02*
X110530Y-34800D01*
X110565Y-37978D02*
G75*
G03X110565Y-37978I-62J0D01*
G74*
G01*
X109540Y-37640D02*
X109540Y-38040D01*
X110565Y-37640D02*
X110565Y-38040D01*
X109540Y-38040D02*
X110565Y-38040D01*
X110565Y-37640D02*
X109540Y-37640D01*
X109565Y-35148D02*
G75*
G03X109565Y-35148I-62J0D01*
G74*
G01*
X108540Y-34810D02*
X108540Y-35210D01*
X109565Y-34810D02*
X109565Y-35210D01*
X108540Y-35210D02*
X109565Y-35210D01*
X109565Y-34810D02*
X108540Y-34810D01*
X108565Y-37988D02*
G75*
G03X108565Y-37988I-62J0D01*
G74*
G01*
X107540Y-37650D02*
X107540Y-38050D01*
X108565Y-37650D02*
X108565Y-38050D01*
X107540Y-38050D02*
X108565Y-38050D01*
X108565Y-37650D02*
X107540Y-37650D01*
X107565Y-35138D02*
G75*
G03X107565Y-35138I-62J0D01*
G74*
G01*
X106540Y-34800D02*
X106540Y-35200D01*
X107565Y-34800D02*
X107565Y-35200D01*
X106540Y-35200D02*
X107565Y-35200D01*
X107565Y-34800D02*
X106540Y-34800D01*
X106555Y-37988D02*
G75*
G03X106555Y-37988I-62J0D01*
G74*
G01*
X105530Y-37650D02*
X105530Y-38050D01*
X106555Y-37650D02*
X106555Y-38050D01*
X105530Y-38050D02*
X106555Y-38050D01*
X106555Y-37650D02*
X105530Y-37650D01*
X113575Y-35148D02*
G75*
G03X113575Y-35148I-62J0D01*
G74*
G01*
X112550Y-34810D02*
X112550Y-35210D01*
X113575Y-34810D02*
X113575Y-35210D01*
X112550Y-35210D02*
X113575Y-35210D01*
X113575Y-34810D02*
X112550Y-34810D01*
X120565Y-37988D02*
G75*
G03X120565Y-37988I-62J0D01*
G74*
G01*
X119540Y-37650D02*
X119540Y-38050D01*
X120565Y-37650D02*
X120565Y-38050D01*
X119540Y-38050D02*
X120565Y-38050D01*
X120565Y-37650D02*
X119540Y-37650D01*
X119555Y-35148D02*
G75*
G03X119555Y-35148I-62J0D01*
G74*
G01*
X118530Y-34810D02*
X118530Y-35210D01*
X119555Y-34810D02*
X119555Y-35210D01*
X118530Y-35210D02*
X119555Y-35210D01*
X119555Y-34810D02*
X118530Y-34810D01*
X118565Y-37988D02*
G75*
G03X118565Y-37988I-62J0D01*
G74*
G01*
X117540Y-37650D02*
X117540Y-38050D01*
X118565Y-37650D02*
X118565Y-38050D01*
X117540Y-38050D02*
X118565Y-38050D01*
X118565Y-37650D02*
X117540Y-37650D01*
X117555Y-35148D02*
G75*
G03X117555Y-35148I-62J0D01*
G74*
G01*
X116530Y-34810D02*
X116530Y-35210D01*
X117555Y-34810D02*
X117555Y-35210D01*
X116530Y-35210D02*
X117555Y-35210D01*
X117555Y-34810D02*
X116530Y-34810D01*
X116575Y-37988D02*
G75*
G03X116575Y-37988I-62J0D01*
G74*
G01*
X115550Y-37650D02*
X115550Y-38050D01*
X116575Y-37650D02*
X116575Y-38050D01*
X115550Y-38050D02*
X116575Y-38050D01*
X116575Y-37650D02*
X115550Y-37650D01*
X115555Y-35148D02*
G75*
G03X115555Y-35148I-62J0D01*
G74*
G01*
X114530Y-34810D02*
X114530Y-35210D01*
X115555Y-34810D02*
X115555Y-35210D01*
X114530Y-35210D02*
X115555Y-35210D01*
X115555Y-34810D02*
X114530Y-34810D01*
X114575Y-37988D02*
G75*
G03X114575Y-37988I-62J0D01*
G74*
G01*
X113550Y-37650D02*
X113550Y-38050D01*
X114575Y-37650D02*
X114575Y-38050D01*
X113550Y-38050D02*
X114575Y-38050D01*
X114575Y-37650D02*
X113550Y-37650D01*
X121565Y-35148D02*
G75*
G03X121565Y-35148I-62J0D01*
G74*
G01*
X120540Y-34810D02*
X120540Y-35210D01*
X121565Y-34810D02*
X121565Y-35210D01*
X120540Y-35210D02*
X121565Y-35210D01*
X121565Y-34810D02*
X120540Y-34810D01*
X128555Y-37988D02*
G75*
G03X128555Y-37988I-62J0D01*
G74*
G01*
X127530Y-37650D02*
X127530Y-38050D01*
X128555Y-37650D02*
X128555Y-38050D01*
X127530Y-38050D02*
X128555Y-38050D01*
X128555Y-37650D02*
X127530Y-37650D01*
X127555Y-35148D02*
G75*
G03X127555Y-35148I-62J0D01*
G74*
G01*
X126530Y-34810D02*
X126530Y-35210D01*
X127555Y-34810D02*
X127555Y-35210D01*
X126530Y-35210D02*
X127555Y-35210D01*
X127555Y-34810D02*
X126530Y-34810D01*
X126565Y-37988D02*
G75*
G03X126565Y-37988I-62J0D01*
G74*
G01*
X125540Y-37650D02*
X125540Y-38050D01*
X126565Y-37650D02*
X126565Y-38050D01*
X125540Y-38050D02*
X126565Y-38050D01*
X126565Y-37650D02*
X125540Y-37650D01*
X125555Y-35148D02*
G75*
G03X125555Y-35148I-62J0D01*
G74*
G01*
X124530Y-34810D02*
X124530Y-35210D01*
X125555Y-34810D02*
X125555Y-35210D01*
X124530Y-35210D02*
X125555Y-35210D01*
X125555Y-34810D02*
X124530Y-34810D01*
X124565Y-37988D02*
G75*
G03X124565Y-37988I-62J0D01*
G74*
G01*
X123540Y-37650D02*
X123540Y-38050D01*
X124565Y-37650D02*
X124565Y-38050D01*
X123540Y-38050D02*
X124565Y-38050D01*
X124565Y-37650D02*
X123540Y-37650D01*
X123565Y-35148D02*
G75*
G03X123565Y-35148I-62J0D01*
G74*
G01*
X122540Y-34810D02*
X122540Y-35210D01*
X123565Y-34810D02*
X123565Y-35210D01*
X122540Y-35210D02*
X123565Y-35210D01*
X123565Y-34810D02*
X122540Y-34810D01*
X122555Y-37988D02*
G75*
G03X122555Y-37988I-62J0D01*
G74*
G01*
X121530Y-37650D02*
X121530Y-38050D01*
X122555Y-37650D02*
X122555Y-38050D01*
X121530Y-38050D02*
X122555Y-38050D01*
X122555Y-37650D02*
X121530Y-37650D01*
X82569Y-49982D02*
G75*
G03X82569Y-49982I-62J0D01*
G74*
G01*
X83470Y-50320D02*
X83470Y-49920D01*
X82445Y-50320D02*
X82445Y-49920D01*
X83470Y-49920D02*
X82445Y-49920D01*
X82445Y-50320D02*
X83470Y-50320D01*
X102719Y-49982D02*
G75*
G03X102719Y-49982I-62J0D01*
G74*
G01*
X103620Y-50320D02*
X103620Y-49920D01*
X102595Y-50320D02*
X102595Y-49920D01*
X103620Y-49920D02*
X102595Y-49920D01*
X102595Y-50320D02*
X103620Y-50320D01*
X97759Y-49982D02*
G75*
G03X97759Y-49982I-62J0D01*
G74*
G01*
X98660Y-50320D02*
X98660Y-49920D01*
X97635Y-50320D02*
X97635Y-49920D01*
X98660Y-49920D02*
X97635Y-49920D01*
X97635Y-50320D02*
X98660Y-50320D01*
X107689Y-50002D02*
G75*
G03X107689Y-50002I-62J0D01*
G74*
G01*
X108590Y-50340D02*
X108590Y-49940D01*
X107565Y-50340D02*
X107565Y-49940D01*
X108590Y-49940D02*
X107565Y-49940D01*
X107565Y-50340D02*
X108590Y-50340D01*
X77589Y-49982D02*
G75*
G03X77589Y-49982I-62J0D01*
G74*
G01*
X78490Y-50320D02*
X78490Y-49920D01*
X77465Y-50320D02*
X77465Y-49920D01*
X78490Y-49920D02*
X77465Y-49920D01*
X77465Y-50320D02*
X78490Y-50320D01*
X112709Y-49982D02*
G75*
G03X112709Y-49982I-62J0D01*
G74*
G01*
X113610Y-50320D02*
X113610Y-49920D01*
X112585Y-50320D02*
X112585Y-49920D01*
X113610Y-49920D02*
X112585Y-49920D01*
X112585Y-50320D02*
X113610Y-50320D01*
X92779Y-49982D02*
G75*
G03X92779Y-49982I-62J0D01*
G74*
G01*
X93680Y-50320D02*
X93680Y-49920D01*
X92655Y-50320D02*
X92655Y-49920D01*
X93680Y-49920D02*
X92655Y-49920D01*
X92655Y-50320D02*
X93680Y-50320D01*
X87699Y-49982D02*
G75*
G03X87699Y-49982I-62J0D01*
G74*
G01*
X88600Y-50320D02*
X88600Y-49920D01*
X87575Y-50320D02*
X87575Y-49920D01*
X88600Y-49920D02*
X87575Y-49920D01*
X87575Y-50320D02*
X88600Y-50320D01*
G54D10*
X70659Y-49421D02*
G75*
G03X70659Y-49421I-149J0D01*
G74*
G01*
X71005Y-49081D02*
X68013Y-49081D01*
X68013Y-49081D02*
X68013Y-53215D01*
X68013Y-53215D02*
X71005Y-53215D01*
X71005Y-53215D02*
X71005Y-49081D01*
G54D12*
X89950Y-50970D02*
G75*
G03X89950Y-50970I-70J0D01*
G74*
G01*
X91030Y-50320D02*
X91030Y-50920D01*
X91030Y-50920D02*
X89930Y-50920D01*
X89930Y-50920D02*
X89930Y-50320D01*
X89930Y-49720D02*
X89930Y-49120D01*
X89930Y-49120D02*
X91030Y-49120D01*
X91030Y-49120D02*
X91030Y-49720D01*
X99950Y-50970D02*
G75*
G03X99950Y-50970I-70J0D01*
G74*
G01*
X101030Y-50320D02*
X101030Y-50920D01*
X101030Y-50920D02*
X99930Y-50920D01*
X99930Y-50920D02*
X99930Y-50320D01*
X99930Y-49720D02*
X99930Y-49120D01*
X99930Y-49120D02*
X101030Y-49120D01*
X101030Y-49120D02*
X101030Y-49720D01*
X105010Y-50990D02*
G75*
G03X105010Y-50990I-70J0D01*
G74*
G01*
X106090Y-50340D02*
X106090Y-50940D01*
X106090Y-50940D02*
X104990Y-50940D01*
X104990Y-50940D02*
X104990Y-50340D01*
X104990Y-49740D02*
X104990Y-49140D01*
X104990Y-49140D02*
X106090Y-49140D01*
X106090Y-49140D02*
X106090Y-49740D01*
X94980Y-50970D02*
G75*
G03X94980Y-50970I-70J0D01*
G74*
G01*
X96060Y-50320D02*
X96060Y-50920D01*
X96060Y-50920D02*
X94960Y-50920D01*
X94960Y-50920D02*
X94960Y-50320D01*
X94960Y-49720D02*
X94960Y-49120D01*
X94960Y-49120D02*
X96060Y-49120D01*
X96060Y-49120D02*
X96060Y-49720D01*
X109990Y-50990D02*
G75*
G03X109990Y-50990I-70J0D01*
G74*
G01*
X111070Y-50340D02*
X111070Y-50940D01*
X111070Y-50940D02*
X109970Y-50940D01*
X109970Y-50940D02*
X109970Y-50340D01*
X109970Y-49740D02*
X109970Y-49140D01*
X109970Y-49140D02*
X111070Y-49140D01*
X111070Y-49140D02*
X111070Y-49740D01*
X84910Y-50970D02*
G75*
G03X84910Y-50970I-70J0D01*
G74*
G01*
X85990Y-50320D02*
X85990Y-50920D01*
X85990Y-50920D02*
X84890Y-50920D01*
X84890Y-50920D02*
X84890Y-50320D01*
X84890Y-49720D02*
X84890Y-49120D01*
X84890Y-49120D02*
X85990Y-49120D01*
X85990Y-49120D02*
X85990Y-49720D01*
X115040Y-50960D02*
G75*
G03X115040Y-50960I-70J0D01*
G74*
G01*
X116120Y-50310D02*
X116120Y-50910D01*
X116120Y-50910D02*
X115020Y-50910D01*
X115020Y-50910D02*
X115020Y-50310D01*
X115020Y-49710D02*
X115020Y-49110D01*
X115020Y-49110D02*
X116120Y-49110D01*
X116120Y-49110D02*
X116120Y-49710D01*
X79960Y-50970D02*
G75*
G03X79960Y-50970I-70J0D01*
G74*
G01*
X81040Y-50320D02*
X81040Y-50920D01*
X81040Y-50920D02*
X79940Y-50920D01*
X79940Y-50920D02*
X79940Y-50320D01*
X79940Y-49720D02*
X79940Y-49120D01*
X79940Y-49120D02*
X81040Y-49120D01*
X81040Y-49120D02*
X81040Y-49720D01*
G54D13*
X127170Y-46480D02*
G75*
G03X127170Y-46480I-50J0D01*
G74*
G01*
X126670Y-46480D02*
X127070Y-46480D01*
X127070Y-46480D02*
X127070Y-45880D01*
X127070Y-45880D02*
X126670Y-45880D01*
X126270Y-45880D02*
X125870Y-45880D01*
X125870Y-45880D02*
X125870Y-46480D01*
X125870Y-46480D02*
X126270Y-46480D01*
X73330Y-46410D02*
G75*
G03X73330Y-46410I-50J0D01*
G74*
G01*
X72830Y-46410D02*
X73230Y-46410D01*
X73230Y-46410D02*
X73230Y-45810D01*
X73230Y-45810D02*
X72830Y-45810D01*
X72430Y-45810D02*
X72030Y-45810D01*
X72030Y-45810D02*
X72030Y-46410D01*
X72030Y-46410D02*
X72430Y-46410D01*
X81630Y-46410D02*
G75*
G03X81630Y-46410I-50J0D01*
G74*
G01*
X81130Y-46410D02*
X81530Y-46410D01*
X81530Y-46410D02*
X81530Y-45810D01*
X81530Y-45810D02*
X81130Y-45810D01*
X80730Y-45810D02*
X80330Y-45810D01*
X80330Y-45810D02*
X80330Y-46410D01*
X80330Y-46410D02*
X80730Y-46410D01*
X89680Y-46410D02*
G75*
G03X89680Y-46410I-50J0D01*
G74*
G01*
X89180Y-46410D02*
X89580Y-46410D01*
X89580Y-46410D02*
X89580Y-45810D01*
X89580Y-45810D02*
X89180Y-45810D01*
X88780Y-45810D02*
X88380Y-45810D01*
X88380Y-45810D02*
X88380Y-46410D01*
X88380Y-46410D02*
X88780Y-46410D01*
X97770Y-46410D02*
G75*
G03X97770Y-46410I-50J0D01*
G74*
G01*
X97270Y-46410D02*
X97670Y-46410D01*
X97670Y-46410D02*
X97670Y-45810D01*
X97670Y-45810D02*
X97270Y-45810D01*
X96870Y-45810D02*
X96470Y-45810D01*
X96470Y-45810D02*
X96470Y-46410D01*
X96470Y-46410D02*
X96870Y-46410D01*
X105770Y-46410D02*
G75*
G03X105770Y-46410I-50J0D01*
G74*
G01*
X105270Y-46410D02*
X105670Y-46410D01*
X105670Y-46410D02*
X105670Y-45810D01*
X105670Y-45810D02*
X105270Y-45810D01*
X104870Y-45810D02*
X104470Y-45810D01*
X104470Y-45810D02*
X104470Y-46410D01*
X104470Y-46410D02*
X104870Y-46410D01*
X113480Y-46410D02*
G75*
G03X113480Y-46410I-50J0D01*
G74*
G01*
X112980Y-46410D02*
X113380Y-46410D01*
X113380Y-46410D02*
X113380Y-45810D01*
X113380Y-45810D02*
X112980Y-45810D01*
X112580Y-45810D02*
X112180Y-45810D01*
X112180Y-45810D02*
X112180Y-46410D01*
X112180Y-46410D02*
X112580Y-46410D01*
X121560Y-46410D02*
G75*
G03X121560Y-46410I-50J0D01*
G74*
G01*
X121060Y-46410D02*
X121460Y-46410D01*
X121460Y-46410D02*
X121460Y-45810D01*
X121460Y-45810D02*
X121060Y-45810D01*
X120660Y-45810D02*
X120260Y-45810D01*
X120260Y-45810D02*
X120260Y-46410D01*
X120260Y-46410D02*
X120660Y-46410D01*
X84690Y-49410D02*
G75*
G03X84690Y-49410I-50J0D01*
G74*
G01*
X84640Y-49860D02*
X84640Y-49460D01*
X84640Y-49460D02*
X84040Y-49460D01*
X84040Y-49460D02*
X84040Y-49860D01*
X84040Y-50260D02*
X84040Y-50660D01*
X84040Y-50660D02*
X84640Y-50660D01*
X84640Y-50660D02*
X84640Y-50260D01*
X79670Y-49410D02*
G75*
G03X79670Y-49410I-50J0D01*
G74*
G01*
X79620Y-49860D02*
X79620Y-49460D01*
X79620Y-49460D02*
X79020Y-49460D01*
X79020Y-49460D02*
X79020Y-49860D01*
X79020Y-50260D02*
X79020Y-50660D01*
X79020Y-50660D02*
X79620Y-50660D01*
X79620Y-50660D02*
X79620Y-50260D01*
X89730Y-49410D02*
G75*
G03X89730Y-49410I-50J0D01*
G74*
G01*
X89680Y-49860D02*
X89680Y-49460D01*
X89680Y-49460D02*
X89080Y-49460D01*
X89080Y-49460D02*
X89080Y-49860D01*
X89080Y-50260D02*
X89080Y-50660D01*
X89080Y-50660D02*
X89680Y-50660D01*
X89680Y-50660D02*
X89680Y-50260D01*
X114870Y-49410D02*
G75*
G03X114870Y-49410I-50J0D01*
G74*
G01*
X114820Y-49860D02*
X114820Y-49460D01*
X114820Y-49460D02*
X114220Y-49460D01*
X114220Y-49460D02*
X114220Y-49860D01*
X114220Y-50260D02*
X114220Y-50660D01*
X114220Y-50660D02*
X114820Y-50660D01*
X114820Y-50660D02*
X114820Y-50260D01*
X109830Y-49430D02*
G75*
G03X109830Y-49430I-50J0D01*
G74*
G01*
X109780Y-49880D02*
X109780Y-49480D01*
X109780Y-49480D02*
X109180Y-49480D01*
X109180Y-49480D02*
X109180Y-49880D01*
X109180Y-50280D02*
X109180Y-50680D01*
X109180Y-50680D02*
X109780Y-50680D01*
X109780Y-50680D02*
X109780Y-50280D01*
X104790Y-49410D02*
G75*
G03X104790Y-49410I-50J0D01*
G74*
G01*
X104740Y-49860D02*
X104740Y-49460D01*
X104740Y-49460D02*
X104140Y-49460D01*
X104140Y-49460D02*
X104140Y-49860D01*
X104140Y-50260D02*
X104140Y-50660D01*
X104140Y-50660D02*
X104740Y-50660D01*
X104740Y-50660D02*
X104740Y-50260D01*
X99770Y-49410D02*
G75*
G03X99770Y-49410I-50J0D01*
G74*
G01*
X99720Y-49860D02*
X99720Y-49460D01*
X99720Y-49460D02*
X99120Y-49460D01*
X99120Y-49460D02*
X99120Y-49860D01*
X99120Y-50260D02*
X99120Y-50660D01*
X99120Y-50660D02*
X99720Y-50660D01*
X99720Y-50660D02*
X99720Y-50260D01*
X94780Y-49410D02*
G75*
G03X94780Y-49410I-50J0D01*
G74*
G01*
X94730Y-49860D02*
X94730Y-49460D01*
X94730Y-49460D02*
X94130Y-49460D01*
X94130Y-49460D02*
X94130Y-49860D01*
X94130Y-50260D02*
X94130Y-50660D01*
X94130Y-50660D02*
X94730Y-50660D01*
X94730Y-50660D02*
X94730Y-50260D01*
G54D10*
X65113Y-42566D02*
X65432Y-42566D01*
X65470Y-42585D01*
X65488Y-42604D01*
X65507Y-42641D01*
X65507Y-42716D01*
X65488Y-42754D01*
X65470Y-42773D01*
X65432Y-42791D01*
X65113Y-42791D01*
X65151Y-42960D02*
X65132Y-42979D01*
X65113Y-43016D01*
X65113Y-43110D01*
X65132Y-43148D01*
X65151Y-43166D01*
X65188Y-43185D01*
X65226Y-43185D01*
X65282Y-43166D01*
X65507Y-42941D01*
X65507Y-43185D01*
X65113Y-43429D02*
X65113Y-43466D01*
X65132Y-43504D01*
X65151Y-43523D01*
X65188Y-43541D01*
X65263Y-43560D01*
X65357Y-43560D01*
X65432Y-43541D01*
X65470Y-43523D01*
X65488Y-43504D01*
X65507Y-43466D01*
X65507Y-43429D01*
X65488Y-43391D01*
X65470Y-43373D01*
X65432Y-43354D01*
X65357Y-43335D01*
X65263Y-43335D01*
X65188Y-43354D01*
X65151Y-43373D01*
X65132Y-43391D01*
X65113Y-43429D01*
X65507Y-43935D02*
X65507Y-43710D01*
X65507Y-43822D02*
X65113Y-43822D01*
X65170Y-43785D01*
X65207Y-43747D01*
X65226Y-43710D01*
G54D14*
X71384Y-36060D02*
X71412Y-36045D01*
X71441Y-36017D01*
X71484Y-35974D01*
X71512Y-35960D01*
X71541Y-35960D01*
X71527Y-36031D02*
X71555Y-36017D01*
X71584Y-35988D01*
X71598Y-35931D01*
X71598Y-35831D01*
X71584Y-35774D01*
X71555Y-35745D01*
X71527Y-35731D01*
X71470Y-35731D01*
X71441Y-35745D01*
X71412Y-35774D01*
X71398Y-35831D01*
X71398Y-35931D01*
X71412Y-35988D01*
X71441Y-36017D01*
X71470Y-36031D01*
X71527Y-36031D01*
X71284Y-35760D02*
X71269Y-35745D01*
X71241Y-35731D01*
X71169Y-35731D01*
X71141Y-35745D01*
X71127Y-35760D01*
X71112Y-35788D01*
X71112Y-35817D01*
X71127Y-35860D01*
X71298Y-36031D01*
X71112Y-36031D01*
X70927Y-35731D02*
X70898Y-35731D01*
X70870Y-35745D01*
X70855Y-35760D01*
X70841Y-35788D01*
X70827Y-35845D01*
X70827Y-35917D01*
X70841Y-35974D01*
X70855Y-36002D01*
X70870Y-36017D01*
X70898Y-36031D01*
X70927Y-36031D01*
X70955Y-36017D01*
X70970Y-36002D01*
X70984Y-35974D01*
X70998Y-35917D01*
X70998Y-35845D01*
X70984Y-35788D01*
X70970Y-35760D01*
X70955Y-35745D01*
X70927Y-35731D01*
X70727Y-35731D02*
X70527Y-35731D01*
X70655Y-36031D01*
X66364Y-38880D02*
X66392Y-38865D01*
X66421Y-38837D01*
X66464Y-38794D01*
X66492Y-38780D01*
X66521Y-38780D01*
X66507Y-38851D02*
X66535Y-38837D01*
X66564Y-38808D01*
X66578Y-38751D01*
X66578Y-38651D01*
X66564Y-38594D01*
X66535Y-38565D01*
X66507Y-38551D01*
X66450Y-38551D01*
X66421Y-38565D01*
X66392Y-38594D01*
X66378Y-38651D01*
X66378Y-38751D01*
X66392Y-38808D01*
X66421Y-38837D01*
X66450Y-38851D01*
X66507Y-38851D01*
X66264Y-38580D02*
X66249Y-38565D01*
X66221Y-38551D01*
X66149Y-38551D01*
X66121Y-38565D01*
X66107Y-38580D01*
X66092Y-38608D01*
X66092Y-38637D01*
X66107Y-38680D01*
X66278Y-38851D01*
X66092Y-38851D01*
X65907Y-38551D02*
X65878Y-38551D01*
X65850Y-38565D01*
X65835Y-38580D01*
X65821Y-38608D01*
X65807Y-38665D01*
X65807Y-38737D01*
X65821Y-38794D01*
X65835Y-38822D01*
X65850Y-38837D01*
X65878Y-38851D01*
X65907Y-38851D01*
X65935Y-38837D01*
X65950Y-38822D01*
X65964Y-38794D01*
X65978Y-38737D01*
X65978Y-38665D01*
X65964Y-38608D01*
X65950Y-38580D01*
X65935Y-38565D01*
X65907Y-38551D01*
X65692Y-38580D02*
X65678Y-38565D01*
X65650Y-38551D01*
X65578Y-38551D01*
X65550Y-38565D01*
X65535Y-38580D01*
X65521Y-38608D01*
X65521Y-38637D01*
X65535Y-38680D01*
X65707Y-38851D01*
X65521Y-38851D01*
X67384Y-36020D02*
X67412Y-36005D01*
X67441Y-35977D01*
X67484Y-35934D01*
X67512Y-35920D01*
X67541Y-35920D01*
X67527Y-35991D02*
X67555Y-35977D01*
X67584Y-35948D01*
X67598Y-35891D01*
X67598Y-35791D01*
X67584Y-35734D01*
X67555Y-35705D01*
X67527Y-35691D01*
X67470Y-35691D01*
X67441Y-35705D01*
X67412Y-35734D01*
X67398Y-35791D01*
X67398Y-35891D01*
X67412Y-35948D01*
X67441Y-35977D01*
X67470Y-35991D01*
X67527Y-35991D01*
X67284Y-35720D02*
X67269Y-35705D01*
X67241Y-35691D01*
X67169Y-35691D01*
X67141Y-35705D01*
X67127Y-35720D01*
X67112Y-35748D01*
X67112Y-35777D01*
X67127Y-35820D01*
X67298Y-35991D01*
X67112Y-35991D01*
X66927Y-35691D02*
X66898Y-35691D01*
X66870Y-35705D01*
X66855Y-35720D01*
X66841Y-35748D01*
X66827Y-35805D01*
X66827Y-35877D01*
X66841Y-35934D01*
X66855Y-35962D01*
X66870Y-35977D01*
X66898Y-35991D01*
X66927Y-35991D01*
X66955Y-35977D01*
X66970Y-35962D01*
X66984Y-35934D01*
X66998Y-35877D01*
X66998Y-35805D01*
X66984Y-35748D01*
X66970Y-35720D01*
X66955Y-35705D01*
X66927Y-35691D01*
X66727Y-35691D02*
X66541Y-35691D01*
X66641Y-35805D01*
X66598Y-35805D01*
X66570Y-35820D01*
X66555Y-35834D01*
X66541Y-35862D01*
X66541Y-35934D01*
X66555Y-35962D01*
X66570Y-35977D01*
X66598Y-35991D01*
X66684Y-35991D01*
X66712Y-35977D01*
X66727Y-35962D01*
X72374Y-38900D02*
X72402Y-38885D01*
X72431Y-38857D01*
X72474Y-38814D01*
X72502Y-38800D01*
X72531Y-38800D01*
X72517Y-38871D02*
X72545Y-38857D01*
X72574Y-38828D01*
X72588Y-38771D01*
X72588Y-38671D01*
X72574Y-38614D01*
X72545Y-38585D01*
X72517Y-38571D01*
X72460Y-38571D01*
X72431Y-38585D01*
X72402Y-38614D01*
X72388Y-38671D01*
X72388Y-38771D01*
X72402Y-38828D01*
X72431Y-38857D01*
X72460Y-38871D01*
X72517Y-38871D01*
X72274Y-38600D02*
X72259Y-38585D01*
X72231Y-38571D01*
X72159Y-38571D01*
X72131Y-38585D01*
X72117Y-38600D01*
X72102Y-38628D01*
X72102Y-38657D01*
X72117Y-38700D01*
X72288Y-38871D01*
X72102Y-38871D01*
X71917Y-38571D02*
X71888Y-38571D01*
X71860Y-38585D01*
X71845Y-38600D01*
X71831Y-38628D01*
X71817Y-38685D01*
X71817Y-38757D01*
X71831Y-38814D01*
X71845Y-38842D01*
X71860Y-38857D01*
X71888Y-38871D01*
X71917Y-38871D01*
X71945Y-38857D01*
X71960Y-38842D01*
X71974Y-38814D01*
X71988Y-38757D01*
X71988Y-38685D01*
X71974Y-38628D01*
X71960Y-38600D01*
X71945Y-38585D01*
X71917Y-38571D01*
X71645Y-38700D02*
X71674Y-38685D01*
X71688Y-38671D01*
X71702Y-38642D01*
X71702Y-38628D01*
X71688Y-38600D01*
X71674Y-38585D01*
X71645Y-38571D01*
X71588Y-38571D01*
X71560Y-38585D01*
X71545Y-38600D01*
X71531Y-38628D01*
X71531Y-38642D01*
X71545Y-38671D01*
X71560Y-38685D01*
X71588Y-38700D01*
X71645Y-38700D01*
X71674Y-38714D01*
X71688Y-38728D01*
X71702Y-38757D01*
X71702Y-38814D01*
X71688Y-38842D01*
X71674Y-38857D01*
X71645Y-38871D01*
X71588Y-38871D01*
X71560Y-38857D01*
X71545Y-38842D01*
X71531Y-38814D01*
X71531Y-38757D01*
X71545Y-38728D01*
X71560Y-38714D01*
X71588Y-38700D01*
X68354Y-38880D02*
X68382Y-38865D01*
X68411Y-38837D01*
X68454Y-38794D01*
X68482Y-38780D01*
X68511Y-38780D01*
X68497Y-38851D02*
X68525Y-38837D01*
X68554Y-38808D01*
X68568Y-38751D01*
X68568Y-38651D01*
X68554Y-38594D01*
X68525Y-38565D01*
X68497Y-38551D01*
X68440Y-38551D01*
X68411Y-38565D01*
X68382Y-38594D01*
X68368Y-38651D01*
X68368Y-38751D01*
X68382Y-38808D01*
X68411Y-38837D01*
X68440Y-38851D01*
X68497Y-38851D01*
X68254Y-38580D02*
X68239Y-38565D01*
X68211Y-38551D01*
X68139Y-38551D01*
X68111Y-38565D01*
X68097Y-38580D01*
X68082Y-38608D01*
X68082Y-38637D01*
X68097Y-38680D01*
X68268Y-38851D01*
X68082Y-38851D01*
X67897Y-38551D02*
X67868Y-38551D01*
X67840Y-38565D01*
X67825Y-38580D01*
X67811Y-38608D01*
X67797Y-38665D01*
X67797Y-38737D01*
X67811Y-38794D01*
X67825Y-38822D01*
X67840Y-38837D01*
X67868Y-38851D01*
X67897Y-38851D01*
X67925Y-38837D01*
X67940Y-38822D01*
X67954Y-38794D01*
X67968Y-38737D01*
X67968Y-38665D01*
X67954Y-38608D01*
X67940Y-38580D01*
X67925Y-38565D01*
X67897Y-38551D01*
X67540Y-38651D02*
X67540Y-38851D01*
X67611Y-38537D02*
X67682Y-38751D01*
X67497Y-38751D01*
X65374Y-35030D02*
X65402Y-35015D01*
X65431Y-34987D01*
X65474Y-34944D01*
X65502Y-34930D01*
X65531Y-34930D01*
X65517Y-35001D02*
X65545Y-34987D01*
X65574Y-34958D01*
X65588Y-34901D01*
X65588Y-34801D01*
X65574Y-34744D01*
X65545Y-34715D01*
X65517Y-34701D01*
X65460Y-34701D01*
X65431Y-34715D01*
X65402Y-34744D01*
X65388Y-34801D01*
X65388Y-34901D01*
X65402Y-34958D01*
X65431Y-34987D01*
X65460Y-35001D01*
X65517Y-35001D01*
X65274Y-34730D02*
X65259Y-34715D01*
X65231Y-34701D01*
X65159Y-34701D01*
X65131Y-34715D01*
X65117Y-34730D01*
X65102Y-34758D01*
X65102Y-34787D01*
X65117Y-34830D01*
X65288Y-35001D01*
X65102Y-35001D01*
X64917Y-34701D02*
X64888Y-34701D01*
X64860Y-34715D01*
X64845Y-34730D01*
X64831Y-34758D01*
X64817Y-34815D01*
X64817Y-34887D01*
X64831Y-34944D01*
X64845Y-34972D01*
X64860Y-34987D01*
X64888Y-35001D01*
X64917Y-35001D01*
X64945Y-34987D01*
X64960Y-34972D01*
X64974Y-34944D01*
X64988Y-34887D01*
X64988Y-34815D01*
X64974Y-34758D01*
X64960Y-34730D01*
X64945Y-34715D01*
X64917Y-34701D01*
X64531Y-35001D02*
X64702Y-35001D01*
X64617Y-35001D02*
X64617Y-34701D01*
X64645Y-34744D01*
X64674Y-34772D01*
X64702Y-34787D01*
X70364Y-38960D02*
X70392Y-38945D01*
X70421Y-38917D01*
X70464Y-38874D01*
X70492Y-38860D01*
X70521Y-38860D01*
X70507Y-38931D02*
X70535Y-38917D01*
X70564Y-38888D01*
X70578Y-38831D01*
X70578Y-38731D01*
X70564Y-38674D01*
X70535Y-38645D01*
X70507Y-38631D01*
X70450Y-38631D01*
X70421Y-38645D01*
X70392Y-38674D01*
X70378Y-38731D01*
X70378Y-38831D01*
X70392Y-38888D01*
X70421Y-38917D01*
X70450Y-38931D01*
X70507Y-38931D01*
X70264Y-38660D02*
X70249Y-38645D01*
X70221Y-38631D01*
X70149Y-38631D01*
X70121Y-38645D01*
X70107Y-38660D01*
X70092Y-38688D01*
X70092Y-38717D01*
X70107Y-38760D01*
X70278Y-38931D01*
X70092Y-38931D01*
X69907Y-38631D02*
X69878Y-38631D01*
X69850Y-38645D01*
X69835Y-38660D01*
X69821Y-38688D01*
X69807Y-38745D01*
X69807Y-38817D01*
X69821Y-38874D01*
X69835Y-38902D01*
X69850Y-38917D01*
X69878Y-38931D01*
X69907Y-38931D01*
X69935Y-38917D01*
X69950Y-38902D01*
X69964Y-38874D01*
X69978Y-38817D01*
X69978Y-38745D01*
X69964Y-38688D01*
X69950Y-38660D01*
X69935Y-38645D01*
X69907Y-38631D01*
X69550Y-38631D02*
X69607Y-38631D01*
X69635Y-38645D01*
X69650Y-38660D01*
X69678Y-38702D01*
X69692Y-38760D01*
X69692Y-38874D01*
X69678Y-38902D01*
X69664Y-38917D01*
X69635Y-38931D01*
X69578Y-38931D01*
X69550Y-38917D01*
X69535Y-38902D01*
X69521Y-38874D01*
X69521Y-38802D01*
X69535Y-38774D01*
X69550Y-38760D01*
X69578Y-38745D01*
X69635Y-38745D01*
X69664Y-38760D01*
X69678Y-38774D01*
X69692Y-38802D01*
X69374Y-36050D02*
X69402Y-36035D01*
X69431Y-36007D01*
X69474Y-35964D01*
X69502Y-35950D01*
X69531Y-35950D01*
X69517Y-36021D02*
X69545Y-36007D01*
X69574Y-35978D01*
X69588Y-35921D01*
X69588Y-35821D01*
X69574Y-35764D01*
X69545Y-35735D01*
X69517Y-35721D01*
X69460Y-35721D01*
X69431Y-35735D01*
X69402Y-35764D01*
X69388Y-35821D01*
X69388Y-35921D01*
X69402Y-35978D01*
X69431Y-36007D01*
X69460Y-36021D01*
X69517Y-36021D01*
X69274Y-35750D02*
X69259Y-35735D01*
X69231Y-35721D01*
X69159Y-35721D01*
X69131Y-35735D01*
X69117Y-35750D01*
X69102Y-35778D01*
X69102Y-35807D01*
X69117Y-35850D01*
X69288Y-36021D01*
X69102Y-36021D01*
X68917Y-35721D02*
X68888Y-35721D01*
X68860Y-35735D01*
X68845Y-35750D01*
X68831Y-35778D01*
X68817Y-35835D01*
X68817Y-35907D01*
X68831Y-35964D01*
X68845Y-35992D01*
X68860Y-36007D01*
X68888Y-36021D01*
X68917Y-36021D01*
X68945Y-36007D01*
X68960Y-35992D01*
X68974Y-35964D01*
X68988Y-35907D01*
X68988Y-35835D01*
X68974Y-35778D01*
X68960Y-35750D01*
X68945Y-35735D01*
X68917Y-35721D01*
X68545Y-35721D02*
X68688Y-35721D01*
X68702Y-35864D01*
X68688Y-35850D01*
X68660Y-35835D01*
X68588Y-35835D01*
X68560Y-35850D01*
X68545Y-35864D01*
X68531Y-35892D01*
X68531Y-35964D01*
X68545Y-35992D01*
X68560Y-36007D01*
X68588Y-36021D01*
X68660Y-36021D01*
X68688Y-36007D01*
X68702Y-35992D01*
G54D10*
X89833Y-42566D02*
X90152Y-42566D01*
X90190Y-42585D01*
X90208Y-42604D01*
X90227Y-42641D01*
X90227Y-42716D01*
X90208Y-42754D01*
X90190Y-42773D01*
X90152Y-42791D01*
X89833Y-42791D01*
X89871Y-42960D02*
X89852Y-42979D01*
X89833Y-43016D01*
X89833Y-43110D01*
X89852Y-43148D01*
X89871Y-43166D01*
X89908Y-43185D01*
X89946Y-43185D01*
X90002Y-43166D01*
X90227Y-42941D01*
X90227Y-43185D01*
X89833Y-43429D02*
X89833Y-43466D01*
X89852Y-43504D01*
X89871Y-43523D01*
X89908Y-43541D01*
X89983Y-43560D01*
X90077Y-43560D01*
X90152Y-43541D01*
X90190Y-43523D01*
X90208Y-43504D01*
X90227Y-43466D01*
X90227Y-43429D01*
X90208Y-43391D01*
X90190Y-43373D01*
X90152Y-43354D01*
X90077Y-43335D01*
X89983Y-43335D01*
X89908Y-43354D01*
X89871Y-43373D01*
X89852Y-43391D01*
X89833Y-43429D01*
X89965Y-43897D02*
X90227Y-43897D01*
X89815Y-43804D02*
X90096Y-43710D01*
X90096Y-43954D01*
X121853Y-42566D02*
X122172Y-42566D01*
X122210Y-42585D01*
X122228Y-42604D01*
X122247Y-42641D01*
X122247Y-42716D01*
X122228Y-42754D01*
X122210Y-42773D01*
X122172Y-42791D01*
X121853Y-42791D01*
X121891Y-42960D02*
X121872Y-42979D01*
X121853Y-43016D01*
X121853Y-43110D01*
X121872Y-43148D01*
X121891Y-43166D01*
X121928Y-43185D01*
X121966Y-43185D01*
X122022Y-43166D01*
X122247Y-42941D01*
X122247Y-43185D01*
X121853Y-43429D02*
X121853Y-43466D01*
X121872Y-43504D01*
X121891Y-43523D01*
X121928Y-43541D01*
X122003Y-43560D01*
X122097Y-43560D01*
X122172Y-43541D01*
X122210Y-43523D01*
X122228Y-43504D01*
X122247Y-43466D01*
X122247Y-43429D01*
X122228Y-43391D01*
X122210Y-43373D01*
X122172Y-43354D01*
X122097Y-43335D01*
X122003Y-43335D01*
X121928Y-43354D01*
X121891Y-43373D01*
X121872Y-43391D01*
X121853Y-43429D01*
X122022Y-43785D02*
X122003Y-43747D01*
X121985Y-43729D01*
X121947Y-43710D01*
X121928Y-43710D01*
X121891Y-43729D01*
X121872Y-43747D01*
X121853Y-43785D01*
X121853Y-43860D01*
X121872Y-43897D01*
X121891Y-43916D01*
X121928Y-43935D01*
X121947Y-43935D01*
X121985Y-43916D01*
X122003Y-43897D01*
X122022Y-43860D01*
X122022Y-43785D01*
X122041Y-43747D01*
X122060Y-43729D01*
X122097Y-43710D01*
X122172Y-43710D01*
X122210Y-43729D01*
X122228Y-43747D01*
X122247Y-43785D01*
X122247Y-43860D01*
X122228Y-43897D01*
X122210Y-43916D01*
X122172Y-43935D01*
X122097Y-43935D01*
X122060Y-43916D01*
X122041Y-43897D01*
X122022Y-43860D01*
X113943Y-42566D02*
X114262Y-42566D01*
X114300Y-42585D01*
X114318Y-42604D01*
X114337Y-42641D01*
X114337Y-42716D01*
X114318Y-42754D01*
X114300Y-42773D01*
X114262Y-42791D01*
X113943Y-42791D01*
X113981Y-42960D02*
X113962Y-42979D01*
X113943Y-43016D01*
X113943Y-43110D01*
X113962Y-43148D01*
X113981Y-43166D01*
X114018Y-43185D01*
X114056Y-43185D01*
X114112Y-43166D01*
X114337Y-42941D01*
X114337Y-43185D01*
X113943Y-43429D02*
X113943Y-43466D01*
X113962Y-43504D01*
X113981Y-43523D01*
X114018Y-43541D01*
X114093Y-43560D01*
X114187Y-43560D01*
X114262Y-43541D01*
X114300Y-43523D01*
X114318Y-43504D01*
X114337Y-43466D01*
X114337Y-43429D01*
X114318Y-43391D01*
X114300Y-43373D01*
X114262Y-43354D01*
X114187Y-43335D01*
X114093Y-43335D01*
X114018Y-43354D01*
X113981Y-43373D01*
X113962Y-43391D01*
X113943Y-43429D01*
X113943Y-43691D02*
X113943Y-43954D01*
X114337Y-43785D01*
X105953Y-42566D02*
X106272Y-42566D01*
X106310Y-42585D01*
X106328Y-42604D01*
X106347Y-42641D01*
X106347Y-42716D01*
X106328Y-42754D01*
X106310Y-42773D01*
X106272Y-42791D01*
X105953Y-42791D01*
X105991Y-42960D02*
X105972Y-42979D01*
X105953Y-43016D01*
X105953Y-43110D01*
X105972Y-43148D01*
X105991Y-43166D01*
X106028Y-43185D01*
X106066Y-43185D01*
X106122Y-43166D01*
X106347Y-42941D01*
X106347Y-43185D01*
X105953Y-43429D02*
X105953Y-43466D01*
X105972Y-43504D01*
X105991Y-43523D01*
X106028Y-43541D01*
X106103Y-43560D01*
X106197Y-43560D01*
X106272Y-43541D01*
X106310Y-43523D01*
X106328Y-43504D01*
X106347Y-43466D01*
X106347Y-43429D01*
X106328Y-43391D01*
X106310Y-43373D01*
X106272Y-43354D01*
X106197Y-43335D01*
X106103Y-43335D01*
X106028Y-43354D01*
X105991Y-43373D01*
X105972Y-43391D01*
X105953Y-43429D01*
X105953Y-43897D02*
X105953Y-43822D01*
X105972Y-43785D01*
X105991Y-43766D01*
X106047Y-43729D01*
X106122Y-43710D01*
X106272Y-43710D01*
X106310Y-43729D01*
X106328Y-43747D01*
X106347Y-43785D01*
X106347Y-43860D01*
X106328Y-43897D01*
X106310Y-43916D01*
X106272Y-43935D01*
X106178Y-43935D01*
X106141Y-43916D01*
X106122Y-43897D01*
X106103Y-43860D01*
X106103Y-43785D01*
X106122Y-43747D01*
X106141Y-43729D01*
X106178Y-43710D01*
X98053Y-42566D02*
X98372Y-42566D01*
X98410Y-42585D01*
X98428Y-42604D01*
X98447Y-42641D01*
X98447Y-42716D01*
X98428Y-42754D01*
X98410Y-42773D01*
X98372Y-42791D01*
X98053Y-42791D01*
X98091Y-42960D02*
X98072Y-42979D01*
X98053Y-43016D01*
X98053Y-43110D01*
X98072Y-43148D01*
X98091Y-43166D01*
X98128Y-43185D01*
X98166Y-43185D01*
X98222Y-43166D01*
X98447Y-42941D01*
X98447Y-43185D01*
X98053Y-43429D02*
X98053Y-43466D01*
X98072Y-43504D01*
X98091Y-43523D01*
X98128Y-43541D01*
X98203Y-43560D01*
X98297Y-43560D01*
X98372Y-43541D01*
X98410Y-43523D01*
X98428Y-43504D01*
X98447Y-43466D01*
X98447Y-43429D01*
X98428Y-43391D01*
X98410Y-43373D01*
X98372Y-43354D01*
X98297Y-43335D01*
X98203Y-43335D01*
X98128Y-43354D01*
X98091Y-43373D01*
X98072Y-43391D01*
X98053Y-43429D01*
X98053Y-43916D02*
X98053Y-43729D01*
X98241Y-43710D01*
X98222Y-43729D01*
X98203Y-43766D01*
X98203Y-43860D01*
X98222Y-43897D01*
X98241Y-43916D01*
X98278Y-43935D01*
X98372Y-43935D01*
X98410Y-43916D01*
X98428Y-43897D01*
X98447Y-43860D01*
X98447Y-43766D01*
X98428Y-43729D01*
X98410Y-43710D01*
X81753Y-42566D02*
X82072Y-42566D01*
X82110Y-42585D01*
X82128Y-42604D01*
X82147Y-42641D01*
X82147Y-42716D01*
X82128Y-42754D01*
X82110Y-42773D01*
X82072Y-42791D01*
X81753Y-42791D01*
X81791Y-42960D02*
X81772Y-42979D01*
X81753Y-43016D01*
X81753Y-43110D01*
X81772Y-43148D01*
X81791Y-43166D01*
X81828Y-43185D01*
X81866Y-43185D01*
X81922Y-43166D01*
X82147Y-42941D01*
X82147Y-43185D01*
X81753Y-43429D02*
X81753Y-43466D01*
X81772Y-43504D01*
X81791Y-43523D01*
X81828Y-43541D01*
X81903Y-43560D01*
X81997Y-43560D01*
X82072Y-43541D01*
X82110Y-43523D01*
X82128Y-43504D01*
X82147Y-43466D01*
X82147Y-43429D01*
X82128Y-43391D01*
X82110Y-43373D01*
X82072Y-43354D01*
X81997Y-43335D01*
X81903Y-43335D01*
X81828Y-43354D01*
X81791Y-43373D01*
X81772Y-43391D01*
X81753Y-43429D01*
X81753Y-43691D02*
X81753Y-43935D01*
X81903Y-43804D01*
X81903Y-43860D01*
X81922Y-43897D01*
X81941Y-43916D01*
X81978Y-43935D01*
X82072Y-43935D01*
X82110Y-43916D01*
X82128Y-43897D01*
X82147Y-43860D01*
X82147Y-43747D01*
X82128Y-43710D01*
X82110Y-43691D01*
X73923Y-42566D02*
X74242Y-42566D01*
X74280Y-42585D01*
X74298Y-42604D01*
X74317Y-42641D01*
X74317Y-42716D01*
X74298Y-42754D01*
X74280Y-42773D01*
X74242Y-42791D01*
X73923Y-42791D01*
X73961Y-42960D02*
X73942Y-42979D01*
X73923Y-43016D01*
X73923Y-43110D01*
X73942Y-43148D01*
X73961Y-43166D01*
X73998Y-43185D01*
X74036Y-43185D01*
X74092Y-43166D01*
X74317Y-42941D01*
X74317Y-43185D01*
X73923Y-43429D02*
X73923Y-43466D01*
X73942Y-43504D01*
X73961Y-43523D01*
X73998Y-43541D01*
X74073Y-43560D01*
X74167Y-43560D01*
X74242Y-43541D01*
X74280Y-43523D01*
X74298Y-43504D01*
X74317Y-43466D01*
X74317Y-43429D01*
X74298Y-43391D01*
X74280Y-43373D01*
X74242Y-43354D01*
X74167Y-43335D01*
X74073Y-43335D01*
X73998Y-43354D01*
X73961Y-43373D01*
X73942Y-43391D01*
X73923Y-43429D01*
X73961Y-43710D02*
X73942Y-43729D01*
X73923Y-43766D01*
X73923Y-43860D01*
X73942Y-43897D01*
X73961Y-43916D01*
X73998Y-43935D01*
X74036Y-43935D01*
X74092Y-43916D01*
X74317Y-43691D01*
X74317Y-43935D01*
G54D14*
X73344Y-36060D02*
X73372Y-36045D01*
X73401Y-36017D01*
X73444Y-35974D01*
X73472Y-35960D01*
X73501Y-35960D01*
X73487Y-36031D02*
X73515Y-36017D01*
X73544Y-35988D01*
X73558Y-35931D01*
X73558Y-35831D01*
X73544Y-35774D01*
X73515Y-35745D01*
X73487Y-35731D01*
X73430Y-35731D01*
X73401Y-35745D01*
X73372Y-35774D01*
X73358Y-35831D01*
X73358Y-35931D01*
X73372Y-35988D01*
X73401Y-36017D01*
X73430Y-36031D01*
X73487Y-36031D01*
X73244Y-35760D02*
X73229Y-35745D01*
X73201Y-35731D01*
X73129Y-35731D01*
X73101Y-35745D01*
X73087Y-35760D01*
X73072Y-35788D01*
X73072Y-35817D01*
X73087Y-35860D01*
X73258Y-36031D01*
X73072Y-36031D01*
X72887Y-35731D02*
X72858Y-35731D01*
X72830Y-35745D01*
X72815Y-35760D01*
X72801Y-35788D01*
X72787Y-35845D01*
X72787Y-35917D01*
X72801Y-35974D01*
X72815Y-36002D01*
X72830Y-36017D01*
X72858Y-36031D01*
X72887Y-36031D01*
X72915Y-36017D01*
X72930Y-36002D01*
X72944Y-35974D01*
X72958Y-35917D01*
X72958Y-35845D01*
X72944Y-35788D01*
X72930Y-35760D01*
X72915Y-35745D01*
X72887Y-35731D01*
X72644Y-36031D02*
X72587Y-36031D01*
X72558Y-36017D01*
X72544Y-36002D01*
X72515Y-35960D01*
X72501Y-35902D01*
X72501Y-35788D01*
X72515Y-35760D01*
X72530Y-35745D01*
X72558Y-35731D01*
X72615Y-35731D01*
X72644Y-35745D01*
X72658Y-35760D01*
X72672Y-35788D01*
X72672Y-35860D01*
X72658Y-35888D01*
X72644Y-35902D01*
X72615Y-35917D01*
X72558Y-35917D01*
X72530Y-35902D01*
X72515Y-35888D01*
X72501Y-35860D01*
X80334Y-38920D02*
X80362Y-38905D01*
X80391Y-38877D01*
X80434Y-38834D01*
X80462Y-38820D01*
X80491Y-38820D01*
X80477Y-38891D02*
X80505Y-38877D01*
X80534Y-38848D01*
X80548Y-38791D01*
X80548Y-38691D01*
X80534Y-38634D01*
X80505Y-38605D01*
X80477Y-38591D01*
X80420Y-38591D01*
X80391Y-38605D01*
X80362Y-38634D01*
X80348Y-38691D01*
X80348Y-38791D01*
X80362Y-38848D01*
X80391Y-38877D01*
X80420Y-38891D01*
X80477Y-38891D01*
X80234Y-38620D02*
X80219Y-38605D01*
X80191Y-38591D01*
X80119Y-38591D01*
X80091Y-38605D01*
X80077Y-38620D01*
X80062Y-38648D01*
X80062Y-38677D01*
X80077Y-38720D01*
X80248Y-38891D01*
X80062Y-38891D01*
X79777Y-38891D02*
X79948Y-38891D01*
X79862Y-38891D02*
X79862Y-38591D01*
X79891Y-38634D01*
X79920Y-38662D01*
X79948Y-38677D01*
X79520Y-38591D02*
X79577Y-38591D01*
X79605Y-38605D01*
X79620Y-38620D01*
X79648Y-38662D01*
X79662Y-38720D01*
X79662Y-38834D01*
X79648Y-38862D01*
X79634Y-38877D01*
X79605Y-38891D01*
X79548Y-38891D01*
X79520Y-38877D01*
X79505Y-38862D01*
X79491Y-38834D01*
X79491Y-38762D01*
X79505Y-38734D01*
X79520Y-38720D01*
X79548Y-38705D01*
X79605Y-38705D01*
X79634Y-38720D01*
X79648Y-38734D01*
X79662Y-38762D01*
X79354Y-36060D02*
X79382Y-36045D01*
X79411Y-36017D01*
X79454Y-35974D01*
X79482Y-35960D01*
X79511Y-35960D01*
X79497Y-36031D02*
X79525Y-36017D01*
X79554Y-35988D01*
X79568Y-35931D01*
X79568Y-35831D01*
X79554Y-35774D01*
X79525Y-35745D01*
X79497Y-35731D01*
X79440Y-35731D01*
X79411Y-35745D01*
X79382Y-35774D01*
X79368Y-35831D01*
X79368Y-35931D01*
X79382Y-35988D01*
X79411Y-36017D01*
X79440Y-36031D01*
X79497Y-36031D01*
X79254Y-35760D02*
X79239Y-35745D01*
X79211Y-35731D01*
X79139Y-35731D01*
X79111Y-35745D01*
X79097Y-35760D01*
X79082Y-35788D01*
X79082Y-35817D01*
X79097Y-35860D01*
X79268Y-36031D01*
X79082Y-36031D01*
X78797Y-36031D02*
X78968Y-36031D01*
X78882Y-36031D02*
X78882Y-35731D01*
X78911Y-35774D01*
X78940Y-35802D01*
X78968Y-35817D01*
X78525Y-35731D02*
X78668Y-35731D01*
X78682Y-35874D01*
X78668Y-35860D01*
X78640Y-35845D01*
X78568Y-35845D01*
X78540Y-35860D01*
X78525Y-35874D01*
X78511Y-35902D01*
X78511Y-35974D01*
X78525Y-36002D01*
X78540Y-36017D01*
X78568Y-36031D01*
X78640Y-36031D01*
X78668Y-36017D01*
X78682Y-36002D01*
X78364Y-38960D02*
X78392Y-38945D01*
X78421Y-38917D01*
X78464Y-38874D01*
X78492Y-38860D01*
X78521Y-38860D01*
X78507Y-38931D02*
X78535Y-38917D01*
X78564Y-38888D01*
X78578Y-38831D01*
X78578Y-38731D01*
X78564Y-38674D01*
X78535Y-38645D01*
X78507Y-38631D01*
X78450Y-38631D01*
X78421Y-38645D01*
X78392Y-38674D01*
X78378Y-38731D01*
X78378Y-38831D01*
X78392Y-38888D01*
X78421Y-38917D01*
X78450Y-38931D01*
X78507Y-38931D01*
X78264Y-38660D02*
X78249Y-38645D01*
X78221Y-38631D01*
X78149Y-38631D01*
X78121Y-38645D01*
X78107Y-38660D01*
X78092Y-38688D01*
X78092Y-38717D01*
X78107Y-38760D01*
X78278Y-38931D01*
X78092Y-38931D01*
X77807Y-38931D02*
X77978Y-38931D01*
X77892Y-38931D02*
X77892Y-38631D01*
X77921Y-38674D01*
X77950Y-38702D01*
X77978Y-38717D01*
X77550Y-38731D02*
X77550Y-38931D01*
X77621Y-38617D02*
X77692Y-38831D01*
X77507Y-38831D01*
X77384Y-36090D02*
X77412Y-36075D01*
X77441Y-36047D01*
X77484Y-36004D01*
X77512Y-35990D01*
X77541Y-35990D01*
X77527Y-36061D02*
X77555Y-36047D01*
X77584Y-36018D01*
X77598Y-35961D01*
X77598Y-35861D01*
X77584Y-35804D01*
X77555Y-35775D01*
X77527Y-35761D01*
X77470Y-35761D01*
X77441Y-35775D01*
X77412Y-35804D01*
X77398Y-35861D01*
X77398Y-35961D01*
X77412Y-36018D01*
X77441Y-36047D01*
X77470Y-36061D01*
X77527Y-36061D01*
X77284Y-35790D02*
X77269Y-35775D01*
X77241Y-35761D01*
X77169Y-35761D01*
X77141Y-35775D01*
X77127Y-35790D01*
X77112Y-35818D01*
X77112Y-35847D01*
X77127Y-35890D01*
X77298Y-36061D01*
X77112Y-36061D01*
X76827Y-36061D02*
X76998Y-36061D01*
X76912Y-36061D02*
X76912Y-35761D01*
X76941Y-35804D01*
X76970Y-35832D01*
X76998Y-35847D01*
X76727Y-35761D02*
X76541Y-35761D01*
X76641Y-35875D01*
X76598Y-35875D01*
X76570Y-35890D01*
X76555Y-35904D01*
X76541Y-35932D01*
X76541Y-36004D01*
X76555Y-36032D01*
X76570Y-36047D01*
X76598Y-36061D01*
X76684Y-36061D01*
X76712Y-36047D01*
X76727Y-36032D01*
X76354Y-38950D02*
X76382Y-38935D01*
X76411Y-38907D01*
X76454Y-38864D01*
X76482Y-38850D01*
X76511Y-38850D01*
X76497Y-38921D02*
X76525Y-38907D01*
X76554Y-38878D01*
X76568Y-38821D01*
X76568Y-38721D01*
X76554Y-38664D01*
X76525Y-38635D01*
X76497Y-38621D01*
X76440Y-38621D01*
X76411Y-38635D01*
X76382Y-38664D01*
X76368Y-38721D01*
X76368Y-38821D01*
X76382Y-38878D01*
X76411Y-38907D01*
X76440Y-38921D01*
X76497Y-38921D01*
X76254Y-38650D02*
X76239Y-38635D01*
X76211Y-38621D01*
X76139Y-38621D01*
X76111Y-38635D01*
X76097Y-38650D01*
X76082Y-38678D01*
X76082Y-38707D01*
X76097Y-38750D01*
X76268Y-38921D01*
X76082Y-38921D01*
X75797Y-38921D02*
X75968Y-38921D01*
X75882Y-38921D02*
X75882Y-38621D01*
X75911Y-38664D01*
X75940Y-38692D01*
X75968Y-38707D01*
X75682Y-38650D02*
X75668Y-38635D01*
X75640Y-38621D01*
X75568Y-38621D01*
X75540Y-38635D01*
X75525Y-38650D01*
X75511Y-38678D01*
X75511Y-38707D01*
X75525Y-38750D01*
X75697Y-38921D01*
X75511Y-38921D01*
X75364Y-36070D02*
X75392Y-36055D01*
X75421Y-36027D01*
X75464Y-35984D01*
X75492Y-35970D01*
X75521Y-35970D01*
X75507Y-36041D02*
X75535Y-36027D01*
X75564Y-35998D01*
X75578Y-35941D01*
X75578Y-35841D01*
X75564Y-35784D01*
X75535Y-35755D01*
X75507Y-35741D01*
X75450Y-35741D01*
X75421Y-35755D01*
X75392Y-35784D01*
X75378Y-35841D01*
X75378Y-35941D01*
X75392Y-35998D01*
X75421Y-36027D01*
X75450Y-36041D01*
X75507Y-36041D01*
X75264Y-35770D02*
X75249Y-35755D01*
X75221Y-35741D01*
X75149Y-35741D01*
X75121Y-35755D01*
X75107Y-35770D01*
X75092Y-35798D01*
X75092Y-35827D01*
X75107Y-35870D01*
X75278Y-36041D01*
X75092Y-36041D01*
X74807Y-36041D02*
X74978Y-36041D01*
X74892Y-36041D02*
X74892Y-35741D01*
X74921Y-35784D01*
X74950Y-35812D01*
X74978Y-35827D01*
X74521Y-36041D02*
X74692Y-36041D01*
X74607Y-36041D02*
X74607Y-35741D01*
X74635Y-35784D01*
X74664Y-35812D01*
X74692Y-35827D01*
X74354Y-38920D02*
X74382Y-38905D01*
X74411Y-38877D01*
X74454Y-38834D01*
X74482Y-38820D01*
X74511Y-38820D01*
X74497Y-38891D02*
X74525Y-38877D01*
X74554Y-38848D01*
X74568Y-38791D01*
X74568Y-38691D01*
X74554Y-38634D01*
X74525Y-38605D01*
X74497Y-38591D01*
X74440Y-38591D01*
X74411Y-38605D01*
X74382Y-38634D01*
X74368Y-38691D01*
X74368Y-38791D01*
X74382Y-38848D01*
X74411Y-38877D01*
X74440Y-38891D01*
X74497Y-38891D01*
X74254Y-38620D02*
X74239Y-38605D01*
X74211Y-38591D01*
X74139Y-38591D01*
X74111Y-38605D01*
X74097Y-38620D01*
X74082Y-38648D01*
X74082Y-38677D01*
X74097Y-38720D01*
X74268Y-38891D01*
X74082Y-38891D01*
X73797Y-38891D02*
X73968Y-38891D01*
X73882Y-38891D02*
X73882Y-38591D01*
X73911Y-38634D01*
X73940Y-38662D01*
X73968Y-38677D01*
X73611Y-38591D02*
X73582Y-38591D01*
X73554Y-38605D01*
X73540Y-38620D01*
X73525Y-38648D01*
X73511Y-38705D01*
X73511Y-38777D01*
X73525Y-38834D01*
X73540Y-38862D01*
X73554Y-38877D01*
X73582Y-38891D01*
X73611Y-38891D01*
X73640Y-38877D01*
X73654Y-38862D01*
X73668Y-38834D01*
X73682Y-38777D01*
X73682Y-38705D01*
X73668Y-38648D01*
X73654Y-38620D01*
X73640Y-38605D01*
X73611Y-38591D01*
X81364Y-36070D02*
X81392Y-36055D01*
X81421Y-36027D01*
X81464Y-35984D01*
X81492Y-35970D01*
X81521Y-35970D01*
X81507Y-36041D02*
X81535Y-36027D01*
X81564Y-35998D01*
X81578Y-35941D01*
X81578Y-35841D01*
X81564Y-35784D01*
X81535Y-35755D01*
X81507Y-35741D01*
X81450Y-35741D01*
X81421Y-35755D01*
X81392Y-35784D01*
X81378Y-35841D01*
X81378Y-35941D01*
X81392Y-35998D01*
X81421Y-36027D01*
X81450Y-36041D01*
X81507Y-36041D01*
X81264Y-35770D02*
X81249Y-35755D01*
X81221Y-35741D01*
X81149Y-35741D01*
X81121Y-35755D01*
X81107Y-35770D01*
X81092Y-35798D01*
X81092Y-35827D01*
X81107Y-35870D01*
X81278Y-36041D01*
X81092Y-36041D01*
X80807Y-36041D02*
X80978Y-36041D01*
X80892Y-36041D02*
X80892Y-35741D01*
X80921Y-35784D01*
X80950Y-35812D01*
X80978Y-35827D01*
X80707Y-35741D02*
X80507Y-35741D01*
X80635Y-36041D01*
X88354Y-38930D02*
X88382Y-38915D01*
X88411Y-38887D01*
X88454Y-38844D01*
X88482Y-38830D01*
X88511Y-38830D01*
X88497Y-38901D02*
X88525Y-38887D01*
X88554Y-38858D01*
X88568Y-38801D01*
X88568Y-38701D01*
X88554Y-38644D01*
X88525Y-38615D01*
X88497Y-38601D01*
X88440Y-38601D01*
X88411Y-38615D01*
X88382Y-38644D01*
X88368Y-38701D01*
X88368Y-38801D01*
X88382Y-38858D01*
X88411Y-38887D01*
X88440Y-38901D01*
X88497Y-38901D01*
X88254Y-38630D02*
X88239Y-38615D01*
X88211Y-38601D01*
X88139Y-38601D01*
X88111Y-38615D01*
X88097Y-38630D01*
X88082Y-38658D01*
X88082Y-38687D01*
X88097Y-38730D01*
X88268Y-38901D01*
X88082Y-38901D01*
X87968Y-38630D02*
X87954Y-38615D01*
X87925Y-38601D01*
X87854Y-38601D01*
X87825Y-38615D01*
X87811Y-38630D01*
X87797Y-38658D01*
X87797Y-38687D01*
X87811Y-38730D01*
X87982Y-38901D01*
X87797Y-38901D01*
X87540Y-38701D02*
X87540Y-38901D01*
X87611Y-38587D02*
X87682Y-38801D01*
X87497Y-38801D01*
X87354Y-36070D02*
X87382Y-36055D01*
X87411Y-36027D01*
X87454Y-35984D01*
X87482Y-35970D01*
X87511Y-35970D01*
X87497Y-36041D02*
X87525Y-36027D01*
X87554Y-35998D01*
X87568Y-35941D01*
X87568Y-35841D01*
X87554Y-35784D01*
X87525Y-35755D01*
X87497Y-35741D01*
X87440Y-35741D01*
X87411Y-35755D01*
X87382Y-35784D01*
X87368Y-35841D01*
X87368Y-35941D01*
X87382Y-35998D01*
X87411Y-36027D01*
X87440Y-36041D01*
X87497Y-36041D01*
X87254Y-35770D02*
X87239Y-35755D01*
X87211Y-35741D01*
X87139Y-35741D01*
X87111Y-35755D01*
X87097Y-35770D01*
X87082Y-35798D01*
X87082Y-35827D01*
X87097Y-35870D01*
X87268Y-36041D01*
X87082Y-36041D01*
X86968Y-35770D02*
X86954Y-35755D01*
X86925Y-35741D01*
X86854Y-35741D01*
X86825Y-35755D01*
X86811Y-35770D01*
X86797Y-35798D01*
X86797Y-35827D01*
X86811Y-35870D01*
X86982Y-36041D01*
X86797Y-36041D01*
X86697Y-35741D02*
X86511Y-35741D01*
X86611Y-35855D01*
X86568Y-35855D01*
X86540Y-35870D01*
X86525Y-35884D01*
X86511Y-35912D01*
X86511Y-35984D01*
X86525Y-36012D01*
X86540Y-36027D01*
X86568Y-36041D01*
X86654Y-36041D01*
X86682Y-36027D01*
X86697Y-36012D01*
X86364Y-38910D02*
X86392Y-38895D01*
X86421Y-38867D01*
X86464Y-38824D01*
X86492Y-38810D01*
X86521Y-38810D01*
X86507Y-38881D02*
X86535Y-38867D01*
X86564Y-38838D01*
X86578Y-38781D01*
X86578Y-38681D01*
X86564Y-38624D01*
X86535Y-38595D01*
X86507Y-38581D01*
X86450Y-38581D01*
X86421Y-38595D01*
X86392Y-38624D01*
X86378Y-38681D01*
X86378Y-38781D01*
X86392Y-38838D01*
X86421Y-38867D01*
X86450Y-38881D01*
X86507Y-38881D01*
X86264Y-38610D02*
X86249Y-38595D01*
X86221Y-38581D01*
X86149Y-38581D01*
X86121Y-38595D01*
X86107Y-38610D01*
X86092Y-38638D01*
X86092Y-38667D01*
X86107Y-38710D01*
X86278Y-38881D01*
X86092Y-38881D01*
X85978Y-38610D02*
X85964Y-38595D01*
X85935Y-38581D01*
X85864Y-38581D01*
X85835Y-38595D01*
X85821Y-38610D01*
X85807Y-38638D01*
X85807Y-38667D01*
X85821Y-38710D01*
X85992Y-38881D01*
X85807Y-38881D01*
X85692Y-38610D02*
X85678Y-38595D01*
X85650Y-38581D01*
X85578Y-38581D01*
X85550Y-38595D01*
X85535Y-38610D01*
X85521Y-38638D01*
X85521Y-38667D01*
X85535Y-38710D01*
X85707Y-38881D01*
X85521Y-38881D01*
X85384Y-36080D02*
X85412Y-36065D01*
X85441Y-36037D01*
X85484Y-35994D01*
X85512Y-35980D01*
X85541Y-35980D01*
X85527Y-36051D02*
X85555Y-36037D01*
X85584Y-36008D01*
X85598Y-35951D01*
X85598Y-35851D01*
X85584Y-35794D01*
X85555Y-35765D01*
X85527Y-35751D01*
X85470Y-35751D01*
X85441Y-35765D01*
X85412Y-35794D01*
X85398Y-35851D01*
X85398Y-35951D01*
X85412Y-36008D01*
X85441Y-36037D01*
X85470Y-36051D01*
X85527Y-36051D01*
X85284Y-35780D02*
X85269Y-35765D01*
X85241Y-35751D01*
X85169Y-35751D01*
X85141Y-35765D01*
X85127Y-35780D01*
X85112Y-35808D01*
X85112Y-35837D01*
X85127Y-35880D01*
X85298Y-36051D01*
X85112Y-36051D01*
X84998Y-35780D02*
X84984Y-35765D01*
X84955Y-35751D01*
X84884Y-35751D01*
X84855Y-35765D01*
X84841Y-35780D01*
X84827Y-35808D01*
X84827Y-35837D01*
X84841Y-35880D01*
X85012Y-36051D01*
X84827Y-36051D01*
X84541Y-36051D02*
X84712Y-36051D01*
X84627Y-36051D02*
X84627Y-35751D01*
X84655Y-35794D01*
X84684Y-35822D01*
X84712Y-35837D01*
X84364Y-38920D02*
X84392Y-38905D01*
X84421Y-38877D01*
X84464Y-38834D01*
X84492Y-38820D01*
X84521Y-38820D01*
X84507Y-38891D02*
X84535Y-38877D01*
X84564Y-38848D01*
X84578Y-38791D01*
X84578Y-38691D01*
X84564Y-38634D01*
X84535Y-38605D01*
X84507Y-38591D01*
X84450Y-38591D01*
X84421Y-38605D01*
X84392Y-38634D01*
X84378Y-38691D01*
X84378Y-38791D01*
X84392Y-38848D01*
X84421Y-38877D01*
X84450Y-38891D01*
X84507Y-38891D01*
X84264Y-38620D02*
X84249Y-38605D01*
X84221Y-38591D01*
X84149Y-38591D01*
X84121Y-38605D01*
X84107Y-38620D01*
X84092Y-38648D01*
X84092Y-38677D01*
X84107Y-38720D01*
X84278Y-38891D01*
X84092Y-38891D01*
X83978Y-38620D02*
X83964Y-38605D01*
X83935Y-38591D01*
X83864Y-38591D01*
X83835Y-38605D01*
X83821Y-38620D01*
X83807Y-38648D01*
X83807Y-38677D01*
X83821Y-38720D01*
X83992Y-38891D01*
X83807Y-38891D01*
X83621Y-38591D02*
X83592Y-38591D01*
X83564Y-38605D01*
X83550Y-38620D01*
X83535Y-38648D01*
X83521Y-38705D01*
X83521Y-38777D01*
X83535Y-38834D01*
X83550Y-38862D01*
X83564Y-38877D01*
X83592Y-38891D01*
X83621Y-38891D01*
X83650Y-38877D01*
X83664Y-38862D01*
X83678Y-38834D01*
X83692Y-38777D01*
X83692Y-38705D01*
X83678Y-38648D01*
X83664Y-38620D01*
X83650Y-38605D01*
X83621Y-38591D01*
X83354Y-36080D02*
X83382Y-36065D01*
X83411Y-36037D01*
X83454Y-35994D01*
X83482Y-35980D01*
X83511Y-35980D01*
X83497Y-36051D02*
X83525Y-36037D01*
X83554Y-36008D01*
X83568Y-35951D01*
X83568Y-35851D01*
X83554Y-35794D01*
X83525Y-35765D01*
X83497Y-35751D01*
X83440Y-35751D01*
X83411Y-35765D01*
X83382Y-35794D01*
X83368Y-35851D01*
X83368Y-35951D01*
X83382Y-36008D01*
X83411Y-36037D01*
X83440Y-36051D01*
X83497Y-36051D01*
X83254Y-35780D02*
X83239Y-35765D01*
X83211Y-35751D01*
X83139Y-35751D01*
X83111Y-35765D01*
X83097Y-35780D01*
X83082Y-35808D01*
X83082Y-35837D01*
X83097Y-35880D01*
X83268Y-36051D01*
X83082Y-36051D01*
X82797Y-36051D02*
X82968Y-36051D01*
X82882Y-36051D02*
X82882Y-35751D01*
X82911Y-35794D01*
X82940Y-35822D01*
X82968Y-35837D01*
X82654Y-36051D02*
X82597Y-36051D01*
X82568Y-36037D01*
X82554Y-36022D01*
X82525Y-35980D01*
X82511Y-35922D01*
X82511Y-35808D01*
X82525Y-35780D01*
X82540Y-35765D01*
X82568Y-35751D01*
X82625Y-35751D01*
X82654Y-35765D01*
X82668Y-35780D01*
X82682Y-35808D01*
X82682Y-35880D01*
X82668Y-35908D01*
X82654Y-35922D01*
X82625Y-35937D01*
X82568Y-35937D01*
X82540Y-35922D01*
X82525Y-35908D01*
X82511Y-35880D01*
X82334Y-38910D02*
X82362Y-38895D01*
X82391Y-38867D01*
X82434Y-38824D01*
X82462Y-38810D01*
X82491Y-38810D01*
X82477Y-38881D02*
X82505Y-38867D01*
X82534Y-38838D01*
X82548Y-38781D01*
X82548Y-38681D01*
X82534Y-38624D01*
X82505Y-38595D01*
X82477Y-38581D01*
X82420Y-38581D01*
X82391Y-38595D01*
X82362Y-38624D01*
X82348Y-38681D01*
X82348Y-38781D01*
X82362Y-38838D01*
X82391Y-38867D01*
X82420Y-38881D01*
X82477Y-38881D01*
X82234Y-38610D02*
X82219Y-38595D01*
X82191Y-38581D01*
X82119Y-38581D01*
X82091Y-38595D01*
X82077Y-38610D01*
X82062Y-38638D01*
X82062Y-38667D01*
X82077Y-38710D01*
X82248Y-38881D01*
X82062Y-38881D01*
X81777Y-38881D02*
X81948Y-38881D01*
X81862Y-38881D02*
X81862Y-38581D01*
X81891Y-38624D01*
X81920Y-38652D01*
X81948Y-38667D01*
X81605Y-38710D02*
X81634Y-38695D01*
X81648Y-38681D01*
X81662Y-38652D01*
X81662Y-38638D01*
X81648Y-38610D01*
X81634Y-38595D01*
X81605Y-38581D01*
X81548Y-38581D01*
X81520Y-38595D01*
X81505Y-38610D01*
X81491Y-38638D01*
X81491Y-38652D01*
X81505Y-38681D01*
X81520Y-38695D01*
X81548Y-38710D01*
X81605Y-38710D01*
X81634Y-38724D01*
X81648Y-38738D01*
X81662Y-38767D01*
X81662Y-38824D01*
X81648Y-38852D01*
X81634Y-38867D01*
X81605Y-38881D01*
X81548Y-38881D01*
X81520Y-38867D01*
X81505Y-38852D01*
X81491Y-38824D01*
X81491Y-38767D01*
X81505Y-38738D01*
X81520Y-38724D01*
X81548Y-38710D01*
X89334Y-36070D02*
X89362Y-36055D01*
X89391Y-36027D01*
X89434Y-35984D01*
X89462Y-35970D01*
X89491Y-35970D01*
X89477Y-36041D02*
X89505Y-36027D01*
X89534Y-35998D01*
X89548Y-35941D01*
X89548Y-35841D01*
X89534Y-35784D01*
X89505Y-35755D01*
X89477Y-35741D01*
X89420Y-35741D01*
X89391Y-35755D01*
X89362Y-35784D01*
X89348Y-35841D01*
X89348Y-35941D01*
X89362Y-35998D01*
X89391Y-36027D01*
X89420Y-36041D01*
X89477Y-36041D01*
X89234Y-35770D02*
X89219Y-35755D01*
X89191Y-35741D01*
X89119Y-35741D01*
X89091Y-35755D01*
X89077Y-35770D01*
X89062Y-35798D01*
X89062Y-35827D01*
X89077Y-35870D01*
X89248Y-36041D01*
X89062Y-36041D01*
X88948Y-35770D02*
X88934Y-35755D01*
X88905Y-35741D01*
X88834Y-35741D01*
X88805Y-35755D01*
X88791Y-35770D01*
X88777Y-35798D01*
X88777Y-35827D01*
X88791Y-35870D01*
X88962Y-36041D01*
X88777Y-36041D01*
X88505Y-35741D02*
X88648Y-35741D01*
X88662Y-35884D01*
X88648Y-35870D01*
X88620Y-35855D01*
X88548Y-35855D01*
X88520Y-35870D01*
X88505Y-35884D01*
X88491Y-35912D01*
X88491Y-35984D01*
X88505Y-36012D01*
X88520Y-36027D01*
X88548Y-36041D01*
X88620Y-36041D01*
X88648Y-36027D01*
X88662Y-36012D01*
X96344Y-38940D02*
X96372Y-38925D01*
X96401Y-38897D01*
X96444Y-38854D01*
X96472Y-38840D01*
X96501Y-38840D01*
X96487Y-38911D02*
X96515Y-38897D01*
X96544Y-38868D01*
X96558Y-38811D01*
X96558Y-38711D01*
X96544Y-38654D01*
X96515Y-38625D01*
X96487Y-38611D01*
X96430Y-38611D01*
X96401Y-38625D01*
X96372Y-38654D01*
X96358Y-38711D01*
X96358Y-38811D01*
X96372Y-38868D01*
X96401Y-38897D01*
X96430Y-38911D01*
X96487Y-38911D01*
X96244Y-38640D02*
X96229Y-38625D01*
X96201Y-38611D01*
X96129Y-38611D01*
X96101Y-38625D01*
X96087Y-38640D01*
X96072Y-38668D01*
X96072Y-38697D01*
X96087Y-38740D01*
X96258Y-38911D01*
X96072Y-38911D01*
X95972Y-38611D02*
X95787Y-38611D01*
X95887Y-38725D01*
X95844Y-38725D01*
X95815Y-38740D01*
X95801Y-38754D01*
X95787Y-38782D01*
X95787Y-38854D01*
X95801Y-38882D01*
X95815Y-38897D01*
X95844Y-38911D01*
X95930Y-38911D01*
X95958Y-38897D01*
X95972Y-38882D01*
X95672Y-38640D02*
X95658Y-38625D01*
X95630Y-38611D01*
X95558Y-38611D01*
X95530Y-38625D01*
X95515Y-38640D01*
X95501Y-38668D01*
X95501Y-38697D01*
X95515Y-38740D01*
X95687Y-38911D01*
X95501Y-38911D01*
X95344Y-36060D02*
X95372Y-36045D01*
X95401Y-36017D01*
X95444Y-35974D01*
X95472Y-35960D01*
X95501Y-35960D01*
X95487Y-36031D02*
X95515Y-36017D01*
X95544Y-35988D01*
X95558Y-35931D01*
X95558Y-35831D01*
X95544Y-35774D01*
X95515Y-35745D01*
X95487Y-35731D01*
X95430Y-35731D01*
X95401Y-35745D01*
X95372Y-35774D01*
X95358Y-35831D01*
X95358Y-35931D01*
X95372Y-35988D01*
X95401Y-36017D01*
X95430Y-36031D01*
X95487Y-36031D01*
X95244Y-35760D02*
X95229Y-35745D01*
X95201Y-35731D01*
X95129Y-35731D01*
X95101Y-35745D01*
X95087Y-35760D01*
X95072Y-35788D01*
X95072Y-35817D01*
X95087Y-35860D01*
X95258Y-36031D01*
X95072Y-36031D01*
X94972Y-35731D02*
X94787Y-35731D01*
X94887Y-35845D01*
X94844Y-35845D01*
X94815Y-35860D01*
X94801Y-35874D01*
X94787Y-35902D01*
X94787Y-35974D01*
X94801Y-36002D01*
X94815Y-36017D01*
X94844Y-36031D01*
X94930Y-36031D01*
X94958Y-36017D01*
X94972Y-36002D01*
X94501Y-36031D02*
X94672Y-36031D01*
X94587Y-36031D02*
X94587Y-35731D01*
X94615Y-35774D01*
X94644Y-35802D01*
X94672Y-35817D01*
X94354Y-38930D02*
X94382Y-38915D01*
X94411Y-38887D01*
X94454Y-38844D01*
X94482Y-38830D01*
X94511Y-38830D01*
X94497Y-38901D02*
X94525Y-38887D01*
X94554Y-38858D01*
X94568Y-38801D01*
X94568Y-38701D01*
X94554Y-38644D01*
X94525Y-38615D01*
X94497Y-38601D01*
X94440Y-38601D01*
X94411Y-38615D01*
X94382Y-38644D01*
X94368Y-38701D01*
X94368Y-38801D01*
X94382Y-38858D01*
X94411Y-38887D01*
X94440Y-38901D01*
X94497Y-38901D01*
X94254Y-38630D02*
X94239Y-38615D01*
X94211Y-38601D01*
X94139Y-38601D01*
X94111Y-38615D01*
X94097Y-38630D01*
X94082Y-38658D01*
X94082Y-38687D01*
X94097Y-38730D01*
X94268Y-38901D01*
X94082Y-38901D01*
X93982Y-38601D02*
X93797Y-38601D01*
X93897Y-38715D01*
X93854Y-38715D01*
X93825Y-38730D01*
X93811Y-38744D01*
X93797Y-38772D01*
X93797Y-38844D01*
X93811Y-38872D01*
X93825Y-38887D01*
X93854Y-38901D01*
X93940Y-38901D01*
X93968Y-38887D01*
X93982Y-38872D01*
X93611Y-38601D02*
X93582Y-38601D01*
X93554Y-38615D01*
X93540Y-38630D01*
X93525Y-38658D01*
X93511Y-38715D01*
X93511Y-38787D01*
X93525Y-38844D01*
X93540Y-38872D01*
X93554Y-38887D01*
X93582Y-38901D01*
X93611Y-38901D01*
X93640Y-38887D01*
X93654Y-38872D01*
X93668Y-38844D01*
X93682Y-38787D01*
X93682Y-38715D01*
X93668Y-38658D01*
X93654Y-38630D01*
X93640Y-38615D01*
X93611Y-38601D01*
X93344Y-36050D02*
X93372Y-36035D01*
X93401Y-36007D01*
X93444Y-35964D01*
X93472Y-35950D01*
X93501Y-35950D01*
X93487Y-36021D02*
X93515Y-36007D01*
X93544Y-35978D01*
X93558Y-35921D01*
X93558Y-35821D01*
X93544Y-35764D01*
X93515Y-35735D01*
X93487Y-35721D01*
X93430Y-35721D01*
X93401Y-35735D01*
X93372Y-35764D01*
X93358Y-35821D01*
X93358Y-35921D01*
X93372Y-35978D01*
X93401Y-36007D01*
X93430Y-36021D01*
X93487Y-36021D01*
X93244Y-35750D02*
X93229Y-35735D01*
X93201Y-35721D01*
X93129Y-35721D01*
X93101Y-35735D01*
X93087Y-35750D01*
X93072Y-35778D01*
X93072Y-35807D01*
X93087Y-35850D01*
X93258Y-36021D01*
X93072Y-36021D01*
X92958Y-35750D02*
X92944Y-35735D01*
X92915Y-35721D01*
X92844Y-35721D01*
X92815Y-35735D01*
X92801Y-35750D01*
X92787Y-35778D01*
X92787Y-35807D01*
X92801Y-35850D01*
X92972Y-36021D01*
X92787Y-36021D01*
X92644Y-36021D02*
X92587Y-36021D01*
X92558Y-36007D01*
X92544Y-35992D01*
X92515Y-35950D01*
X92501Y-35892D01*
X92501Y-35778D01*
X92515Y-35750D01*
X92530Y-35735D01*
X92558Y-35721D01*
X92615Y-35721D01*
X92644Y-35735D01*
X92658Y-35750D01*
X92672Y-35778D01*
X92672Y-35850D01*
X92658Y-35878D01*
X92644Y-35892D01*
X92615Y-35907D01*
X92558Y-35907D01*
X92530Y-35892D01*
X92515Y-35878D01*
X92501Y-35850D01*
X92374Y-38930D02*
X92402Y-38915D01*
X92431Y-38887D01*
X92474Y-38844D01*
X92502Y-38830D01*
X92531Y-38830D01*
X92517Y-38901D02*
X92545Y-38887D01*
X92574Y-38858D01*
X92588Y-38801D01*
X92588Y-38701D01*
X92574Y-38644D01*
X92545Y-38615D01*
X92517Y-38601D01*
X92460Y-38601D01*
X92431Y-38615D01*
X92402Y-38644D01*
X92388Y-38701D01*
X92388Y-38801D01*
X92402Y-38858D01*
X92431Y-38887D01*
X92460Y-38901D01*
X92517Y-38901D01*
X92274Y-38630D02*
X92259Y-38615D01*
X92231Y-38601D01*
X92159Y-38601D01*
X92131Y-38615D01*
X92117Y-38630D01*
X92102Y-38658D01*
X92102Y-38687D01*
X92117Y-38730D01*
X92288Y-38901D01*
X92102Y-38901D01*
X91988Y-38630D02*
X91974Y-38615D01*
X91945Y-38601D01*
X91874Y-38601D01*
X91845Y-38615D01*
X91831Y-38630D01*
X91817Y-38658D01*
X91817Y-38687D01*
X91831Y-38730D01*
X92002Y-38901D01*
X91817Y-38901D01*
X91645Y-38730D02*
X91674Y-38715D01*
X91688Y-38701D01*
X91702Y-38672D01*
X91702Y-38658D01*
X91688Y-38630D01*
X91674Y-38615D01*
X91645Y-38601D01*
X91588Y-38601D01*
X91560Y-38615D01*
X91545Y-38630D01*
X91531Y-38658D01*
X91531Y-38672D01*
X91545Y-38701D01*
X91560Y-38715D01*
X91588Y-38730D01*
X91645Y-38730D01*
X91674Y-38744D01*
X91688Y-38758D01*
X91702Y-38787D01*
X91702Y-38844D01*
X91688Y-38872D01*
X91674Y-38887D01*
X91645Y-38901D01*
X91588Y-38901D01*
X91560Y-38887D01*
X91545Y-38872D01*
X91531Y-38844D01*
X91531Y-38787D01*
X91545Y-38758D01*
X91560Y-38744D01*
X91588Y-38730D01*
X91344Y-36060D02*
X91372Y-36045D01*
X91401Y-36017D01*
X91444Y-35974D01*
X91472Y-35960D01*
X91501Y-35960D01*
X91487Y-36031D02*
X91515Y-36017D01*
X91544Y-35988D01*
X91558Y-35931D01*
X91558Y-35831D01*
X91544Y-35774D01*
X91515Y-35745D01*
X91487Y-35731D01*
X91430Y-35731D01*
X91401Y-35745D01*
X91372Y-35774D01*
X91358Y-35831D01*
X91358Y-35931D01*
X91372Y-35988D01*
X91401Y-36017D01*
X91430Y-36031D01*
X91487Y-36031D01*
X91244Y-35760D02*
X91229Y-35745D01*
X91201Y-35731D01*
X91129Y-35731D01*
X91101Y-35745D01*
X91087Y-35760D01*
X91072Y-35788D01*
X91072Y-35817D01*
X91087Y-35860D01*
X91258Y-36031D01*
X91072Y-36031D01*
X90958Y-35760D02*
X90944Y-35745D01*
X90915Y-35731D01*
X90844Y-35731D01*
X90815Y-35745D01*
X90801Y-35760D01*
X90787Y-35788D01*
X90787Y-35817D01*
X90801Y-35860D01*
X90972Y-36031D01*
X90787Y-36031D01*
X90687Y-35731D02*
X90487Y-35731D01*
X90615Y-36031D01*
X90334Y-38930D02*
X90362Y-38915D01*
X90391Y-38887D01*
X90434Y-38844D01*
X90462Y-38830D01*
X90491Y-38830D01*
X90477Y-38901D02*
X90505Y-38887D01*
X90534Y-38858D01*
X90548Y-38801D01*
X90548Y-38701D01*
X90534Y-38644D01*
X90505Y-38615D01*
X90477Y-38601D01*
X90420Y-38601D01*
X90391Y-38615D01*
X90362Y-38644D01*
X90348Y-38701D01*
X90348Y-38801D01*
X90362Y-38858D01*
X90391Y-38887D01*
X90420Y-38901D01*
X90477Y-38901D01*
X90234Y-38630D02*
X90219Y-38615D01*
X90191Y-38601D01*
X90119Y-38601D01*
X90091Y-38615D01*
X90077Y-38630D01*
X90062Y-38658D01*
X90062Y-38687D01*
X90077Y-38730D01*
X90248Y-38901D01*
X90062Y-38901D01*
X89948Y-38630D02*
X89934Y-38615D01*
X89905Y-38601D01*
X89834Y-38601D01*
X89805Y-38615D01*
X89791Y-38630D01*
X89777Y-38658D01*
X89777Y-38687D01*
X89791Y-38730D01*
X89962Y-38901D01*
X89777Y-38901D01*
X89520Y-38601D02*
X89577Y-38601D01*
X89605Y-38615D01*
X89620Y-38630D01*
X89648Y-38672D01*
X89662Y-38730D01*
X89662Y-38844D01*
X89648Y-38872D01*
X89634Y-38887D01*
X89605Y-38901D01*
X89548Y-38901D01*
X89520Y-38887D01*
X89505Y-38872D01*
X89491Y-38844D01*
X89491Y-38772D01*
X89505Y-38744D01*
X89520Y-38730D01*
X89548Y-38715D01*
X89605Y-38715D01*
X89634Y-38730D01*
X89648Y-38744D01*
X89662Y-38772D01*
X97364Y-36040D02*
X97392Y-36025D01*
X97421Y-35997D01*
X97464Y-35954D01*
X97492Y-35940D01*
X97521Y-35940D01*
X97507Y-36011D02*
X97535Y-35997D01*
X97564Y-35968D01*
X97578Y-35911D01*
X97578Y-35811D01*
X97564Y-35754D01*
X97535Y-35725D01*
X97507Y-35711D01*
X97450Y-35711D01*
X97421Y-35725D01*
X97392Y-35754D01*
X97378Y-35811D01*
X97378Y-35911D01*
X97392Y-35968D01*
X97421Y-35997D01*
X97450Y-36011D01*
X97507Y-36011D01*
X97264Y-35740D02*
X97249Y-35725D01*
X97221Y-35711D01*
X97149Y-35711D01*
X97121Y-35725D01*
X97107Y-35740D01*
X97092Y-35768D01*
X97092Y-35797D01*
X97107Y-35840D01*
X97278Y-36011D01*
X97092Y-36011D01*
X96992Y-35711D02*
X96807Y-35711D01*
X96907Y-35825D01*
X96864Y-35825D01*
X96835Y-35840D01*
X96821Y-35854D01*
X96807Y-35882D01*
X96807Y-35954D01*
X96821Y-35982D01*
X96835Y-35997D01*
X96864Y-36011D01*
X96950Y-36011D01*
X96978Y-35997D01*
X96992Y-35982D01*
X96707Y-35711D02*
X96521Y-35711D01*
X96621Y-35825D01*
X96578Y-35825D01*
X96550Y-35840D01*
X96535Y-35854D01*
X96521Y-35882D01*
X96521Y-35954D01*
X96535Y-35982D01*
X96550Y-35997D01*
X96578Y-36011D01*
X96664Y-36011D01*
X96692Y-35997D01*
X96707Y-35982D01*
X104354Y-38940D02*
X104382Y-38925D01*
X104411Y-38897D01*
X104454Y-38854D01*
X104482Y-38840D01*
X104511Y-38840D01*
X104497Y-38911D02*
X104525Y-38897D01*
X104554Y-38868D01*
X104568Y-38811D01*
X104568Y-38711D01*
X104554Y-38654D01*
X104525Y-38625D01*
X104497Y-38611D01*
X104440Y-38611D01*
X104411Y-38625D01*
X104382Y-38654D01*
X104368Y-38711D01*
X104368Y-38811D01*
X104382Y-38868D01*
X104411Y-38897D01*
X104440Y-38911D01*
X104497Y-38911D01*
X104254Y-38640D02*
X104239Y-38625D01*
X104211Y-38611D01*
X104139Y-38611D01*
X104111Y-38625D01*
X104097Y-38640D01*
X104082Y-38668D01*
X104082Y-38697D01*
X104097Y-38740D01*
X104268Y-38911D01*
X104082Y-38911D01*
X103825Y-38711D02*
X103825Y-38911D01*
X103897Y-38597D02*
X103968Y-38811D01*
X103782Y-38811D01*
X103611Y-38611D02*
X103582Y-38611D01*
X103554Y-38625D01*
X103540Y-38640D01*
X103525Y-38668D01*
X103511Y-38725D01*
X103511Y-38797D01*
X103525Y-38854D01*
X103540Y-38882D01*
X103554Y-38897D01*
X103582Y-38911D01*
X103611Y-38911D01*
X103640Y-38897D01*
X103654Y-38882D01*
X103668Y-38854D01*
X103682Y-38797D01*
X103682Y-38725D01*
X103668Y-38668D01*
X103654Y-38640D01*
X103640Y-38625D01*
X103611Y-38611D01*
X103354Y-36060D02*
X103382Y-36045D01*
X103411Y-36017D01*
X103454Y-35974D01*
X103482Y-35960D01*
X103511Y-35960D01*
X103497Y-36031D02*
X103525Y-36017D01*
X103554Y-35988D01*
X103568Y-35931D01*
X103568Y-35831D01*
X103554Y-35774D01*
X103525Y-35745D01*
X103497Y-35731D01*
X103440Y-35731D01*
X103411Y-35745D01*
X103382Y-35774D01*
X103368Y-35831D01*
X103368Y-35931D01*
X103382Y-35988D01*
X103411Y-36017D01*
X103440Y-36031D01*
X103497Y-36031D01*
X103254Y-35760D02*
X103239Y-35745D01*
X103211Y-35731D01*
X103139Y-35731D01*
X103111Y-35745D01*
X103097Y-35760D01*
X103082Y-35788D01*
X103082Y-35817D01*
X103097Y-35860D01*
X103268Y-36031D01*
X103082Y-36031D01*
X102982Y-35731D02*
X102797Y-35731D01*
X102897Y-35845D01*
X102854Y-35845D01*
X102825Y-35860D01*
X102811Y-35874D01*
X102797Y-35902D01*
X102797Y-35974D01*
X102811Y-36002D01*
X102825Y-36017D01*
X102854Y-36031D01*
X102940Y-36031D01*
X102968Y-36017D01*
X102982Y-36002D01*
X102654Y-36031D02*
X102597Y-36031D01*
X102568Y-36017D01*
X102554Y-36002D01*
X102525Y-35960D01*
X102511Y-35902D01*
X102511Y-35788D01*
X102525Y-35760D01*
X102540Y-35745D01*
X102568Y-35731D01*
X102625Y-35731D01*
X102654Y-35745D01*
X102668Y-35760D01*
X102682Y-35788D01*
X102682Y-35860D01*
X102668Y-35888D01*
X102654Y-35902D01*
X102625Y-35917D01*
X102568Y-35917D01*
X102540Y-35902D01*
X102525Y-35888D01*
X102511Y-35860D01*
X102364Y-38910D02*
X102392Y-38895D01*
X102421Y-38867D01*
X102464Y-38824D01*
X102492Y-38810D01*
X102521Y-38810D01*
X102507Y-38881D02*
X102535Y-38867D01*
X102564Y-38838D01*
X102578Y-38781D01*
X102578Y-38681D01*
X102564Y-38624D01*
X102535Y-38595D01*
X102507Y-38581D01*
X102450Y-38581D01*
X102421Y-38595D01*
X102392Y-38624D01*
X102378Y-38681D01*
X102378Y-38781D01*
X102392Y-38838D01*
X102421Y-38867D01*
X102450Y-38881D01*
X102507Y-38881D01*
X102264Y-38610D02*
X102249Y-38595D01*
X102221Y-38581D01*
X102149Y-38581D01*
X102121Y-38595D01*
X102107Y-38610D01*
X102092Y-38638D01*
X102092Y-38667D01*
X102107Y-38710D01*
X102278Y-38881D01*
X102092Y-38881D01*
X101992Y-38581D02*
X101807Y-38581D01*
X101907Y-38695D01*
X101864Y-38695D01*
X101835Y-38710D01*
X101821Y-38724D01*
X101807Y-38752D01*
X101807Y-38824D01*
X101821Y-38852D01*
X101835Y-38867D01*
X101864Y-38881D01*
X101950Y-38881D01*
X101978Y-38867D01*
X101992Y-38852D01*
X101635Y-38710D02*
X101664Y-38695D01*
X101678Y-38681D01*
X101692Y-38652D01*
X101692Y-38638D01*
X101678Y-38610D01*
X101664Y-38595D01*
X101635Y-38581D01*
X101578Y-38581D01*
X101550Y-38595D01*
X101535Y-38610D01*
X101521Y-38638D01*
X101521Y-38652D01*
X101535Y-38681D01*
X101550Y-38695D01*
X101578Y-38710D01*
X101635Y-38710D01*
X101664Y-38724D01*
X101678Y-38738D01*
X101692Y-38767D01*
X101692Y-38824D01*
X101678Y-38852D01*
X101664Y-38867D01*
X101635Y-38881D01*
X101578Y-38881D01*
X101550Y-38867D01*
X101535Y-38852D01*
X101521Y-38824D01*
X101521Y-38767D01*
X101535Y-38738D01*
X101550Y-38724D01*
X101578Y-38710D01*
X101334Y-36060D02*
X101362Y-36045D01*
X101391Y-36017D01*
X101434Y-35974D01*
X101462Y-35960D01*
X101491Y-35960D01*
X101477Y-36031D02*
X101505Y-36017D01*
X101534Y-35988D01*
X101548Y-35931D01*
X101548Y-35831D01*
X101534Y-35774D01*
X101505Y-35745D01*
X101477Y-35731D01*
X101420Y-35731D01*
X101391Y-35745D01*
X101362Y-35774D01*
X101348Y-35831D01*
X101348Y-35931D01*
X101362Y-35988D01*
X101391Y-36017D01*
X101420Y-36031D01*
X101477Y-36031D01*
X101234Y-35760D02*
X101219Y-35745D01*
X101191Y-35731D01*
X101119Y-35731D01*
X101091Y-35745D01*
X101077Y-35760D01*
X101062Y-35788D01*
X101062Y-35817D01*
X101077Y-35860D01*
X101248Y-36031D01*
X101062Y-36031D01*
X100962Y-35731D02*
X100777Y-35731D01*
X100877Y-35845D01*
X100834Y-35845D01*
X100805Y-35860D01*
X100791Y-35874D01*
X100777Y-35902D01*
X100777Y-35974D01*
X100791Y-36002D01*
X100805Y-36017D01*
X100834Y-36031D01*
X100920Y-36031D01*
X100948Y-36017D01*
X100962Y-36002D01*
X100677Y-35731D02*
X100477Y-35731D01*
X100605Y-36031D01*
X100334Y-38910D02*
X100362Y-38895D01*
X100391Y-38867D01*
X100434Y-38824D01*
X100462Y-38810D01*
X100491Y-38810D01*
X100477Y-38881D02*
X100505Y-38867D01*
X100534Y-38838D01*
X100548Y-38781D01*
X100548Y-38681D01*
X100534Y-38624D01*
X100505Y-38595D01*
X100477Y-38581D01*
X100420Y-38581D01*
X100391Y-38595D01*
X100362Y-38624D01*
X100348Y-38681D01*
X100348Y-38781D01*
X100362Y-38838D01*
X100391Y-38867D01*
X100420Y-38881D01*
X100477Y-38881D01*
X100234Y-38610D02*
X100219Y-38595D01*
X100191Y-38581D01*
X100119Y-38581D01*
X100091Y-38595D01*
X100077Y-38610D01*
X100062Y-38638D01*
X100062Y-38667D01*
X100077Y-38710D01*
X100248Y-38881D01*
X100062Y-38881D01*
X99962Y-38581D02*
X99777Y-38581D01*
X99877Y-38695D01*
X99834Y-38695D01*
X99805Y-38710D01*
X99791Y-38724D01*
X99777Y-38752D01*
X99777Y-38824D01*
X99791Y-38852D01*
X99805Y-38867D01*
X99834Y-38881D01*
X99920Y-38881D01*
X99948Y-38867D01*
X99962Y-38852D01*
X99520Y-38581D02*
X99577Y-38581D01*
X99605Y-38595D01*
X99620Y-38610D01*
X99648Y-38652D01*
X99662Y-38710D01*
X99662Y-38824D01*
X99648Y-38852D01*
X99634Y-38867D01*
X99605Y-38881D01*
X99548Y-38881D01*
X99520Y-38867D01*
X99505Y-38852D01*
X99491Y-38824D01*
X99491Y-38752D01*
X99505Y-38724D01*
X99520Y-38710D01*
X99548Y-38695D01*
X99605Y-38695D01*
X99634Y-38710D01*
X99648Y-38724D01*
X99662Y-38752D01*
X99354Y-36060D02*
X99382Y-36045D01*
X99411Y-36017D01*
X99454Y-35974D01*
X99482Y-35960D01*
X99511Y-35960D01*
X99497Y-36031D02*
X99525Y-36017D01*
X99554Y-35988D01*
X99568Y-35931D01*
X99568Y-35831D01*
X99554Y-35774D01*
X99525Y-35745D01*
X99497Y-35731D01*
X99440Y-35731D01*
X99411Y-35745D01*
X99382Y-35774D01*
X99368Y-35831D01*
X99368Y-35931D01*
X99382Y-35988D01*
X99411Y-36017D01*
X99440Y-36031D01*
X99497Y-36031D01*
X99254Y-35760D02*
X99239Y-35745D01*
X99211Y-35731D01*
X99139Y-35731D01*
X99111Y-35745D01*
X99097Y-35760D01*
X99082Y-35788D01*
X99082Y-35817D01*
X99097Y-35860D01*
X99268Y-36031D01*
X99082Y-36031D01*
X98982Y-35731D02*
X98797Y-35731D01*
X98897Y-35845D01*
X98854Y-35845D01*
X98825Y-35860D01*
X98811Y-35874D01*
X98797Y-35902D01*
X98797Y-35974D01*
X98811Y-36002D01*
X98825Y-36017D01*
X98854Y-36031D01*
X98940Y-36031D01*
X98968Y-36017D01*
X98982Y-36002D01*
X98525Y-35731D02*
X98668Y-35731D01*
X98682Y-35874D01*
X98668Y-35860D01*
X98640Y-35845D01*
X98568Y-35845D01*
X98540Y-35860D01*
X98525Y-35874D01*
X98511Y-35902D01*
X98511Y-35974D01*
X98525Y-36002D01*
X98540Y-36017D01*
X98568Y-36031D01*
X98640Y-36031D01*
X98668Y-36017D01*
X98682Y-36002D01*
X98354Y-38900D02*
X98382Y-38885D01*
X98411Y-38857D01*
X98454Y-38814D01*
X98482Y-38800D01*
X98511Y-38800D01*
X98497Y-38871D02*
X98525Y-38857D01*
X98554Y-38828D01*
X98568Y-38771D01*
X98568Y-38671D01*
X98554Y-38614D01*
X98525Y-38585D01*
X98497Y-38571D01*
X98440Y-38571D01*
X98411Y-38585D01*
X98382Y-38614D01*
X98368Y-38671D01*
X98368Y-38771D01*
X98382Y-38828D01*
X98411Y-38857D01*
X98440Y-38871D01*
X98497Y-38871D01*
X98254Y-38600D02*
X98239Y-38585D01*
X98211Y-38571D01*
X98139Y-38571D01*
X98111Y-38585D01*
X98097Y-38600D01*
X98082Y-38628D01*
X98082Y-38657D01*
X98097Y-38700D01*
X98268Y-38871D01*
X98082Y-38871D01*
X97982Y-38571D02*
X97797Y-38571D01*
X97897Y-38685D01*
X97854Y-38685D01*
X97825Y-38700D01*
X97811Y-38714D01*
X97797Y-38742D01*
X97797Y-38814D01*
X97811Y-38842D01*
X97825Y-38857D01*
X97854Y-38871D01*
X97940Y-38871D01*
X97968Y-38857D01*
X97982Y-38842D01*
X97540Y-38671D02*
X97540Y-38871D01*
X97611Y-38557D02*
X97682Y-38771D01*
X97497Y-38771D01*
X105344Y-36050D02*
X105372Y-36035D01*
X105401Y-36007D01*
X105444Y-35964D01*
X105472Y-35950D01*
X105501Y-35950D01*
X105487Y-36021D02*
X105515Y-36007D01*
X105544Y-35978D01*
X105558Y-35921D01*
X105558Y-35821D01*
X105544Y-35764D01*
X105515Y-35735D01*
X105487Y-35721D01*
X105430Y-35721D01*
X105401Y-35735D01*
X105372Y-35764D01*
X105358Y-35821D01*
X105358Y-35921D01*
X105372Y-35978D01*
X105401Y-36007D01*
X105430Y-36021D01*
X105487Y-36021D01*
X105244Y-35750D02*
X105229Y-35735D01*
X105201Y-35721D01*
X105129Y-35721D01*
X105101Y-35735D01*
X105087Y-35750D01*
X105072Y-35778D01*
X105072Y-35807D01*
X105087Y-35850D01*
X105258Y-36021D01*
X105072Y-36021D01*
X104815Y-35821D02*
X104815Y-36021D01*
X104887Y-35707D02*
X104958Y-35921D01*
X104772Y-35921D01*
X104501Y-36021D02*
X104672Y-36021D01*
X104587Y-36021D02*
X104587Y-35721D01*
X104615Y-35764D01*
X104644Y-35792D01*
X104672Y-35807D01*
X112364Y-38930D02*
X112392Y-38915D01*
X112421Y-38887D01*
X112464Y-38844D01*
X112492Y-38830D01*
X112521Y-38830D01*
X112507Y-38901D02*
X112535Y-38887D01*
X112564Y-38858D01*
X112578Y-38801D01*
X112578Y-38701D01*
X112564Y-38644D01*
X112535Y-38615D01*
X112507Y-38601D01*
X112450Y-38601D01*
X112421Y-38615D01*
X112392Y-38644D01*
X112378Y-38701D01*
X112378Y-38801D01*
X112392Y-38858D01*
X112421Y-38887D01*
X112450Y-38901D01*
X112507Y-38901D01*
X112264Y-38630D02*
X112249Y-38615D01*
X112221Y-38601D01*
X112149Y-38601D01*
X112121Y-38615D01*
X112107Y-38630D01*
X112092Y-38658D01*
X112092Y-38687D01*
X112107Y-38730D01*
X112278Y-38901D01*
X112092Y-38901D01*
X111835Y-38701D02*
X111835Y-38901D01*
X111907Y-38587D02*
X111978Y-38801D01*
X111792Y-38801D01*
X111635Y-38730D02*
X111664Y-38715D01*
X111678Y-38701D01*
X111692Y-38672D01*
X111692Y-38658D01*
X111678Y-38630D01*
X111664Y-38615D01*
X111635Y-38601D01*
X111578Y-38601D01*
X111550Y-38615D01*
X111535Y-38630D01*
X111521Y-38658D01*
X111521Y-38672D01*
X111535Y-38701D01*
X111550Y-38715D01*
X111578Y-38730D01*
X111635Y-38730D01*
X111664Y-38744D01*
X111678Y-38758D01*
X111692Y-38787D01*
X111692Y-38844D01*
X111678Y-38872D01*
X111664Y-38887D01*
X111635Y-38901D01*
X111578Y-38901D01*
X111550Y-38887D01*
X111535Y-38872D01*
X111521Y-38844D01*
X111521Y-38787D01*
X111535Y-38758D01*
X111550Y-38744D01*
X111578Y-38730D01*
X111344Y-36060D02*
X111372Y-36045D01*
X111401Y-36017D01*
X111444Y-35974D01*
X111472Y-35960D01*
X111501Y-35960D01*
X111487Y-36031D02*
X111515Y-36017D01*
X111544Y-35988D01*
X111558Y-35931D01*
X111558Y-35831D01*
X111544Y-35774D01*
X111515Y-35745D01*
X111487Y-35731D01*
X111430Y-35731D01*
X111401Y-35745D01*
X111372Y-35774D01*
X111358Y-35831D01*
X111358Y-35931D01*
X111372Y-35988D01*
X111401Y-36017D01*
X111430Y-36031D01*
X111487Y-36031D01*
X111244Y-35760D02*
X111229Y-35745D01*
X111201Y-35731D01*
X111129Y-35731D01*
X111101Y-35745D01*
X111087Y-35760D01*
X111072Y-35788D01*
X111072Y-35817D01*
X111087Y-35860D01*
X111258Y-36031D01*
X111072Y-36031D01*
X110815Y-35831D02*
X110815Y-36031D01*
X110887Y-35717D02*
X110958Y-35931D01*
X110772Y-35931D01*
X110687Y-35731D02*
X110487Y-35731D01*
X110615Y-36031D01*
X110374Y-38910D02*
X110402Y-38895D01*
X110431Y-38867D01*
X110474Y-38824D01*
X110502Y-38810D01*
X110531Y-38810D01*
X110517Y-38881D02*
X110545Y-38867D01*
X110574Y-38838D01*
X110588Y-38781D01*
X110588Y-38681D01*
X110574Y-38624D01*
X110545Y-38595D01*
X110517Y-38581D01*
X110460Y-38581D01*
X110431Y-38595D01*
X110402Y-38624D01*
X110388Y-38681D01*
X110388Y-38781D01*
X110402Y-38838D01*
X110431Y-38867D01*
X110460Y-38881D01*
X110517Y-38881D01*
X110274Y-38610D02*
X110259Y-38595D01*
X110231Y-38581D01*
X110159Y-38581D01*
X110131Y-38595D01*
X110117Y-38610D01*
X110102Y-38638D01*
X110102Y-38667D01*
X110117Y-38710D01*
X110288Y-38881D01*
X110102Y-38881D01*
X109845Y-38681D02*
X109845Y-38881D01*
X109917Y-38567D02*
X109988Y-38781D01*
X109802Y-38781D01*
X109560Y-38581D02*
X109617Y-38581D01*
X109645Y-38595D01*
X109660Y-38610D01*
X109688Y-38652D01*
X109702Y-38710D01*
X109702Y-38824D01*
X109688Y-38852D01*
X109674Y-38867D01*
X109645Y-38881D01*
X109588Y-38881D01*
X109560Y-38867D01*
X109545Y-38852D01*
X109531Y-38824D01*
X109531Y-38752D01*
X109545Y-38724D01*
X109560Y-38710D01*
X109588Y-38695D01*
X109645Y-38695D01*
X109674Y-38710D01*
X109688Y-38724D01*
X109702Y-38752D01*
X109354Y-36070D02*
X109382Y-36055D01*
X109411Y-36027D01*
X109454Y-35984D01*
X109482Y-35970D01*
X109511Y-35970D01*
X109497Y-36041D02*
X109525Y-36027D01*
X109554Y-35998D01*
X109568Y-35941D01*
X109568Y-35841D01*
X109554Y-35784D01*
X109525Y-35755D01*
X109497Y-35741D01*
X109440Y-35741D01*
X109411Y-35755D01*
X109382Y-35784D01*
X109368Y-35841D01*
X109368Y-35941D01*
X109382Y-35998D01*
X109411Y-36027D01*
X109440Y-36041D01*
X109497Y-36041D01*
X109254Y-35770D02*
X109239Y-35755D01*
X109211Y-35741D01*
X109139Y-35741D01*
X109111Y-35755D01*
X109097Y-35770D01*
X109082Y-35798D01*
X109082Y-35827D01*
X109097Y-35870D01*
X109268Y-36041D01*
X109082Y-36041D01*
X108825Y-35841D02*
X108825Y-36041D01*
X108897Y-35727D02*
X108968Y-35941D01*
X108782Y-35941D01*
X108525Y-35741D02*
X108668Y-35741D01*
X108682Y-35884D01*
X108668Y-35870D01*
X108640Y-35855D01*
X108568Y-35855D01*
X108540Y-35870D01*
X108525Y-35884D01*
X108511Y-35912D01*
X108511Y-35984D01*
X108525Y-36012D01*
X108540Y-36027D01*
X108568Y-36041D01*
X108640Y-36041D01*
X108668Y-36027D01*
X108682Y-36012D01*
X108354Y-38920D02*
X108382Y-38905D01*
X108411Y-38877D01*
X108454Y-38834D01*
X108482Y-38820D01*
X108511Y-38820D01*
X108497Y-38891D02*
X108525Y-38877D01*
X108554Y-38848D01*
X108568Y-38791D01*
X108568Y-38691D01*
X108554Y-38634D01*
X108525Y-38605D01*
X108497Y-38591D01*
X108440Y-38591D01*
X108411Y-38605D01*
X108382Y-38634D01*
X108368Y-38691D01*
X108368Y-38791D01*
X108382Y-38848D01*
X108411Y-38877D01*
X108440Y-38891D01*
X108497Y-38891D01*
X108254Y-38620D02*
X108239Y-38605D01*
X108211Y-38591D01*
X108139Y-38591D01*
X108111Y-38605D01*
X108097Y-38620D01*
X108082Y-38648D01*
X108082Y-38677D01*
X108097Y-38720D01*
X108268Y-38891D01*
X108082Y-38891D01*
X107825Y-38691D02*
X107825Y-38891D01*
X107897Y-38577D02*
X107968Y-38791D01*
X107782Y-38791D01*
X107540Y-38691D02*
X107540Y-38891D01*
X107611Y-38577D02*
X107682Y-38791D01*
X107497Y-38791D01*
X107354Y-36050D02*
X107382Y-36035D01*
X107411Y-36007D01*
X107454Y-35964D01*
X107482Y-35950D01*
X107511Y-35950D01*
X107497Y-36021D02*
X107525Y-36007D01*
X107554Y-35978D01*
X107568Y-35921D01*
X107568Y-35821D01*
X107554Y-35764D01*
X107525Y-35735D01*
X107497Y-35721D01*
X107440Y-35721D01*
X107411Y-35735D01*
X107382Y-35764D01*
X107368Y-35821D01*
X107368Y-35921D01*
X107382Y-35978D01*
X107411Y-36007D01*
X107440Y-36021D01*
X107497Y-36021D01*
X107254Y-35750D02*
X107239Y-35735D01*
X107211Y-35721D01*
X107139Y-35721D01*
X107111Y-35735D01*
X107097Y-35750D01*
X107082Y-35778D01*
X107082Y-35807D01*
X107097Y-35850D01*
X107268Y-36021D01*
X107082Y-36021D01*
X106825Y-35821D02*
X106825Y-36021D01*
X106897Y-35707D02*
X106968Y-35921D01*
X106782Y-35921D01*
X106697Y-35721D02*
X106511Y-35721D01*
X106611Y-35835D01*
X106568Y-35835D01*
X106540Y-35850D01*
X106525Y-35864D01*
X106511Y-35892D01*
X106511Y-35964D01*
X106525Y-35992D01*
X106540Y-36007D01*
X106568Y-36021D01*
X106654Y-36021D01*
X106682Y-36007D01*
X106697Y-35992D01*
X106344Y-38930D02*
X106372Y-38915D01*
X106401Y-38887D01*
X106444Y-38844D01*
X106472Y-38830D01*
X106501Y-38830D01*
X106487Y-38901D02*
X106515Y-38887D01*
X106544Y-38858D01*
X106558Y-38801D01*
X106558Y-38701D01*
X106544Y-38644D01*
X106515Y-38615D01*
X106487Y-38601D01*
X106430Y-38601D01*
X106401Y-38615D01*
X106372Y-38644D01*
X106358Y-38701D01*
X106358Y-38801D01*
X106372Y-38858D01*
X106401Y-38887D01*
X106430Y-38901D01*
X106487Y-38901D01*
X106244Y-38630D02*
X106229Y-38615D01*
X106201Y-38601D01*
X106129Y-38601D01*
X106101Y-38615D01*
X106087Y-38630D01*
X106072Y-38658D01*
X106072Y-38687D01*
X106087Y-38730D01*
X106258Y-38901D01*
X106072Y-38901D01*
X105815Y-38701D02*
X105815Y-38901D01*
X105887Y-38587D02*
X105958Y-38801D01*
X105772Y-38801D01*
X105672Y-38630D02*
X105658Y-38615D01*
X105630Y-38601D01*
X105558Y-38601D01*
X105530Y-38615D01*
X105515Y-38630D01*
X105501Y-38658D01*
X105501Y-38687D01*
X105515Y-38730D01*
X105687Y-38901D01*
X105501Y-38901D01*
X113364Y-36070D02*
X113392Y-36055D01*
X113421Y-36027D01*
X113464Y-35984D01*
X113492Y-35970D01*
X113521Y-35970D01*
X113507Y-36041D02*
X113535Y-36027D01*
X113564Y-35998D01*
X113578Y-35941D01*
X113578Y-35841D01*
X113564Y-35784D01*
X113535Y-35755D01*
X113507Y-35741D01*
X113450Y-35741D01*
X113421Y-35755D01*
X113392Y-35784D01*
X113378Y-35841D01*
X113378Y-35941D01*
X113392Y-35998D01*
X113421Y-36027D01*
X113450Y-36041D01*
X113507Y-36041D01*
X113264Y-35770D02*
X113249Y-35755D01*
X113221Y-35741D01*
X113149Y-35741D01*
X113121Y-35755D01*
X113107Y-35770D01*
X113092Y-35798D01*
X113092Y-35827D01*
X113107Y-35870D01*
X113278Y-36041D01*
X113092Y-36041D01*
X112835Y-35841D02*
X112835Y-36041D01*
X112907Y-35727D02*
X112978Y-35941D01*
X112792Y-35941D01*
X112664Y-36041D02*
X112607Y-36041D01*
X112578Y-36027D01*
X112564Y-36012D01*
X112535Y-35970D01*
X112521Y-35912D01*
X112521Y-35798D01*
X112535Y-35770D01*
X112550Y-35755D01*
X112578Y-35741D01*
X112635Y-35741D01*
X112664Y-35755D01*
X112678Y-35770D01*
X112692Y-35798D01*
X112692Y-35870D01*
X112678Y-35898D01*
X112664Y-35912D01*
X112635Y-35927D01*
X112578Y-35927D01*
X112550Y-35912D01*
X112535Y-35898D01*
X112521Y-35870D01*
X120364Y-38930D02*
X120392Y-38915D01*
X120421Y-38887D01*
X120464Y-38844D01*
X120492Y-38830D01*
X120521Y-38830D01*
X120507Y-38901D02*
X120535Y-38887D01*
X120564Y-38858D01*
X120578Y-38801D01*
X120578Y-38701D01*
X120564Y-38644D01*
X120535Y-38615D01*
X120507Y-38601D01*
X120450Y-38601D01*
X120421Y-38615D01*
X120392Y-38644D01*
X120378Y-38701D01*
X120378Y-38801D01*
X120392Y-38858D01*
X120421Y-38887D01*
X120450Y-38901D01*
X120507Y-38901D01*
X120264Y-38630D02*
X120249Y-38615D01*
X120221Y-38601D01*
X120149Y-38601D01*
X120121Y-38615D01*
X120107Y-38630D01*
X120092Y-38658D01*
X120092Y-38687D01*
X120107Y-38730D01*
X120278Y-38901D01*
X120092Y-38901D01*
X119821Y-38601D02*
X119964Y-38601D01*
X119978Y-38744D01*
X119964Y-38730D01*
X119935Y-38715D01*
X119864Y-38715D01*
X119835Y-38730D01*
X119821Y-38744D01*
X119807Y-38772D01*
X119807Y-38844D01*
X119821Y-38872D01*
X119835Y-38887D01*
X119864Y-38901D01*
X119935Y-38901D01*
X119964Y-38887D01*
X119978Y-38872D01*
X119550Y-38601D02*
X119607Y-38601D01*
X119635Y-38615D01*
X119650Y-38630D01*
X119678Y-38672D01*
X119692Y-38730D01*
X119692Y-38844D01*
X119678Y-38872D01*
X119664Y-38887D01*
X119635Y-38901D01*
X119578Y-38901D01*
X119550Y-38887D01*
X119535Y-38872D01*
X119521Y-38844D01*
X119521Y-38772D01*
X119535Y-38744D01*
X119550Y-38730D01*
X119578Y-38715D01*
X119635Y-38715D01*
X119664Y-38730D01*
X119678Y-38744D01*
X119692Y-38772D01*
X119344Y-36060D02*
X119372Y-36045D01*
X119401Y-36017D01*
X119444Y-35974D01*
X119472Y-35960D01*
X119501Y-35960D01*
X119487Y-36031D02*
X119515Y-36017D01*
X119544Y-35988D01*
X119558Y-35931D01*
X119558Y-35831D01*
X119544Y-35774D01*
X119515Y-35745D01*
X119487Y-35731D01*
X119430Y-35731D01*
X119401Y-35745D01*
X119372Y-35774D01*
X119358Y-35831D01*
X119358Y-35931D01*
X119372Y-35988D01*
X119401Y-36017D01*
X119430Y-36031D01*
X119487Y-36031D01*
X119244Y-35760D02*
X119229Y-35745D01*
X119201Y-35731D01*
X119129Y-35731D01*
X119101Y-35745D01*
X119087Y-35760D01*
X119072Y-35788D01*
X119072Y-35817D01*
X119087Y-35860D01*
X119258Y-36031D01*
X119072Y-36031D01*
X118801Y-35731D02*
X118944Y-35731D01*
X118958Y-35874D01*
X118944Y-35860D01*
X118915Y-35845D01*
X118844Y-35845D01*
X118815Y-35860D01*
X118801Y-35874D01*
X118787Y-35902D01*
X118787Y-35974D01*
X118801Y-36002D01*
X118815Y-36017D01*
X118844Y-36031D01*
X118915Y-36031D01*
X118944Y-36017D01*
X118958Y-36002D01*
X118515Y-35731D02*
X118658Y-35731D01*
X118672Y-35874D01*
X118658Y-35860D01*
X118630Y-35845D01*
X118558Y-35845D01*
X118530Y-35860D01*
X118515Y-35874D01*
X118501Y-35902D01*
X118501Y-35974D01*
X118515Y-36002D01*
X118530Y-36017D01*
X118558Y-36031D01*
X118630Y-36031D01*
X118658Y-36017D01*
X118672Y-36002D01*
X118364Y-38910D02*
X118392Y-38895D01*
X118421Y-38867D01*
X118464Y-38824D01*
X118492Y-38810D01*
X118521Y-38810D01*
X118507Y-38881D02*
X118535Y-38867D01*
X118564Y-38838D01*
X118578Y-38781D01*
X118578Y-38681D01*
X118564Y-38624D01*
X118535Y-38595D01*
X118507Y-38581D01*
X118450Y-38581D01*
X118421Y-38595D01*
X118392Y-38624D01*
X118378Y-38681D01*
X118378Y-38781D01*
X118392Y-38838D01*
X118421Y-38867D01*
X118450Y-38881D01*
X118507Y-38881D01*
X118264Y-38610D02*
X118249Y-38595D01*
X118221Y-38581D01*
X118149Y-38581D01*
X118121Y-38595D01*
X118107Y-38610D01*
X118092Y-38638D01*
X118092Y-38667D01*
X118107Y-38710D01*
X118278Y-38881D01*
X118092Y-38881D01*
X117821Y-38581D02*
X117964Y-38581D01*
X117978Y-38724D01*
X117964Y-38710D01*
X117935Y-38695D01*
X117864Y-38695D01*
X117835Y-38710D01*
X117821Y-38724D01*
X117807Y-38752D01*
X117807Y-38824D01*
X117821Y-38852D01*
X117835Y-38867D01*
X117864Y-38881D01*
X117935Y-38881D01*
X117964Y-38867D01*
X117978Y-38852D01*
X117550Y-38681D02*
X117550Y-38881D01*
X117621Y-38567D02*
X117692Y-38781D01*
X117507Y-38781D01*
X117344Y-36070D02*
X117372Y-36055D01*
X117401Y-36027D01*
X117444Y-35984D01*
X117472Y-35970D01*
X117501Y-35970D01*
X117487Y-36041D02*
X117515Y-36027D01*
X117544Y-35998D01*
X117558Y-35941D01*
X117558Y-35841D01*
X117544Y-35784D01*
X117515Y-35755D01*
X117487Y-35741D01*
X117430Y-35741D01*
X117401Y-35755D01*
X117372Y-35784D01*
X117358Y-35841D01*
X117358Y-35941D01*
X117372Y-35998D01*
X117401Y-36027D01*
X117430Y-36041D01*
X117487Y-36041D01*
X117244Y-35770D02*
X117229Y-35755D01*
X117201Y-35741D01*
X117129Y-35741D01*
X117101Y-35755D01*
X117087Y-35770D01*
X117072Y-35798D01*
X117072Y-35827D01*
X117087Y-35870D01*
X117258Y-36041D01*
X117072Y-36041D01*
X116801Y-35741D02*
X116944Y-35741D01*
X116958Y-35884D01*
X116944Y-35870D01*
X116915Y-35855D01*
X116844Y-35855D01*
X116815Y-35870D01*
X116801Y-35884D01*
X116787Y-35912D01*
X116787Y-35984D01*
X116801Y-36012D01*
X116815Y-36027D01*
X116844Y-36041D01*
X116915Y-36041D01*
X116944Y-36027D01*
X116958Y-36012D01*
X116687Y-35741D02*
X116501Y-35741D01*
X116601Y-35855D01*
X116558Y-35855D01*
X116530Y-35870D01*
X116515Y-35884D01*
X116501Y-35912D01*
X116501Y-35984D01*
X116515Y-36012D01*
X116530Y-36027D01*
X116558Y-36041D01*
X116644Y-36041D01*
X116672Y-36027D01*
X116687Y-36012D01*
X116374Y-38930D02*
X116402Y-38915D01*
X116431Y-38887D01*
X116474Y-38844D01*
X116502Y-38830D01*
X116531Y-38830D01*
X116517Y-38901D02*
X116545Y-38887D01*
X116574Y-38858D01*
X116588Y-38801D01*
X116588Y-38701D01*
X116574Y-38644D01*
X116545Y-38615D01*
X116517Y-38601D01*
X116460Y-38601D01*
X116431Y-38615D01*
X116402Y-38644D01*
X116388Y-38701D01*
X116388Y-38801D01*
X116402Y-38858D01*
X116431Y-38887D01*
X116460Y-38901D01*
X116517Y-38901D01*
X116274Y-38630D02*
X116259Y-38615D01*
X116231Y-38601D01*
X116159Y-38601D01*
X116131Y-38615D01*
X116117Y-38630D01*
X116102Y-38658D01*
X116102Y-38687D01*
X116117Y-38730D01*
X116288Y-38901D01*
X116102Y-38901D01*
X115831Y-38601D02*
X115974Y-38601D01*
X115988Y-38744D01*
X115974Y-38730D01*
X115945Y-38715D01*
X115874Y-38715D01*
X115845Y-38730D01*
X115831Y-38744D01*
X115817Y-38772D01*
X115817Y-38844D01*
X115831Y-38872D01*
X115845Y-38887D01*
X115874Y-38901D01*
X115945Y-38901D01*
X115974Y-38887D01*
X115988Y-38872D01*
X115702Y-38630D02*
X115688Y-38615D01*
X115660Y-38601D01*
X115588Y-38601D01*
X115560Y-38615D01*
X115545Y-38630D01*
X115531Y-38658D01*
X115531Y-38687D01*
X115545Y-38730D01*
X115717Y-38901D01*
X115531Y-38901D01*
X115344Y-36060D02*
X115372Y-36045D01*
X115401Y-36017D01*
X115444Y-35974D01*
X115472Y-35960D01*
X115501Y-35960D01*
X115487Y-36031D02*
X115515Y-36017D01*
X115544Y-35988D01*
X115558Y-35931D01*
X115558Y-35831D01*
X115544Y-35774D01*
X115515Y-35745D01*
X115487Y-35731D01*
X115430Y-35731D01*
X115401Y-35745D01*
X115372Y-35774D01*
X115358Y-35831D01*
X115358Y-35931D01*
X115372Y-35988D01*
X115401Y-36017D01*
X115430Y-36031D01*
X115487Y-36031D01*
X115244Y-35760D02*
X115229Y-35745D01*
X115201Y-35731D01*
X115129Y-35731D01*
X115101Y-35745D01*
X115087Y-35760D01*
X115072Y-35788D01*
X115072Y-35817D01*
X115087Y-35860D01*
X115258Y-36031D01*
X115072Y-36031D01*
X114801Y-35731D02*
X114944Y-35731D01*
X114958Y-35874D01*
X114944Y-35860D01*
X114915Y-35845D01*
X114844Y-35845D01*
X114815Y-35860D01*
X114801Y-35874D01*
X114787Y-35902D01*
X114787Y-35974D01*
X114801Y-36002D01*
X114815Y-36017D01*
X114844Y-36031D01*
X114915Y-36031D01*
X114944Y-36017D01*
X114958Y-36002D01*
X114501Y-36031D02*
X114672Y-36031D01*
X114587Y-36031D02*
X114587Y-35731D01*
X114615Y-35774D01*
X114644Y-35802D01*
X114672Y-35817D01*
X114344Y-38910D02*
X114372Y-38895D01*
X114401Y-38867D01*
X114444Y-38824D01*
X114472Y-38810D01*
X114501Y-38810D01*
X114487Y-38881D02*
X114515Y-38867D01*
X114544Y-38838D01*
X114558Y-38781D01*
X114558Y-38681D01*
X114544Y-38624D01*
X114515Y-38595D01*
X114487Y-38581D01*
X114430Y-38581D01*
X114401Y-38595D01*
X114372Y-38624D01*
X114358Y-38681D01*
X114358Y-38781D01*
X114372Y-38838D01*
X114401Y-38867D01*
X114430Y-38881D01*
X114487Y-38881D01*
X114244Y-38610D02*
X114229Y-38595D01*
X114201Y-38581D01*
X114129Y-38581D01*
X114101Y-38595D01*
X114087Y-38610D01*
X114072Y-38638D01*
X114072Y-38667D01*
X114087Y-38710D01*
X114258Y-38881D01*
X114072Y-38881D01*
X113801Y-38581D02*
X113944Y-38581D01*
X113958Y-38724D01*
X113944Y-38710D01*
X113915Y-38695D01*
X113844Y-38695D01*
X113815Y-38710D01*
X113801Y-38724D01*
X113787Y-38752D01*
X113787Y-38824D01*
X113801Y-38852D01*
X113815Y-38867D01*
X113844Y-38881D01*
X113915Y-38881D01*
X113944Y-38867D01*
X113958Y-38852D01*
X113601Y-38581D02*
X113572Y-38581D01*
X113544Y-38595D01*
X113530Y-38610D01*
X113515Y-38638D01*
X113501Y-38695D01*
X113501Y-38767D01*
X113515Y-38824D01*
X113530Y-38852D01*
X113544Y-38867D01*
X113572Y-38881D01*
X113601Y-38881D01*
X113630Y-38867D01*
X113644Y-38852D01*
X113658Y-38824D01*
X113672Y-38767D01*
X113672Y-38695D01*
X113658Y-38638D01*
X113644Y-38610D01*
X113630Y-38595D01*
X113601Y-38581D01*
X121354Y-36070D02*
X121382Y-36055D01*
X121411Y-36027D01*
X121454Y-35984D01*
X121482Y-35970D01*
X121511Y-35970D01*
X121497Y-36041D02*
X121525Y-36027D01*
X121554Y-35998D01*
X121568Y-35941D01*
X121568Y-35841D01*
X121554Y-35784D01*
X121525Y-35755D01*
X121497Y-35741D01*
X121440Y-35741D01*
X121411Y-35755D01*
X121382Y-35784D01*
X121368Y-35841D01*
X121368Y-35941D01*
X121382Y-35998D01*
X121411Y-36027D01*
X121440Y-36041D01*
X121497Y-36041D01*
X121254Y-35770D02*
X121239Y-35755D01*
X121211Y-35741D01*
X121139Y-35741D01*
X121111Y-35755D01*
X121097Y-35770D01*
X121082Y-35798D01*
X121082Y-35827D01*
X121097Y-35870D01*
X121268Y-36041D01*
X121082Y-36041D01*
X120811Y-35741D02*
X120954Y-35741D01*
X120968Y-35884D01*
X120954Y-35870D01*
X120925Y-35855D01*
X120854Y-35855D01*
X120825Y-35870D01*
X120811Y-35884D01*
X120797Y-35912D01*
X120797Y-35984D01*
X120811Y-36012D01*
X120825Y-36027D01*
X120854Y-36041D01*
X120925Y-36041D01*
X120954Y-36027D01*
X120968Y-36012D01*
X120697Y-35741D02*
X120497Y-35741D01*
X120625Y-36041D01*
X128364Y-38930D02*
X128392Y-38915D01*
X128421Y-38887D01*
X128464Y-38844D01*
X128492Y-38830D01*
X128521Y-38830D01*
X128507Y-38901D02*
X128535Y-38887D01*
X128564Y-38858D01*
X128578Y-38801D01*
X128578Y-38701D01*
X128564Y-38644D01*
X128535Y-38615D01*
X128507Y-38601D01*
X128450Y-38601D01*
X128421Y-38615D01*
X128392Y-38644D01*
X128378Y-38701D01*
X128378Y-38801D01*
X128392Y-38858D01*
X128421Y-38887D01*
X128450Y-38901D01*
X128507Y-38901D01*
X128264Y-38630D02*
X128249Y-38615D01*
X128221Y-38601D01*
X128149Y-38601D01*
X128121Y-38615D01*
X128107Y-38630D01*
X128092Y-38658D01*
X128092Y-38687D01*
X128107Y-38730D01*
X128278Y-38901D01*
X128092Y-38901D01*
X127835Y-38601D02*
X127892Y-38601D01*
X127921Y-38615D01*
X127935Y-38630D01*
X127964Y-38672D01*
X127978Y-38730D01*
X127978Y-38844D01*
X127964Y-38872D01*
X127950Y-38887D01*
X127921Y-38901D01*
X127864Y-38901D01*
X127835Y-38887D01*
X127821Y-38872D01*
X127807Y-38844D01*
X127807Y-38772D01*
X127821Y-38744D01*
X127835Y-38730D01*
X127864Y-38715D01*
X127921Y-38715D01*
X127950Y-38730D01*
X127964Y-38744D01*
X127978Y-38772D01*
X127550Y-38701D02*
X127550Y-38901D01*
X127621Y-38587D02*
X127692Y-38801D01*
X127507Y-38801D01*
X127354Y-36070D02*
X127382Y-36055D01*
X127411Y-36027D01*
X127454Y-35984D01*
X127482Y-35970D01*
X127511Y-35970D01*
X127497Y-36041D02*
X127525Y-36027D01*
X127554Y-35998D01*
X127568Y-35941D01*
X127568Y-35841D01*
X127554Y-35784D01*
X127525Y-35755D01*
X127497Y-35741D01*
X127440Y-35741D01*
X127411Y-35755D01*
X127382Y-35784D01*
X127368Y-35841D01*
X127368Y-35941D01*
X127382Y-35998D01*
X127411Y-36027D01*
X127440Y-36041D01*
X127497Y-36041D01*
X127254Y-35770D02*
X127239Y-35755D01*
X127211Y-35741D01*
X127139Y-35741D01*
X127111Y-35755D01*
X127097Y-35770D01*
X127082Y-35798D01*
X127082Y-35827D01*
X127097Y-35870D01*
X127268Y-36041D01*
X127082Y-36041D01*
X126825Y-35741D02*
X126882Y-35741D01*
X126911Y-35755D01*
X126925Y-35770D01*
X126954Y-35812D01*
X126968Y-35870D01*
X126968Y-35984D01*
X126954Y-36012D01*
X126940Y-36027D01*
X126911Y-36041D01*
X126854Y-36041D01*
X126825Y-36027D01*
X126811Y-36012D01*
X126797Y-35984D01*
X126797Y-35912D01*
X126811Y-35884D01*
X126825Y-35870D01*
X126854Y-35855D01*
X126911Y-35855D01*
X126940Y-35870D01*
X126954Y-35884D01*
X126968Y-35912D01*
X126697Y-35741D02*
X126511Y-35741D01*
X126611Y-35855D01*
X126568Y-35855D01*
X126540Y-35870D01*
X126525Y-35884D01*
X126511Y-35912D01*
X126511Y-35984D01*
X126525Y-36012D01*
X126540Y-36027D01*
X126568Y-36041D01*
X126654Y-36041D01*
X126682Y-36027D01*
X126697Y-36012D01*
X126354Y-38920D02*
X126382Y-38905D01*
X126411Y-38877D01*
X126454Y-38834D01*
X126482Y-38820D01*
X126511Y-38820D01*
X126497Y-38891D02*
X126525Y-38877D01*
X126554Y-38848D01*
X126568Y-38791D01*
X126568Y-38691D01*
X126554Y-38634D01*
X126525Y-38605D01*
X126497Y-38591D01*
X126440Y-38591D01*
X126411Y-38605D01*
X126382Y-38634D01*
X126368Y-38691D01*
X126368Y-38791D01*
X126382Y-38848D01*
X126411Y-38877D01*
X126440Y-38891D01*
X126497Y-38891D01*
X126254Y-38620D02*
X126239Y-38605D01*
X126211Y-38591D01*
X126139Y-38591D01*
X126111Y-38605D01*
X126097Y-38620D01*
X126082Y-38648D01*
X126082Y-38677D01*
X126097Y-38720D01*
X126268Y-38891D01*
X126082Y-38891D01*
X125825Y-38591D02*
X125882Y-38591D01*
X125911Y-38605D01*
X125925Y-38620D01*
X125954Y-38662D01*
X125968Y-38720D01*
X125968Y-38834D01*
X125954Y-38862D01*
X125940Y-38877D01*
X125911Y-38891D01*
X125854Y-38891D01*
X125825Y-38877D01*
X125811Y-38862D01*
X125797Y-38834D01*
X125797Y-38762D01*
X125811Y-38734D01*
X125825Y-38720D01*
X125854Y-38705D01*
X125911Y-38705D01*
X125940Y-38720D01*
X125954Y-38734D01*
X125968Y-38762D01*
X125682Y-38620D02*
X125668Y-38605D01*
X125640Y-38591D01*
X125568Y-38591D01*
X125540Y-38605D01*
X125525Y-38620D01*
X125511Y-38648D01*
X125511Y-38677D01*
X125525Y-38720D01*
X125697Y-38891D01*
X125511Y-38891D01*
X125324Y-36080D02*
X125352Y-36065D01*
X125381Y-36037D01*
X125424Y-35994D01*
X125452Y-35980D01*
X125481Y-35980D01*
X125467Y-36051D02*
X125495Y-36037D01*
X125524Y-36008D01*
X125538Y-35951D01*
X125538Y-35851D01*
X125524Y-35794D01*
X125495Y-35765D01*
X125467Y-35751D01*
X125410Y-35751D01*
X125381Y-35765D01*
X125352Y-35794D01*
X125338Y-35851D01*
X125338Y-35951D01*
X125352Y-36008D01*
X125381Y-36037D01*
X125410Y-36051D01*
X125467Y-36051D01*
X125224Y-35780D02*
X125209Y-35765D01*
X125181Y-35751D01*
X125109Y-35751D01*
X125081Y-35765D01*
X125067Y-35780D01*
X125052Y-35808D01*
X125052Y-35837D01*
X125067Y-35880D01*
X125238Y-36051D01*
X125052Y-36051D01*
X124795Y-35751D02*
X124852Y-35751D01*
X124881Y-35765D01*
X124895Y-35780D01*
X124924Y-35822D01*
X124938Y-35880D01*
X124938Y-35994D01*
X124924Y-36022D01*
X124910Y-36037D01*
X124881Y-36051D01*
X124824Y-36051D01*
X124795Y-36037D01*
X124781Y-36022D01*
X124767Y-35994D01*
X124767Y-35922D01*
X124781Y-35894D01*
X124795Y-35880D01*
X124824Y-35865D01*
X124881Y-35865D01*
X124910Y-35880D01*
X124924Y-35894D01*
X124938Y-35922D01*
X124481Y-36051D02*
X124652Y-36051D01*
X124567Y-36051D02*
X124567Y-35751D01*
X124595Y-35794D01*
X124624Y-35822D01*
X124652Y-35837D01*
X124364Y-38920D02*
X124392Y-38905D01*
X124421Y-38877D01*
X124464Y-38834D01*
X124492Y-38820D01*
X124521Y-38820D01*
X124507Y-38891D02*
X124535Y-38877D01*
X124564Y-38848D01*
X124578Y-38791D01*
X124578Y-38691D01*
X124564Y-38634D01*
X124535Y-38605D01*
X124507Y-38591D01*
X124450Y-38591D01*
X124421Y-38605D01*
X124392Y-38634D01*
X124378Y-38691D01*
X124378Y-38791D01*
X124392Y-38848D01*
X124421Y-38877D01*
X124450Y-38891D01*
X124507Y-38891D01*
X124264Y-38620D02*
X124249Y-38605D01*
X124221Y-38591D01*
X124149Y-38591D01*
X124121Y-38605D01*
X124107Y-38620D01*
X124092Y-38648D01*
X124092Y-38677D01*
X124107Y-38720D01*
X124278Y-38891D01*
X124092Y-38891D01*
X123835Y-38591D02*
X123892Y-38591D01*
X123921Y-38605D01*
X123935Y-38620D01*
X123964Y-38662D01*
X123978Y-38720D01*
X123978Y-38834D01*
X123964Y-38862D01*
X123950Y-38877D01*
X123921Y-38891D01*
X123864Y-38891D01*
X123835Y-38877D01*
X123821Y-38862D01*
X123807Y-38834D01*
X123807Y-38762D01*
X123821Y-38734D01*
X123835Y-38720D01*
X123864Y-38705D01*
X123921Y-38705D01*
X123950Y-38720D01*
X123964Y-38734D01*
X123978Y-38762D01*
X123621Y-38591D02*
X123592Y-38591D01*
X123564Y-38605D01*
X123550Y-38620D01*
X123535Y-38648D01*
X123521Y-38705D01*
X123521Y-38777D01*
X123535Y-38834D01*
X123550Y-38862D01*
X123564Y-38877D01*
X123592Y-38891D01*
X123621Y-38891D01*
X123650Y-38877D01*
X123664Y-38862D01*
X123678Y-38834D01*
X123692Y-38777D01*
X123692Y-38705D01*
X123678Y-38648D01*
X123664Y-38620D01*
X123650Y-38605D01*
X123621Y-38591D01*
X123354Y-36070D02*
X123382Y-36055D01*
X123411Y-36027D01*
X123454Y-35984D01*
X123482Y-35970D01*
X123511Y-35970D01*
X123497Y-36041D02*
X123525Y-36027D01*
X123554Y-35998D01*
X123568Y-35941D01*
X123568Y-35841D01*
X123554Y-35784D01*
X123525Y-35755D01*
X123497Y-35741D01*
X123440Y-35741D01*
X123411Y-35755D01*
X123382Y-35784D01*
X123368Y-35841D01*
X123368Y-35941D01*
X123382Y-35998D01*
X123411Y-36027D01*
X123440Y-36041D01*
X123497Y-36041D01*
X123254Y-35770D02*
X123239Y-35755D01*
X123211Y-35741D01*
X123139Y-35741D01*
X123111Y-35755D01*
X123097Y-35770D01*
X123082Y-35798D01*
X123082Y-35827D01*
X123097Y-35870D01*
X123268Y-36041D01*
X123082Y-36041D01*
X122811Y-35741D02*
X122954Y-35741D01*
X122968Y-35884D01*
X122954Y-35870D01*
X122925Y-35855D01*
X122854Y-35855D01*
X122825Y-35870D01*
X122811Y-35884D01*
X122797Y-35912D01*
X122797Y-35984D01*
X122811Y-36012D01*
X122825Y-36027D01*
X122854Y-36041D01*
X122925Y-36041D01*
X122954Y-36027D01*
X122968Y-36012D01*
X122654Y-36041D02*
X122597Y-36041D01*
X122568Y-36027D01*
X122554Y-36012D01*
X122525Y-35970D01*
X122511Y-35912D01*
X122511Y-35798D01*
X122525Y-35770D01*
X122540Y-35755D01*
X122568Y-35741D01*
X122625Y-35741D01*
X122654Y-35755D01*
X122668Y-35770D01*
X122682Y-35798D01*
X122682Y-35870D01*
X122668Y-35898D01*
X122654Y-35912D01*
X122625Y-35927D01*
X122568Y-35927D01*
X122540Y-35912D01*
X122525Y-35898D01*
X122511Y-35870D01*
X122344Y-38930D02*
X122372Y-38915D01*
X122401Y-38887D01*
X122444Y-38844D01*
X122472Y-38830D01*
X122501Y-38830D01*
X122487Y-38901D02*
X122515Y-38887D01*
X122544Y-38858D01*
X122558Y-38801D01*
X122558Y-38701D01*
X122544Y-38644D01*
X122515Y-38615D01*
X122487Y-38601D01*
X122430Y-38601D01*
X122401Y-38615D01*
X122372Y-38644D01*
X122358Y-38701D01*
X122358Y-38801D01*
X122372Y-38858D01*
X122401Y-38887D01*
X122430Y-38901D01*
X122487Y-38901D01*
X122244Y-38630D02*
X122229Y-38615D01*
X122201Y-38601D01*
X122129Y-38601D01*
X122101Y-38615D01*
X122087Y-38630D01*
X122072Y-38658D01*
X122072Y-38687D01*
X122087Y-38730D01*
X122258Y-38901D01*
X122072Y-38901D01*
X121801Y-38601D02*
X121944Y-38601D01*
X121958Y-38744D01*
X121944Y-38730D01*
X121915Y-38715D01*
X121844Y-38715D01*
X121815Y-38730D01*
X121801Y-38744D01*
X121787Y-38772D01*
X121787Y-38844D01*
X121801Y-38872D01*
X121815Y-38887D01*
X121844Y-38901D01*
X121915Y-38901D01*
X121944Y-38887D01*
X121958Y-38872D01*
X121615Y-38730D02*
X121644Y-38715D01*
X121658Y-38701D01*
X121672Y-38672D01*
X121672Y-38658D01*
X121658Y-38630D01*
X121644Y-38615D01*
X121615Y-38601D01*
X121558Y-38601D01*
X121530Y-38615D01*
X121515Y-38630D01*
X121501Y-38658D01*
X121501Y-38672D01*
X121515Y-38701D01*
X121530Y-38715D01*
X121558Y-38730D01*
X121615Y-38730D01*
X121644Y-38744D01*
X121658Y-38758D01*
X121672Y-38787D01*
X121672Y-38844D01*
X121658Y-38872D01*
X121644Y-38887D01*
X121615Y-38901D01*
X121558Y-38901D01*
X121530Y-38887D01*
X121515Y-38872D01*
X121501Y-38844D01*
X121501Y-38787D01*
X121515Y-38758D01*
X121530Y-38744D01*
X121558Y-38730D01*
X83234Y-49350D02*
X83262Y-49335D01*
X83291Y-49307D01*
X83334Y-49264D01*
X83362Y-49250D01*
X83391Y-49250D01*
X83377Y-49321D02*
X83405Y-49307D01*
X83434Y-49278D01*
X83448Y-49221D01*
X83448Y-49121D01*
X83434Y-49064D01*
X83405Y-49035D01*
X83377Y-49021D01*
X83320Y-49021D01*
X83291Y-49035D01*
X83262Y-49064D01*
X83248Y-49121D01*
X83248Y-49221D01*
X83262Y-49278D01*
X83291Y-49307D01*
X83320Y-49321D01*
X83377Y-49321D01*
X83134Y-49050D02*
X83119Y-49035D01*
X83091Y-49021D01*
X83019Y-49021D01*
X82991Y-49035D01*
X82977Y-49050D01*
X82962Y-49078D01*
X82962Y-49107D01*
X82977Y-49150D01*
X83148Y-49321D01*
X82962Y-49321D01*
X82862Y-49021D02*
X82662Y-49021D01*
X82791Y-49321D01*
X82420Y-49121D02*
X82420Y-49321D01*
X82491Y-49007D02*
X82562Y-49221D01*
X82377Y-49221D01*
X103394Y-49410D02*
X103422Y-49395D01*
X103451Y-49367D01*
X103494Y-49324D01*
X103522Y-49310D01*
X103551Y-49310D01*
X103537Y-49381D02*
X103565Y-49367D01*
X103594Y-49338D01*
X103608Y-49281D01*
X103608Y-49181D01*
X103594Y-49124D01*
X103565Y-49095D01*
X103537Y-49081D01*
X103480Y-49081D01*
X103451Y-49095D01*
X103422Y-49124D01*
X103408Y-49181D01*
X103408Y-49281D01*
X103422Y-49338D01*
X103451Y-49367D01*
X103480Y-49381D01*
X103537Y-49381D01*
X103294Y-49110D02*
X103279Y-49095D01*
X103251Y-49081D01*
X103179Y-49081D01*
X103151Y-49095D01*
X103137Y-49110D01*
X103122Y-49138D01*
X103122Y-49167D01*
X103137Y-49210D01*
X103308Y-49381D01*
X103122Y-49381D01*
X103022Y-49081D02*
X102822Y-49081D01*
X102951Y-49381D01*
X102737Y-49081D02*
X102551Y-49081D01*
X102651Y-49195D01*
X102608Y-49195D01*
X102580Y-49210D01*
X102565Y-49224D01*
X102551Y-49252D01*
X102551Y-49324D01*
X102565Y-49352D01*
X102580Y-49367D01*
X102608Y-49381D01*
X102694Y-49381D01*
X102722Y-49367D01*
X102737Y-49352D01*
X98444Y-49370D02*
X98472Y-49355D01*
X98501Y-49327D01*
X98544Y-49284D01*
X98572Y-49270D01*
X98601Y-49270D01*
X98587Y-49341D02*
X98615Y-49327D01*
X98644Y-49298D01*
X98658Y-49241D01*
X98658Y-49141D01*
X98644Y-49084D01*
X98615Y-49055D01*
X98587Y-49041D01*
X98530Y-49041D01*
X98501Y-49055D01*
X98472Y-49084D01*
X98458Y-49141D01*
X98458Y-49241D01*
X98472Y-49298D01*
X98501Y-49327D01*
X98530Y-49341D01*
X98587Y-49341D01*
X98344Y-49070D02*
X98329Y-49055D01*
X98301Y-49041D01*
X98229Y-49041D01*
X98201Y-49055D01*
X98187Y-49070D01*
X98172Y-49098D01*
X98172Y-49127D01*
X98187Y-49170D01*
X98358Y-49341D01*
X98172Y-49341D01*
X98072Y-49041D02*
X97872Y-49041D01*
X98001Y-49341D01*
X97787Y-49041D02*
X97587Y-49041D01*
X97715Y-49341D01*
X108374Y-49410D02*
X108402Y-49395D01*
X108431Y-49367D01*
X108474Y-49324D01*
X108502Y-49310D01*
X108531Y-49310D01*
X108517Y-49381D02*
X108545Y-49367D01*
X108574Y-49338D01*
X108588Y-49281D01*
X108588Y-49181D01*
X108574Y-49124D01*
X108545Y-49095D01*
X108517Y-49081D01*
X108460Y-49081D01*
X108431Y-49095D01*
X108402Y-49124D01*
X108388Y-49181D01*
X108388Y-49281D01*
X108402Y-49338D01*
X108431Y-49367D01*
X108460Y-49381D01*
X108517Y-49381D01*
X108274Y-49110D02*
X108259Y-49095D01*
X108231Y-49081D01*
X108159Y-49081D01*
X108131Y-49095D01*
X108117Y-49110D01*
X108102Y-49138D01*
X108102Y-49167D01*
X108117Y-49210D01*
X108288Y-49381D01*
X108102Y-49381D01*
X107845Y-49081D02*
X107902Y-49081D01*
X107931Y-49095D01*
X107945Y-49110D01*
X107974Y-49152D01*
X107988Y-49210D01*
X107988Y-49324D01*
X107974Y-49352D01*
X107960Y-49367D01*
X107931Y-49381D01*
X107874Y-49381D01*
X107845Y-49367D01*
X107831Y-49352D01*
X107817Y-49324D01*
X107817Y-49252D01*
X107831Y-49224D01*
X107845Y-49210D01*
X107874Y-49195D01*
X107931Y-49195D01*
X107960Y-49210D01*
X107974Y-49224D01*
X107988Y-49252D01*
X107674Y-49381D02*
X107617Y-49381D01*
X107588Y-49367D01*
X107574Y-49352D01*
X107545Y-49310D01*
X107531Y-49252D01*
X107531Y-49138D01*
X107545Y-49110D01*
X107560Y-49095D01*
X107588Y-49081D01*
X107645Y-49081D01*
X107674Y-49095D01*
X107688Y-49110D01*
X107702Y-49138D01*
X107702Y-49210D01*
X107688Y-49238D01*
X107674Y-49252D01*
X107645Y-49267D01*
X107588Y-49267D01*
X107560Y-49252D01*
X107545Y-49238D01*
X107531Y-49210D01*
X78254Y-49380D02*
X78282Y-49365D01*
X78311Y-49337D01*
X78354Y-49294D01*
X78382Y-49280D01*
X78411Y-49280D01*
X78397Y-49351D02*
X78425Y-49337D01*
X78454Y-49308D01*
X78468Y-49251D01*
X78468Y-49151D01*
X78454Y-49094D01*
X78425Y-49065D01*
X78397Y-49051D01*
X78340Y-49051D01*
X78311Y-49065D01*
X78282Y-49094D01*
X78268Y-49151D01*
X78268Y-49251D01*
X78282Y-49308D01*
X78311Y-49337D01*
X78340Y-49351D01*
X78397Y-49351D01*
X78154Y-49080D02*
X78139Y-49065D01*
X78111Y-49051D01*
X78039Y-49051D01*
X78011Y-49065D01*
X77997Y-49080D01*
X77982Y-49108D01*
X77982Y-49137D01*
X77997Y-49180D01*
X78168Y-49351D01*
X77982Y-49351D01*
X77882Y-49051D02*
X77682Y-49051D01*
X77811Y-49351D01*
X77525Y-49180D02*
X77554Y-49165D01*
X77568Y-49151D01*
X77582Y-49122D01*
X77582Y-49108D01*
X77568Y-49080D01*
X77554Y-49065D01*
X77525Y-49051D01*
X77468Y-49051D01*
X77440Y-49065D01*
X77425Y-49080D01*
X77411Y-49108D01*
X77411Y-49122D01*
X77425Y-49151D01*
X77440Y-49165D01*
X77468Y-49180D01*
X77525Y-49180D01*
X77554Y-49194D01*
X77568Y-49208D01*
X77582Y-49237D01*
X77582Y-49294D01*
X77568Y-49322D01*
X77554Y-49337D01*
X77525Y-49351D01*
X77468Y-49351D01*
X77440Y-49337D01*
X77425Y-49322D01*
X77411Y-49294D01*
X77411Y-49237D01*
X77425Y-49208D01*
X77440Y-49194D01*
X77468Y-49180D01*
X113414Y-49380D02*
X113442Y-49365D01*
X113471Y-49337D01*
X113514Y-49294D01*
X113542Y-49280D01*
X113571Y-49280D01*
X113557Y-49351D02*
X113585Y-49337D01*
X113614Y-49308D01*
X113628Y-49251D01*
X113628Y-49151D01*
X113614Y-49094D01*
X113585Y-49065D01*
X113557Y-49051D01*
X113500Y-49051D01*
X113471Y-49065D01*
X113442Y-49094D01*
X113428Y-49151D01*
X113428Y-49251D01*
X113442Y-49308D01*
X113471Y-49337D01*
X113500Y-49351D01*
X113557Y-49351D01*
X113314Y-49080D02*
X113299Y-49065D01*
X113271Y-49051D01*
X113199Y-49051D01*
X113171Y-49065D01*
X113157Y-49080D01*
X113142Y-49108D01*
X113142Y-49137D01*
X113157Y-49180D01*
X113328Y-49351D01*
X113142Y-49351D01*
X112885Y-49051D02*
X112942Y-49051D01*
X112971Y-49065D01*
X112985Y-49080D01*
X113014Y-49122D01*
X113028Y-49180D01*
X113028Y-49294D01*
X113014Y-49322D01*
X113000Y-49337D01*
X112971Y-49351D01*
X112914Y-49351D01*
X112885Y-49337D01*
X112871Y-49322D01*
X112857Y-49294D01*
X112857Y-49222D01*
X112871Y-49194D01*
X112885Y-49180D01*
X112914Y-49165D01*
X112971Y-49165D01*
X113000Y-49180D01*
X113014Y-49194D01*
X113028Y-49222D01*
X112585Y-49051D02*
X112728Y-49051D01*
X112742Y-49194D01*
X112728Y-49180D01*
X112700Y-49165D01*
X112628Y-49165D01*
X112600Y-49180D01*
X112585Y-49194D01*
X112571Y-49222D01*
X112571Y-49294D01*
X112585Y-49322D01*
X112600Y-49337D01*
X112628Y-49351D01*
X112700Y-49351D01*
X112728Y-49337D01*
X112742Y-49322D01*
X93484Y-49370D02*
X93512Y-49355D01*
X93541Y-49327D01*
X93584Y-49284D01*
X93612Y-49270D01*
X93641Y-49270D01*
X93627Y-49341D02*
X93655Y-49327D01*
X93684Y-49298D01*
X93698Y-49241D01*
X93698Y-49141D01*
X93684Y-49084D01*
X93655Y-49055D01*
X93627Y-49041D01*
X93570Y-49041D01*
X93541Y-49055D01*
X93512Y-49084D01*
X93498Y-49141D01*
X93498Y-49241D01*
X93512Y-49298D01*
X93541Y-49327D01*
X93570Y-49341D01*
X93627Y-49341D01*
X93384Y-49070D02*
X93369Y-49055D01*
X93341Y-49041D01*
X93269Y-49041D01*
X93241Y-49055D01*
X93227Y-49070D01*
X93212Y-49098D01*
X93212Y-49127D01*
X93227Y-49170D01*
X93398Y-49341D01*
X93212Y-49341D01*
X92955Y-49041D02*
X93012Y-49041D01*
X93041Y-49055D01*
X93055Y-49070D01*
X93084Y-49112D01*
X93098Y-49170D01*
X93098Y-49284D01*
X93084Y-49312D01*
X93070Y-49327D01*
X93041Y-49341D01*
X92984Y-49341D01*
X92955Y-49327D01*
X92941Y-49312D01*
X92927Y-49284D01*
X92927Y-49212D01*
X92941Y-49184D01*
X92955Y-49170D01*
X92984Y-49155D01*
X93041Y-49155D01*
X93070Y-49170D01*
X93084Y-49184D01*
X93098Y-49212D01*
X92670Y-49041D02*
X92727Y-49041D01*
X92755Y-49055D01*
X92770Y-49070D01*
X92798Y-49112D01*
X92812Y-49170D01*
X92812Y-49284D01*
X92798Y-49312D01*
X92784Y-49327D01*
X92755Y-49341D01*
X92698Y-49341D01*
X92670Y-49327D01*
X92655Y-49312D01*
X92641Y-49284D01*
X92641Y-49212D01*
X92655Y-49184D01*
X92670Y-49170D01*
X92698Y-49155D01*
X92755Y-49155D01*
X92784Y-49170D01*
X92798Y-49184D01*
X92812Y-49212D01*
X88384Y-49370D02*
X88412Y-49355D01*
X88441Y-49327D01*
X88484Y-49284D01*
X88512Y-49270D01*
X88541Y-49270D01*
X88527Y-49341D02*
X88555Y-49327D01*
X88584Y-49298D01*
X88598Y-49241D01*
X88598Y-49141D01*
X88584Y-49084D01*
X88555Y-49055D01*
X88527Y-49041D01*
X88470Y-49041D01*
X88441Y-49055D01*
X88412Y-49084D01*
X88398Y-49141D01*
X88398Y-49241D01*
X88412Y-49298D01*
X88441Y-49327D01*
X88470Y-49341D01*
X88527Y-49341D01*
X88284Y-49070D02*
X88269Y-49055D01*
X88241Y-49041D01*
X88169Y-49041D01*
X88141Y-49055D01*
X88127Y-49070D01*
X88112Y-49098D01*
X88112Y-49127D01*
X88127Y-49170D01*
X88298Y-49341D01*
X88112Y-49341D01*
X88012Y-49041D02*
X87812Y-49041D01*
X87941Y-49341D01*
X87641Y-49041D02*
X87612Y-49041D01*
X87584Y-49055D01*
X87570Y-49070D01*
X87555Y-49098D01*
X87541Y-49155D01*
X87541Y-49227D01*
X87555Y-49284D01*
X87570Y-49312D01*
X87584Y-49327D01*
X87612Y-49341D01*
X87641Y-49341D01*
X87670Y-49327D01*
X87684Y-49312D01*
X87698Y-49284D01*
X87712Y-49227D01*
X87712Y-49155D01*
X87698Y-49098D01*
X87684Y-49070D01*
X87670Y-49055D01*
X87641Y-49041D01*
G54D10*
X70153Y-48423D02*
X70153Y-48742D01*
X70134Y-48780D01*
X70115Y-48798D01*
X70078Y-48817D01*
X70003Y-48817D01*
X69965Y-48798D01*
X69946Y-48780D01*
X69928Y-48742D01*
X69928Y-48423D01*
X69759Y-48461D02*
X69740Y-48442D01*
X69703Y-48423D01*
X69609Y-48423D01*
X69571Y-48442D01*
X69553Y-48461D01*
X69534Y-48498D01*
X69534Y-48536D01*
X69553Y-48592D01*
X69778Y-48817D01*
X69534Y-48817D01*
X69290Y-48423D02*
X69253Y-48423D01*
X69215Y-48442D01*
X69196Y-48461D01*
X69178Y-48498D01*
X69159Y-48573D01*
X69159Y-48667D01*
X69178Y-48742D01*
X69196Y-48780D01*
X69215Y-48798D01*
X69253Y-48817D01*
X69290Y-48817D01*
X69328Y-48798D01*
X69346Y-48780D01*
X69365Y-48742D01*
X69384Y-48667D01*
X69384Y-48573D01*
X69365Y-48498D01*
X69346Y-48461D01*
X69328Y-48442D01*
X69290Y-48423D01*
X68972Y-48817D02*
X68897Y-48817D01*
X68859Y-48798D01*
X68840Y-48780D01*
X68803Y-48723D01*
X68784Y-48648D01*
X68784Y-48498D01*
X68803Y-48461D01*
X68822Y-48442D01*
X68859Y-48423D01*
X68934Y-48423D01*
X68972Y-48442D01*
X68990Y-48461D01*
X69009Y-48498D01*
X69009Y-48592D01*
X68990Y-48630D01*
X68972Y-48648D01*
X68934Y-48667D01*
X68859Y-48667D01*
X68822Y-48648D01*
X68803Y-48630D01*
X68784Y-48592D01*
G54D12*
X90815Y-48922D02*
X90830Y-48937D01*
X90872Y-48951D01*
X90901Y-48951D01*
X90944Y-48937D01*
X90972Y-48908D01*
X90987Y-48880D01*
X91001Y-48822D01*
X91001Y-48780D01*
X90987Y-48722D01*
X90972Y-48694D01*
X90944Y-48665D01*
X90901Y-48651D01*
X90872Y-48651D01*
X90830Y-48665D01*
X90815Y-48680D01*
X90701Y-48680D02*
X90687Y-48665D01*
X90658Y-48651D01*
X90587Y-48651D01*
X90558Y-48665D01*
X90544Y-48680D01*
X90530Y-48708D01*
X90530Y-48737D01*
X90544Y-48780D01*
X90715Y-48951D01*
X90530Y-48951D01*
X90244Y-48951D02*
X90415Y-48951D01*
X90330Y-48951D02*
X90330Y-48651D01*
X90358Y-48694D01*
X90387Y-48722D01*
X90415Y-48737D01*
X90144Y-48651D02*
X89958Y-48651D01*
X90058Y-48765D01*
X90015Y-48765D01*
X89987Y-48780D01*
X89972Y-48794D01*
X89958Y-48822D01*
X89958Y-48894D01*
X89972Y-48922D01*
X89987Y-48937D01*
X90015Y-48951D01*
X90101Y-48951D01*
X90130Y-48937D01*
X90144Y-48922D01*
X100795Y-48962D02*
X100810Y-48977D01*
X100852Y-48991D01*
X100881Y-48991D01*
X100924Y-48977D01*
X100952Y-48948D01*
X100967Y-48920D01*
X100981Y-48862D01*
X100981Y-48820D01*
X100967Y-48762D01*
X100952Y-48734D01*
X100924Y-48705D01*
X100881Y-48691D01*
X100852Y-48691D01*
X100810Y-48705D01*
X100795Y-48720D01*
X100681Y-48720D02*
X100667Y-48705D01*
X100638Y-48691D01*
X100567Y-48691D01*
X100538Y-48705D01*
X100524Y-48720D01*
X100510Y-48748D01*
X100510Y-48777D01*
X100524Y-48820D01*
X100695Y-48991D01*
X100510Y-48991D01*
X100224Y-48991D02*
X100395Y-48991D01*
X100310Y-48991D02*
X100310Y-48691D01*
X100338Y-48734D01*
X100367Y-48762D01*
X100395Y-48777D01*
X99967Y-48691D02*
X100024Y-48691D01*
X100052Y-48705D01*
X100067Y-48720D01*
X100095Y-48762D01*
X100110Y-48820D01*
X100110Y-48934D01*
X100095Y-48962D01*
X100081Y-48977D01*
X100052Y-48991D01*
X99995Y-48991D01*
X99967Y-48977D01*
X99952Y-48962D01*
X99938Y-48934D01*
X99938Y-48862D01*
X99952Y-48834D01*
X99967Y-48820D01*
X99995Y-48805D01*
X100052Y-48805D01*
X100081Y-48820D01*
X100095Y-48834D01*
X100110Y-48862D01*
X105865Y-49012D02*
X105880Y-49027D01*
X105922Y-49041D01*
X105951Y-49041D01*
X105994Y-49027D01*
X106022Y-48998D01*
X106037Y-48970D01*
X106051Y-48912D01*
X106051Y-48870D01*
X106037Y-48812D01*
X106022Y-48784D01*
X105994Y-48755D01*
X105951Y-48741D01*
X105922Y-48741D01*
X105880Y-48755D01*
X105865Y-48770D01*
X105751Y-48770D02*
X105737Y-48755D01*
X105708Y-48741D01*
X105637Y-48741D01*
X105608Y-48755D01*
X105594Y-48770D01*
X105580Y-48798D01*
X105580Y-48827D01*
X105594Y-48870D01*
X105765Y-49041D01*
X105580Y-49041D01*
X105294Y-49041D02*
X105465Y-49041D01*
X105380Y-49041D02*
X105380Y-48741D01*
X105408Y-48784D01*
X105437Y-48812D01*
X105465Y-48827D01*
X105037Y-48841D02*
X105037Y-49041D01*
X105108Y-48727D02*
X105180Y-48941D01*
X104994Y-48941D01*
X95785Y-48952D02*
X95800Y-48967D01*
X95842Y-48981D01*
X95871Y-48981D01*
X95914Y-48967D01*
X95942Y-48938D01*
X95957Y-48910D01*
X95971Y-48852D01*
X95971Y-48810D01*
X95957Y-48752D01*
X95942Y-48724D01*
X95914Y-48695D01*
X95871Y-48681D01*
X95842Y-48681D01*
X95800Y-48695D01*
X95785Y-48710D01*
X95671Y-48710D02*
X95657Y-48695D01*
X95628Y-48681D01*
X95557Y-48681D01*
X95528Y-48695D01*
X95514Y-48710D01*
X95500Y-48738D01*
X95500Y-48767D01*
X95514Y-48810D01*
X95685Y-48981D01*
X95500Y-48981D01*
X95214Y-48981D02*
X95385Y-48981D01*
X95300Y-48981D02*
X95300Y-48681D01*
X95328Y-48724D01*
X95357Y-48752D01*
X95385Y-48767D01*
X95028Y-48681D02*
X95000Y-48681D01*
X94971Y-48695D01*
X94957Y-48710D01*
X94942Y-48738D01*
X94928Y-48795D01*
X94928Y-48867D01*
X94942Y-48924D01*
X94957Y-48952D01*
X94971Y-48967D01*
X95000Y-48981D01*
X95028Y-48981D01*
X95057Y-48967D01*
X95071Y-48952D01*
X95085Y-48924D01*
X95100Y-48867D01*
X95100Y-48795D01*
X95085Y-48738D01*
X95071Y-48710D01*
X95057Y-48695D01*
X95028Y-48681D01*
X110875Y-48992D02*
X110890Y-49007D01*
X110932Y-49021D01*
X110961Y-49021D01*
X111004Y-49007D01*
X111032Y-48978D01*
X111047Y-48950D01*
X111061Y-48892D01*
X111061Y-48850D01*
X111047Y-48792D01*
X111032Y-48764D01*
X111004Y-48735D01*
X110961Y-48721D01*
X110932Y-48721D01*
X110890Y-48735D01*
X110875Y-48750D01*
X110761Y-48750D02*
X110747Y-48735D01*
X110718Y-48721D01*
X110647Y-48721D01*
X110618Y-48735D01*
X110604Y-48750D01*
X110590Y-48778D01*
X110590Y-48807D01*
X110604Y-48850D01*
X110775Y-49021D01*
X110590Y-49021D01*
X110304Y-49021D02*
X110475Y-49021D01*
X110390Y-49021D02*
X110390Y-48721D01*
X110418Y-48764D01*
X110447Y-48792D01*
X110475Y-48807D01*
X110190Y-48750D02*
X110175Y-48735D01*
X110147Y-48721D01*
X110075Y-48721D01*
X110047Y-48735D01*
X110032Y-48750D01*
X110018Y-48778D01*
X110018Y-48807D01*
X110032Y-48850D01*
X110204Y-49021D01*
X110018Y-49021D01*
X85795Y-48932D02*
X85810Y-48947D01*
X85852Y-48961D01*
X85881Y-48961D01*
X85924Y-48947D01*
X85952Y-48918D01*
X85967Y-48890D01*
X85981Y-48832D01*
X85981Y-48790D01*
X85967Y-48732D01*
X85952Y-48704D01*
X85924Y-48675D01*
X85881Y-48661D01*
X85852Y-48661D01*
X85810Y-48675D01*
X85795Y-48690D01*
X85681Y-48690D02*
X85667Y-48675D01*
X85638Y-48661D01*
X85567Y-48661D01*
X85538Y-48675D01*
X85524Y-48690D01*
X85510Y-48718D01*
X85510Y-48747D01*
X85524Y-48790D01*
X85695Y-48961D01*
X85510Y-48961D01*
X85224Y-48961D02*
X85395Y-48961D01*
X85310Y-48961D02*
X85310Y-48661D01*
X85338Y-48704D01*
X85367Y-48732D01*
X85395Y-48747D01*
X84952Y-48661D02*
X85095Y-48661D01*
X85110Y-48804D01*
X85095Y-48790D01*
X85067Y-48775D01*
X84995Y-48775D01*
X84967Y-48790D01*
X84952Y-48804D01*
X84938Y-48832D01*
X84938Y-48904D01*
X84952Y-48932D01*
X84967Y-48947D01*
X84995Y-48961D01*
X85067Y-48961D01*
X85095Y-48947D01*
X85110Y-48932D01*
X115915Y-48942D02*
X115930Y-48957D01*
X115972Y-48971D01*
X116001Y-48971D01*
X116044Y-48957D01*
X116072Y-48928D01*
X116087Y-48900D01*
X116101Y-48842D01*
X116101Y-48800D01*
X116087Y-48742D01*
X116072Y-48714D01*
X116044Y-48685D01*
X116001Y-48671D01*
X115972Y-48671D01*
X115930Y-48685D01*
X115915Y-48700D01*
X115801Y-48700D02*
X115787Y-48685D01*
X115758Y-48671D01*
X115687Y-48671D01*
X115658Y-48685D01*
X115644Y-48700D01*
X115630Y-48728D01*
X115630Y-48757D01*
X115644Y-48800D01*
X115815Y-48971D01*
X115630Y-48971D01*
X115444Y-48671D02*
X115415Y-48671D01*
X115387Y-48685D01*
X115372Y-48700D01*
X115358Y-48728D01*
X115344Y-48785D01*
X115344Y-48857D01*
X115358Y-48914D01*
X115372Y-48942D01*
X115387Y-48957D01*
X115415Y-48971D01*
X115444Y-48971D01*
X115472Y-48957D01*
X115487Y-48942D01*
X115501Y-48914D01*
X115515Y-48857D01*
X115515Y-48785D01*
X115501Y-48728D01*
X115487Y-48700D01*
X115472Y-48685D01*
X115444Y-48671D01*
X115201Y-48971D02*
X115144Y-48971D01*
X115115Y-48957D01*
X115101Y-48942D01*
X115072Y-48900D01*
X115058Y-48842D01*
X115058Y-48728D01*
X115072Y-48700D01*
X115087Y-48685D01*
X115115Y-48671D01*
X115172Y-48671D01*
X115201Y-48685D01*
X115215Y-48700D01*
X115230Y-48728D01*
X115230Y-48800D01*
X115215Y-48828D01*
X115201Y-48842D01*
X115172Y-48857D01*
X115115Y-48857D01*
X115087Y-48842D01*
X115072Y-48828D01*
X115058Y-48800D01*
X80845Y-48932D02*
X80860Y-48947D01*
X80902Y-48961D01*
X80931Y-48961D01*
X80974Y-48947D01*
X81002Y-48918D01*
X81017Y-48890D01*
X81031Y-48832D01*
X81031Y-48790D01*
X81017Y-48732D01*
X81002Y-48704D01*
X80974Y-48675D01*
X80931Y-48661D01*
X80902Y-48661D01*
X80860Y-48675D01*
X80845Y-48690D01*
X80731Y-48690D02*
X80717Y-48675D01*
X80688Y-48661D01*
X80617Y-48661D01*
X80588Y-48675D01*
X80574Y-48690D01*
X80560Y-48718D01*
X80560Y-48747D01*
X80574Y-48790D01*
X80745Y-48961D01*
X80560Y-48961D01*
X80274Y-48961D02*
X80445Y-48961D01*
X80360Y-48961D02*
X80360Y-48661D01*
X80388Y-48704D01*
X80417Y-48732D01*
X80445Y-48747D01*
X80174Y-48661D02*
X79974Y-48661D01*
X80102Y-48961D01*
G54D15*
X126670Y-46748D02*
X126726Y-46667D01*
X126767Y-46748D02*
X126767Y-46578D01*
X126702Y-46578D01*
X126686Y-46586D01*
X126678Y-46595D01*
X126670Y-46611D01*
X126670Y-46635D01*
X126678Y-46651D01*
X126686Y-46659D01*
X126702Y-46667D01*
X126767Y-46667D01*
X126508Y-46748D02*
X126605Y-46748D01*
X126556Y-46748D02*
X126556Y-46578D01*
X126573Y-46603D01*
X126589Y-46619D01*
X126605Y-46627D01*
X126403Y-46578D02*
X126386Y-46578D01*
X126370Y-46586D01*
X126362Y-46595D01*
X126354Y-46611D01*
X126346Y-46643D01*
X126346Y-46684D01*
X126354Y-46716D01*
X126362Y-46732D01*
X126370Y-46740D01*
X126386Y-46748D01*
X126403Y-46748D01*
X126419Y-46740D01*
X126427Y-46732D01*
X126435Y-46716D01*
X126443Y-46684D01*
X126443Y-46643D01*
X126435Y-46611D01*
X126427Y-46595D01*
X126419Y-46586D01*
X126403Y-46578D01*
X126184Y-46748D02*
X126281Y-46748D01*
X126233Y-46748D02*
X126233Y-46578D01*
X126249Y-46603D01*
X126265Y-46619D01*
X126281Y-46627D01*
X72830Y-46678D02*
X72886Y-46597D01*
X72927Y-46678D02*
X72927Y-46508D01*
X72862Y-46508D01*
X72846Y-46516D01*
X72838Y-46525D01*
X72830Y-46541D01*
X72830Y-46565D01*
X72838Y-46581D01*
X72846Y-46589D01*
X72862Y-46597D01*
X72927Y-46597D01*
X72684Y-46565D02*
X72684Y-46678D01*
X72725Y-46500D02*
X72765Y-46622D01*
X72660Y-46622D01*
X72506Y-46678D02*
X72603Y-46678D01*
X72555Y-46678D02*
X72555Y-46508D01*
X72571Y-46533D01*
X72587Y-46549D01*
X72603Y-46557D01*
X72352Y-46508D02*
X72433Y-46508D01*
X72441Y-46589D01*
X72433Y-46581D01*
X72417Y-46573D01*
X72376Y-46573D01*
X72360Y-46581D01*
X72352Y-46589D01*
X72344Y-46605D01*
X72344Y-46646D01*
X72352Y-46662D01*
X72360Y-46670D01*
X72376Y-46678D01*
X72417Y-46678D01*
X72433Y-46670D01*
X72441Y-46662D01*
X81130Y-46678D02*
X81186Y-46597D01*
X81227Y-46678D02*
X81227Y-46508D01*
X81162Y-46508D01*
X81146Y-46516D01*
X81138Y-46525D01*
X81130Y-46541D01*
X81130Y-46565D01*
X81138Y-46581D01*
X81146Y-46589D01*
X81162Y-46597D01*
X81227Y-46597D01*
X80984Y-46565D02*
X80984Y-46678D01*
X81025Y-46500D02*
X81065Y-46622D01*
X80960Y-46622D01*
X80806Y-46678D02*
X80903Y-46678D01*
X80855Y-46678D02*
X80855Y-46508D01*
X80871Y-46533D01*
X80887Y-46549D01*
X80903Y-46557D01*
X80741Y-46525D02*
X80733Y-46516D01*
X80717Y-46508D01*
X80676Y-46508D01*
X80660Y-46516D01*
X80652Y-46525D01*
X80644Y-46541D01*
X80644Y-46557D01*
X80652Y-46581D01*
X80749Y-46678D01*
X80644Y-46678D01*
X89180Y-46678D02*
X89236Y-46597D01*
X89277Y-46678D02*
X89277Y-46508D01*
X89212Y-46508D01*
X89196Y-46516D01*
X89188Y-46525D01*
X89180Y-46541D01*
X89180Y-46565D01*
X89188Y-46581D01*
X89196Y-46589D01*
X89212Y-46597D01*
X89277Y-46597D01*
X89034Y-46565D02*
X89034Y-46678D01*
X89075Y-46500D02*
X89115Y-46622D01*
X89010Y-46622D01*
X88856Y-46678D02*
X88953Y-46678D01*
X88905Y-46678D02*
X88905Y-46508D01*
X88921Y-46533D01*
X88937Y-46549D01*
X88953Y-46557D01*
X88799Y-46508D02*
X88694Y-46508D01*
X88751Y-46573D01*
X88726Y-46573D01*
X88710Y-46581D01*
X88702Y-46589D01*
X88694Y-46605D01*
X88694Y-46646D01*
X88702Y-46662D01*
X88710Y-46670D01*
X88726Y-46678D01*
X88775Y-46678D01*
X88791Y-46670D01*
X88799Y-46662D01*
X97270Y-46678D02*
X97326Y-46597D01*
X97367Y-46678D02*
X97367Y-46508D01*
X97302Y-46508D01*
X97286Y-46516D01*
X97278Y-46525D01*
X97270Y-46541D01*
X97270Y-46565D01*
X97278Y-46581D01*
X97286Y-46589D01*
X97302Y-46597D01*
X97367Y-46597D01*
X97124Y-46565D02*
X97124Y-46678D01*
X97165Y-46500D02*
X97205Y-46622D01*
X97100Y-46622D01*
X96946Y-46678D02*
X97043Y-46678D01*
X96995Y-46678D02*
X96995Y-46508D01*
X97011Y-46533D01*
X97027Y-46549D01*
X97043Y-46557D01*
X96800Y-46565D02*
X96800Y-46678D01*
X96841Y-46500D02*
X96881Y-46622D01*
X96776Y-46622D01*
X105270Y-46678D02*
X105326Y-46597D01*
X105367Y-46678D02*
X105367Y-46508D01*
X105302Y-46508D01*
X105286Y-46516D01*
X105278Y-46525D01*
X105270Y-46541D01*
X105270Y-46565D01*
X105278Y-46581D01*
X105286Y-46589D01*
X105302Y-46597D01*
X105367Y-46597D01*
X105124Y-46565D02*
X105124Y-46678D01*
X105165Y-46500D02*
X105205Y-46622D01*
X105100Y-46622D01*
X105003Y-46508D02*
X104986Y-46508D01*
X104970Y-46516D01*
X104962Y-46525D01*
X104954Y-46541D01*
X104946Y-46573D01*
X104946Y-46614D01*
X104954Y-46646D01*
X104962Y-46662D01*
X104970Y-46670D01*
X104986Y-46678D01*
X105003Y-46678D01*
X105019Y-46670D01*
X105027Y-46662D01*
X105035Y-46646D01*
X105043Y-46614D01*
X105043Y-46573D01*
X105035Y-46541D01*
X105027Y-46525D01*
X105019Y-46516D01*
X105003Y-46508D01*
X104865Y-46678D02*
X104833Y-46678D01*
X104816Y-46670D01*
X104808Y-46662D01*
X104792Y-46638D01*
X104784Y-46605D01*
X104784Y-46541D01*
X104792Y-46525D01*
X104800Y-46516D01*
X104816Y-46508D01*
X104849Y-46508D01*
X104865Y-46516D01*
X104873Y-46525D01*
X104881Y-46541D01*
X104881Y-46581D01*
X104873Y-46597D01*
X104865Y-46605D01*
X104849Y-46614D01*
X104816Y-46614D01*
X104800Y-46605D01*
X104792Y-46597D01*
X104784Y-46581D01*
X112980Y-46678D02*
X113036Y-46597D01*
X113077Y-46678D02*
X113077Y-46508D01*
X113012Y-46508D01*
X112996Y-46516D01*
X112988Y-46525D01*
X112980Y-46541D01*
X112980Y-46565D01*
X112988Y-46581D01*
X112996Y-46589D01*
X113012Y-46597D01*
X113077Y-46597D01*
X112834Y-46565D02*
X112834Y-46678D01*
X112875Y-46500D02*
X112915Y-46622D01*
X112810Y-46622D01*
X112656Y-46678D02*
X112753Y-46678D01*
X112705Y-46678D02*
X112705Y-46508D01*
X112721Y-46533D01*
X112737Y-46549D01*
X112753Y-46557D01*
X112551Y-46508D02*
X112535Y-46508D01*
X112518Y-46516D01*
X112510Y-46525D01*
X112502Y-46541D01*
X112494Y-46573D01*
X112494Y-46614D01*
X112502Y-46646D01*
X112510Y-46662D01*
X112518Y-46670D01*
X112535Y-46678D01*
X112551Y-46678D01*
X112567Y-46670D01*
X112575Y-46662D01*
X112583Y-46646D01*
X112591Y-46614D01*
X112591Y-46573D01*
X112583Y-46541D01*
X112575Y-46525D01*
X112567Y-46516D01*
X112551Y-46508D01*
X121060Y-46678D02*
X121116Y-46597D01*
X121157Y-46678D02*
X121157Y-46508D01*
X121092Y-46508D01*
X121076Y-46516D01*
X121068Y-46525D01*
X121060Y-46541D01*
X121060Y-46565D01*
X121068Y-46581D01*
X121076Y-46589D01*
X121092Y-46597D01*
X121157Y-46597D01*
X120914Y-46565D02*
X120914Y-46678D01*
X120955Y-46500D02*
X120995Y-46622D01*
X120890Y-46622D01*
X120736Y-46678D02*
X120833Y-46678D01*
X120785Y-46678D02*
X120785Y-46508D01*
X120801Y-46533D01*
X120817Y-46549D01*
X120833Y-46557D01*
X120574Y-46678D02*
X120671Y-46678D01*
X120623Y-46678D02*
X120623Y-46508D01*
X120639Y-46533D01*
X120655Y-46549D01*
X120671Y-46557D01*
X84520Y-49258D02*
X84576Y-49177D01*
X84617Y-49258D02*
X84617Y-49088D01*
X84552Y-49088D01*
X84536Y-49096D01*
X84528Y-49105D01*
X84520Y-49121D01*
X84520Y-49145D01*
X84528Y-49161D01*
X84536Y-49169D01*
X84552Y-49177D01*
X84617Y-49177D01*
X84374Y-49145D02*
X84374Y-49258D01*
X84415Y-49080D02*
X84455Y-49202D01*
X84350Y-49202D01*
X84301Y-49088D02*
X84196Y-49088D01*
X84253Y-49153D01*
X84228Y-49153D01*
X84212Y-49161D01*
X84204Y-49169D01*
X84196Y-49185D01*
X84196Y-49226D01*
X84204Y-49242D01*
X84212Y-49250D01*
X84228Y-49258D01*
X84277Y-49258D01*
X84293Y-49250D01*
X84301Y-49242D01*
X84139Y-49088D02*
X84026Y-49088D01*
X84099Y-49258D01*
X79480Y-49258D02*
X79536Y-49177D01*
X79577Y-49258D02*
X79577Y-49088D01*
X79512Y-49088D01*
X79496Y-49096D01*
X79488Y-49105D01*
X79480Y-49121D01*
X79480Y-49145D01*
X79488Y-49161D01*
X79496Y-49169D01*
X79512Y-49177D01*
X79577Y-49177D01*
X79334Y-49145D02*
X79334Y-49258D01*
X79375Y-49080D02*
X79415Y-49202D01*
X79310Y-49202D01*
X79172Y-49145D02*
X79172Y-49258D01*
X79213Y-49080D02*
X79253Y-49202D01*
X79148Y-49202D01*
X79099Y-49088D02*
X78994Y-49088D01*
X79051Y-49153D01*
X79026Y-49153D01*
X79010Y-49161D01*
X79002Y-49169D01*
X78994Y-49185D01*
X78994Y-49226D01*
X79002Y-49242D01*
X79010Y-49250D01*
X79026Y-49258D01*
X79075Y-49258D01*
X79091Y-49250D01*
X79099Y-49242D01*
X89550Y-49268D02*
X89606Y-49187D01*
X89647Y-49268D02*
X89647Y-49098D01*
X89582Y-49098D01*
X89566Y-49106D01*
X89558Y-49115D01*
X89550Y-49131D01*
X89550Y-49155D01*
X89558Y-49171D01*
X89566Y-49179D01*
X89582Y-49187D01*
X89647Y-49187D01*
X89404Y-49155D02*
X89404Y-49268D01*
X89445Y-49090D02*
X89485Y-49212D01*
X89380Y-49212D01*
X89331Y-49098D02*
X89226Y-49098D01*
X89283Y-49163D01*
X89258Y-49163D01*
X89242Y-49171D01*
X89234Y-49179D01*
X89226Y-49195D01*
X89226Y-49236D01*
X89234Y-49252D01*
X89242Y-49260D01*
X89258Y-49268D01*
X89307Y-49268D01*
X89323Y-49260D01*
X89331Y-49252D01*
X89064Y-49268D02*
X89161Y-49268D01*
X89113Y-49268D02*
X89113Y-49098D01*
X89129Y-49123D01*
X89145Y-49139D01*
X89161Y-49147D01*
X114700Y-49318D02*
X114756Y-49237D01*
X114797Y-49318D02*
X114797Y-49148D01*
X114732Y-49148D01*
X114716Y-49156D01*
X114708Y-49165D01*
X114700Y-49181D01*
X114700Y-49205D01*
X114708Y-49221D01*
X114716Y-49229D01*
X114732Y-49237D01*
X114797Y-49237D01*
X114554Y-49205D02*
X114554Y-49318D01*
X114595Y-49140D02*
X114635Y-49262D01*
X114530Y-49262D01*
X114473Y-49165D02*
X114465Y-49156D01*
X114449Y-49148D01*
X114408Y-49148D01*
X114392Y-49156D01*
X114384Y-49165D01*
X114376Y-49181D01*
X114376Y-49197D01*
X114384Y-49221D01*
X114481Y-49318D01*
X114376Y-49318D01*
X114214Y-49318D02*
X114311Y-49318D01*
X114263Y-49318D02*
X114263Y-49148D01*
X114279Y-49173D01*
X114295Y-49189D01*
X114311Y-49197D01*
X109660Y-49358D02*
X109716Y-49277D01*
X109757Y-49358D02*
X109757Y-49188D01*
X109692Y-49188D01*
X109676Y-49196D01*
X109668Y-49205D01*
X109660Y-49221D01*
X109660Y-49245D01*
X109668Y-49261D01*
X109676Y-49269D01*
X109692Y-49277D01*
X109757Y-49277D01*
X109514Y-49245D02*
X109514Y-49358D01*
X109555Y-49180D02*
X109595Y-49302D01*
X109490Y-49302D01*
X109441Y-49188D02*
X109336Y-49188D01*
X109393Y-49253D01*
X109368Y-49253D01*
X109352Y-49261D01*
X109344Y-49269D01*
X109336Y-49285D01*
X109336Y-49326D01*
X109344Y-49342D01*
X109352Y-49350D01*
X109368Y-49358D01*
X109417Y-49358D01*
X109433Y-49350D01*
X109441Y-49342D01*
X109231Y-49188D02*
X109215Y-49188D01*
X109198Y-49196D01*
X109190Y-49205D01*
X109182Y-49221D01*
X109174Y-49253D01*
X109174Y-49294D01*
X109182Y-49326D01*
X109190Y-49342D01*
X109198Y-49350D01*
X109215Y-49358D01*
X109231Y-49358D01*
X109247Y-49350D01*
X109255Y-49342D01*
X109263Y-49326D01*
X109271Y-49294D01*
X109271Y-49253D01*
X109263Y-49221D01*
X109255Y-49205D01*
X109247Y-49196D01*
X109231Y-49188D01*
X104640Y-49328D02*
X104696Y-49247D01*
X104737Y-49328D02*
X104737Y-49158D01*
X104672Y-49158D01*
X104656Y-49166D01*
X104648Y-49175D01*
X104640Y-49191D01*
X104640Y-49215D01*
X104648Y-49231D01*
X104656Y-49239D01*
X104672Y-49247D01*
X104737Y-49247D01*
X104494Y-49215D02*
X104494Y-49328D01*
X104535Y-49150D02*
X104575Y-49272D01*
X104470Y-49272D01*
X104421Y-49158D02*
X104316Y-49158D01*
X104373Y-49223D01*
X104348Y-49223D01*
X104332Y-49231D01*
X104324Y-49239D01*
X104316Y-49255D01*
X104316Y-49296D01*
X104324Y-49312D01*
X104332Y-49320D01*
X104348Y-49328D01*
X104397Y-49328D01*
X104413Y-49320D01*
X104421Y-49312D01*
X104170Y-49158D02*
X104203Y-49158D01*
X104219Y-49166D01*
X104227Y-49175D01*
X104243Y-49199D01*
X104251Y-49231D01*
X104251Y-49296D01*
X104243Y-49312D01*
X104235Y-49320D01*
X104219Y-49328D01*
X104186Y-49328D01*
X104170Y-49320D01*
X104162Y-49312D01*
X104154Y-49296D01*
X104154Y-49255D01*
X104162Y-49239D01*
X104170Y-49231D01*
X104186Y-49223D01*
X104219Y-49223D01*
X104235Y-49231D01*
X104243Y-49239D01*
X104251Y-49255D01*
X99630Y-49298D02*
X99686Y-49217D01*
X99727Y-49298D02*
X99727Y-49128D01*
X99662Y-49128D01*
X99646Y-49136D01*
X99638Y-49145D01*
X99630Y-49161D01*
X99630Y-49185D01*
X99638Y-49201D01*
X99646Y-49209D01*
X99662Y-49217D01*
X99727Y-49217D01*
X99484Y-49185D02*
X99484Y-49298D01*
X99525Y-49120D02*
X99565Y-49242D01*
X99460Y-49242D01*
X99322Y-49185D02*
X99322Y-49298D01*
X99363Y-49120D02*
X99403Y-49242D01*
X99298Y-49242D01*
X99241Y-49145D02*
X99233Y-49136D01*
X99217Y-49128D01*
X99176Y-49128D01*
X99160Y-49136D01*
X99152Y-49145D01*
X99144Y-49161D01*
X99144Y-49177D01*
X99152Y-49201D01*
X99249Y-49298D01*
X99144Y-49298D01*
X94620Y-49258D02*
X94676Y-49177D01*
X94717Y-49258D02*
X94717Y-49088D01*
X94652Y-49088D01*
X94636Y-49096D01*
X94628Y-49105D01*
X94620Y-49121D01*
X94620Y-49145D01*
X94628Y-49161D01*
X94636Y-49169D01*
X94652Y-49177D01*
X94717Y-49177D01*
X94474Y-49145D02*
X94474Y-49258D01*
X94515Y-49080D02*
X94555Y-49202D01*
X94450Y-49202D01*
X94393Y-49105D02*
X94385Y-49096D01*
X94369Y-49088D01*
X94328Y-49088D01*
X94312Y-49096D01*
X94304Y-49105D01*
X94296Y-49121D01*
X94296Y-49137D01*
X94304Y-49161D01*
X94401Y-49258D01*
X94296Y-49258D01*
X94231Y-49105D02*
X94223Y-49096D01*
X94207Y-49088D01*
X94166Y-49088D01*
X94150Y-49096D01*
X94142Y-49105D01*
X94134Y-49121D01*
X94134Y-49137D01*
X94142Y-49161D01*
X94239Y-49258D01*
X94134Y-49258D01*
M02*
