G04 (created by PCBNEW (2013-07-07 BZR 4022)-stable) date 14/01/2016 17:53:05*
%MOIN*%
G04 Gerber Fmt 3.4, Leading zero omitted, Abs format*
%FSLAX34Y34*%
G01*
G70*
G90*
G04 APERTURE LIST*
%ADD10C,0.00590551*%
%ADD11R,0.023622X0.0787402*%
%ADD12R,0.0314961X0.0354331*%
%ADD13R,0.06X0.06*%
%ADD14C,0.06*%
%ADD15O,0.06X0.1*%
%ADD16R,0.0787402X0.023622*%
%ADD17R,0.1X0.05*%
%ADD18C,0.07*%
%ADD19R,0.07X0.07*%
%ADD20R,0.035X0.055*%
%ADD21R,0.055X0.035*%
%ADD22R,0.1X0.1*%
%ADD23C,0.1*%
G04 APERTURE END LIST*
G54D10*
G54D11*
X66588Y-41359D03*
X66092Y-41359D03*
X67088Y-41359D03*
X67588Y-41359D03*
X68088Y-41359D03*
X68588Y-41359D03*
X69088Y-41359D03*
X69592Y-41359D03*
X69592Y-45060D03*
X69092Y-45060D03*
X68592Y-45060D03*
X68092Y-45060D03*
X67592Y-45060D03*
X67092Y-45060D03*
X66592Y-45060D03*
X66092Y-45060D03*
G54D12*
X71060Y-34616D03*
X70685Y-35403D03*
X71434Y-35403D03*
X66050Y-37416D03*
X65675Y-38203D03*
X66424Y-38203D03*
X67050Y-34546D03*
X66675Y-35333D03*
X67424Y-35333D03*
X72040Y-37456D03*
X71665Y-38243D03*
X72414Y-38243D03*
X68040Y-37426D03*
X67665Y-38213D03*
X68414Y-38213D03*
X65050Y-35426D03*
X64675Y-36213D03*
X65424Y-36213D03*
X70050Y-37456D03*
X69675Y-38243D03*
X70424Y-38243D03*
X69020Y-34596D03*
X68645Y-35383D03*
X69394Y-35383D03*
G54D11*
X91308Y-41359D03*
X90812Y-41359D03*
X91808Y-41359D03*
X92308Y-41359D03*
X92808Y-41359D03*
X93308Y-41359D03*
X93808Y-41359D03*
X94312Y-41359D03*
X94312Y-45060D03*
X93812Y-45060D03*
X93312Y-45060D03*
X92812Y-45060D03*
X92312Y-45060D03*
X91812Y-45060D03*
X91312Y-45060D03*
X90812Y-45060D03*
X123328Y-41359D03*
X122832Y-41359D03*
X123828Y-41359D03*
X124328Y-41359D03*
X124828Y-41359D03*
X125328Y-41359D03*
X125828Y-41359D03*
X126332Y-41359D03*
X126332Y-45060D03*
X125832Y-45060D03*
X125332Y-45060D03*
X124832Y-45060D03*
X124332Y-45060D03*
X123832Y-45060D03*
X123332Y-45060D03*
X122832Y-45060D03*
X115418Y-41359D03*
X114922Y-41359D03*
X115918Y-41359D03*
X116418Y-41359D03*
X116918Y-41359D03*
X117418Y-41359D03*
X117918Y-41359D03*
X118422Y-41359D03*
X118422Y-45060D03*
X117922Y-45060D03*
X117422Y-45060D03*
X116922Y-45060D03*
X116422Y-45060D03*
X115922Y-45060D03*
X115422Y-45060D03*
X114922Y-45060D03*
X107428Y-41359D03*
X106932Y-41359D03*
X107928Y-41359D03*
X108428Y-41359D03*
X108928Y-41359D03*
X109428Y-41359D03*
X109928Y-41359D03*
X110432Y-41359D03*
X110432Y-45060D03*
X109932Y-45060D03*
X109432Y-45060D03*
X108932Y-45060D03*
X108432Y-45060D03*
X107932Y-45060D03*
X107432Y-45060D03*
X106932Y-45060D03*
X99528Y-41359D03*
X99032Y-41359D03*
X100028Y-41359D03*
X100528Y-41359D03*
X101028Y-41359D03*
X101528Y-41359D03*
X102028Y-41359D03*
X102532Y-41359D03*
X102532Y-45060D03*
X102032Y-45060D03*
X101532Y-45060D03*
X101032Y-45060D03*
X100532Y-45060D03*
X100032Y-45060D03*
X99532Y-45060D03*
X99032Y-45060D03*
X83228Y-41359D03*
X82732Y-41359D03*
X83728Y-41359D03*
X84228Y-41359D03*
X84728Y-41359D03*
X85228Y-41359D03*
X85728Y-41359D03*
X86232Y-41359D03*
X86232Y-45060D03*
X85732Y-45060D03*
X85232Y-45060D03*
X84732Y-45060D03*
X84232Y-45060D03*
X83732Y-45060D03*
X83232Y-45060D03*
X82732Y-45060D03*
X75398Y-41359D03*
X74902Y-41359D03*
X75898Y-41359D03*
X76398Y-41359D03*
X76898Y-41359D03*
X77398Y-41359D03*
X77898Y-41359D03*
X78402Y-41359D03*
X78402Y-45060D03*
X77902Y-45060D03*
X77402Y-45060D03*
X76902Y-45060D03*
X76402Y-45060D03*
X75902Y-45060D03*
X75402Y-45060D03*
X74902Y-45060D03*
G54D13*
X63030Y-38040D03*
G54D14*
X63030Y-37040D03*
G54D15*
X65040Y-33280D03*
X66040Y-33280D03*
X67040Y-33280D03*
X68040Y-33280D03*
X69040Y-33280D03*
X70040Y-33280D03*
X71040Y-33280D03*
X72040Y-33280D03*
X73040Y-33280D03*
X74040Y-33280D03*
X75040Y-33280D03*
X76040Y-33280D03*
X77040Y-33280D03*
X78040Y-33280D03*
X79040Y-33280D03*
X80040Y-33280D03*
X81040Y-33280D03*
X82040Y-33280D03*
X83040Y-33280D03*
X84040Y-33280D03*
X85040Y-33280D03*
X86040Y-33280D03*
X87040Y-33280D03*
X88040Y-33280D03*
X89040Y-33280D03*
X90040Y-33280D03*
X91040Y-33280D03*
X92040Y-33280D03*
X93040Y-33280D03*
X94040Y-33280D03*
X95040Y-33280D03*
X96040Y-33280D03*
X97040Y-33280D03*
X98040Y-33280D03*
X99040Y-33280D03*
X100040Y-33280D03*
X101040Y-33280D03*
X102040Y-33280D03*
X103040Y-33280D03*
X104040Y-33280D03*
X105040Y-33280D03*
X106040Y-33280D03*
X107040Y-33280D03*
X108040Y-33280D03*
X109040Y-33280D03*
X110040Y-33280D03*
X111040Y-33280D03*
X112040Y-33280D03*
X113040Y-33280D03*
X114040Y-33280D03*
X115040Y-33280D03*
X116040Y-33280D03*
X117040Y-33280D03*
X118040Y-33280D03*
X119040Y-33280D03*
X120040Y-33280D03*
X121040Y-33280D03*
X122040Y-33280D03*
X123040Y-33280D03*
X124040Y-33280D03*
X125040Y-33280D03*
X126040Y-33280D03*
X127040Y-33280D03*
X128040Y-33280D03*
G54D12*
X73040Y-34606D03*
X72665Y-35393D03*
X73414Y-35393D03*
X80020Y-37466D03*
X79645Y-38253D03*
X80394Y-38253D03*
X79040Y-34626D03*
X78665Y-35413D03*
X79414Y-35413D03*
X78050Y-37476D03*
X77675Y-38263D03*
X78424Y-38263D03*
X77050Y-34636D03*
X76675Y-35423D03*
X77424Y-35423D03*
X76040Y-37486D03*
X75665Y-38273D03*
X76414Y-38273D03*
X75050Y-34616D03*
X74675Y-35403D03*
X75424Y-35403D03*
X74030Y-37466D03*
X73655Y-38253D03*
X74404Y-38253D03*
X81050Y-34626D03*
X80675Y-35413D03*
X81424Y-35413D03*
X88040Y-37466D03*
X87665Y-38253D03*
X88414Y-38253D03*
X87040Y-34626D03*
X86665Y-35413D03*
X87414Y-35413D03*
X86040Y-37456D03*
X85665Y-38243D03*
X86414Y-38243D03*
X85030Y-34636D03*
X84655Y-35423D03*
X85404Y-35423D03*
X84030Y-37456D03*
X83655Y-38243D03*
X84404Y-38243D03*
X83040Y-34626D03*
X82665Y-35413D03*
X83414Y-35413D03*
X82020Y-37456D03*
X81645Y-38243D03*
X82394Y-38243D03*
X89020Y-34626D03*
X88645Y-35413D03*
X89394Y-35413D03*
X96030Y-37466D03*
X95655Y-38253D03*
X96404Y-38253D03*
X95030Y-34606D03*
X94655Y-35393D03*
X95404Y-35393D03*
X94030Y-37446D03*
X93655Y-38233D03*
X94404Y-38233D03*
X93030Y-34616D03*
X92655Y-35403D03*
X93404Y-35403D03*
X92040Y-37446D03*
X91665Y-38233D03*
X92414Y-38233D03*
X91030Y-34616D03*
X90655Y-35403D03*
X91404Y-35403D03*
X90020Y-37456D03*
X89645Y-38243D03*
X90394Y-38243D03*
X97040Y-34606D03*
X96665Y-35393D03*
X97414Y-35393D03*
X104040Y-37456D03*
X103665Y-38243D03*
X104414Y-38243D03*
X103030Y-34616D03*
X102655Y-35403D03*
X103404Y-35403D03*
X102030Y-37456D03*
X101655Y-38243D03*
X102404Y-38243D03*
X101030Y-34606D03*
X100655Y-35393D03*
X101404Y-35393D03*
X100030Y-37456D03*
X99655Y-38243D03*
X100404Y-38243D03*
X99040Y-34606D03*
X98665Y-35393D03*
X99414Y-35393D03*
X98030Y-37456D03*
X97655Y-38243D03*
X98404Y-38243D03*
X105030Y-34616D03*
X104655Y-35403D03*
X105404Y-35403D03*
X112050Y-37456D03*
X111675Y-38243D03*
X112424Y-38243D03*
X111030Y-34606D03*
X110655Y-35393D03*
X111404Y-35393D03*
X110040Y-37446D03*
X109665Y-38233D03*
X110414Y-38233D03*
X109040Y-34616D03*
X108665Y-35403D03*
X109414Y-35403D03*
X108040Y-37456D03*
X107665Y-38243D03*
X108414Y-38243D03*
X107040Y-34606D03*
X106665Y-35393D03*
X107414Y-35393D03*
X106030Y-37456D03*
X105655Y-38243D03*
X106404Y-38243D03*
X113050Y-34616D03*
X112675Y-35403D03*
X113424Y-35403D03*
X120040Y-37456D03*
X119665Y-38243D03*
X120414Y-38243D03*
X119030Y-34616D03*
X118655Y-35403D03*
X119404Y-35403D03*
X118040Y-37456D03*
X117665Y-38243D03*
X118414Y-38243D03*
X117030Y-34616D03*
X116655Y-35403D03*
X117404Y-35403D03*
X116050Y-37456D03*
X115675Y-38243D03*
X116424Y-38243D03*
X115030Y-34616D03*
X114655Y-35403D03*
X115404Y-35403D03*
X114050Y-37456D03*
X113675Y-38243D03*
X114424Y-38243D03*
X121040Y-34616D03*
X120665Y-35403D03*
X121414Y-35403D03*
X128030Y-37456D03*
X127655Y-38243D03*
X128404Y-38243D03*
X127030Y-34616D03*
X126655Y-35403D03*
X127404Y-35403D03*
X126040Y-37456D03*
X125665Y-38243D03*
X126414Y-38243D03*
X125030Y-34616D03*
X124655Y-35403D03*
X125404Y-35403D03*
X124040Y-37456D03*
X123665Y-38243D03*
X124414Y-38243D03*
X123040Y-34616D03*
X122665Y-35403D03*
X123414Y-35403D03*
X122030Y-37456D03*
X121655Y-38243D03*
X122404Y-38243D03*
G54D13*
X63030Y-46190D03*
G54D14*
X63030Y-47190D03*
X63030Y-48190D03*
G54D12*
X82970Y-50513D03*
X83344Y-49726D03*
X82595Y-49726D03*
X103120Y-50513D03*
X103494Y-49726D03*
X102745Y-49726D03*
X98160Y-50513D03*
X98534Y-49726D03*
X97785Y-49726D03*
X108090Y-50533D03*
X108464Y-49746D03*
X107715Y-49746D03*
X77990Y-50513D03*
X78364Y-49726D03*
X77615Y-49726D03*
X113110Y-50513D03*
X113484Y-49726D03*
X112735Y-49726D03*
X93180Y-50513D03*
X93554Y-49726D03*
X92805Y-49726D03*
X88100Y-50513D03*
X88474Y-49726D03*
X87725Y-49726D03*
G54D16*
X71360Y-49898D03*
X71360Y-49402D03*
X71360Y-50398D03*
X71360Y-50898D03*
X71360Y-51398D03*
X71360Y-51898D03*
X71360Y-52398D03*
X71360Y-52902D03*
X67659Y-52902D03*
X67659Y-52402D03*
X67659Y-51902D03*
X67659Y-51402D03*
X67659Y-50902D03*
X67659Y-50402D03*
X67659Y-49902D03*
X67659Y-49402D03*
G54D17*
X90480Y-50620D03*
X90480Y-49420D03*
X100480Y-50620D03*
X100480Y-49420D03*
X105540Y-50640D03*
X105540Y-49440D03*
X95510Y-50620D03*
X95510Y-49420D03*
X110520Y-50640D03*
X110520Y-49440D03*
X85440Y-50620D03*
X85440Y-49420D03*
X115570Y-50610D03*
X115570Y-49410D03*
X80490Y-50620D03*
X80490Y-49420D03*
G54D13*
X124850Y-51350D03*
G54D14*
X123850Y-51350D03*
X122850Y-51350D03*
X121850Y-51350D03*
X120850Y-51350D03*
X119850Y-51350D03*
X118850Y-51350D03*
X117850Y-51350D03*
G54D18*
X88380Y-52100D03*
X89380Y-52100D03*
G54D19*
X90380Y-52100D03*
G54D18*
X113500Y-52100D03*
X114500Y-52100D03*
G54D19*
X115500Y-52100D03*
G54D18*
X98420Y-52100D03*
X99420Y-52100D03*
G54D19*
X100420Y-52100D03*
G54D18*
X83340Y-52100D03*
X84340Y-52100D03*
G54D19*
X85340Y-52100D03*
G54D18*
X108480Y-52110D03*
X109480Y-52110D03*
G54D19*
X110480Y-52110D03*
G54D18*
X78320Y-52100D03*
X79320Y-52100D03*
G54D19*
X80320Y-52100D03*
G54D18*
X93420Y-52100D03*
X94420Y-52100D03*
G54D19*
X95420Y-52100D03*
G54D18*
X103440Y-52100D03*
X104440Y-52100D03*
G54D19*
X105440Y-52100D03*
G54D20*
X126845Y-46180D03*
X126095Y-46180D03*
X73005Y-46110D03*
X72255Y-46110D03*
X81305Y-46110D03*
X80555Y-46110D03*
X89355Y-46110D03*
X88605Y-46110D03*
X97445Y-46110D03*
X96695Y-46110D03*
X105445Y-46110D03*
X104695Y-46110D03*
X113155Y-46110D03*
X112405Y-46110D03*
X121235Y-46110D03*
X120485Y-46110D03*
G54D21*
X84340Y-49685D03*
X84340Y-50435D03*
X79320Y-49685D03*
X79320Y-50435D03*
X89380Y-49685D03*
X89380Y-50435D03*
X114520Y-49685D03*
X114520Y-50435D03*
X109480Y-49705D03*
X109480Y-50455D03*
X104440Y-49685D03*
X104440Y-50435D03*
X99420Y-49685D03*
X99420Y-50435D03*
X94430Y-49685D03*
X94430Y-50435D03*
G54D22*
X127650Y-50460D03*
G54D23*
X127650Y-48460D03*
M02*
