M48
;DRILL file {Pcbnew (2013-07-07 BZR 4022)-stable} date 18/01/2016 20:15:22
;FORMAT={2:4/ absolute / inch / keep zeros}
FMAT,2
INCH,TZ
T1C0.025
T2C0.040
T3C0.051
%
G90
G05
M72
T1
X064280Y-035160
X064380Y-047760
X064610Y-037410
X064880Y-049370
X065240Y-037820
X065620Y-049480
X065760Y-035130
X066080Y-040440
X066120Y-043870
X066300Y-034470
X066320Y-052370
X066770Y-037150
X066770Y-046190
X066820Y-049920
X066860Y-037850
X067090Y-040010
X067160Y-047740
X067350Y-047210
X067430Y-037350
X067740Y-034510
X067910Y-044110
X068100Y-040280
X068460Y-034550
X068520Y-052270
X068720Y-037790
X068790Y-051320
X068800Y-049660
X069090Y-044190
X069100Y-040450
X069300Y-042290
X069350Y-037070
X069450Y-037620
X069630Y-034560
X070440Y-034560
X070470Y-052780
X070670Y-037650
X071340Y-037060
X071390Y-037520
X071680Y-034800
X072300Y-049380
X072390Y-034520
X072640Y-049900
X072670Y-037580
X073080Y-050400
X073380Y-037540
X073400Y-037040
X073490Y-050900
X073680Y-034770
X073940Y-051410
X074390Y-034710
X074400Y-040280
X074400Y-051900
X074710Y-037630
X074760Y-052400
X074910Y-044060
X075390Y-037040
X075390Y-037510
X075710Y-034720
X075900Y-040090
X076140Y-047190
X076390Y-034550
X076400Y-044180
X076690Y-037580
X077040Y-040130
X077390Y-037040
X077400Y-037490
X077400Y-050510
X077690Y-034770
X077860Y-044120
X078230Y-040170
X078250Y-042390
X078390Y-034670
X078520Y-050710
X078700Y-037580
X079350Y-037080
X079390Y-037660
X079690Y-034710
X080380Y-034560
X080680Y-037560
X081320Y-049990
X081380Y-037090
X081400Y-037580
X081690Y-034720
X082390Y-050520
X082400Y-034720
X082440Y-040080
X082680Y-037590
X082740Y-044020
X083360Y-037070
X083390Y-037570
X083560Y-050740
X083690Y-034720
X083730Y-040090
X083950Y-047080
X084280Y-044100
X084400Y-034740
X084680Y-037570
X084900Y-040130
X085370Y-037100
X085390Y-037590
X085680Y-034720
X085730Y-044270
X086100Y-040240
X086180Y-042270
X086250Y-050020
X086390Y-034730
X086690Y-037590
X087360Y-037080
X087400Y-037580
X087480Y-050610
X087680Y-034710
X088380Y-034730
X088680Y-037580
X088680Y-050750
X089360Y-037050
X089390Y-037580
X089690Y-034730
X090360Y-040250
X090400Y-034720
X090670Y-037580
X090820Y-043970
X091300Y-050100
X091370Y-037050
X091400Y-037580
X091690Y-034730
X091750Y-047000
X091810Y-040110
X092400Y-034730
X092450Y-050530
X092590Y-043990
X092680Y-037580
X092800Y-039930
X093360Y-037040
X093400Y-037580
X093680Y-034740
X093750Y-050730
X093790Y-044150
X093930Y-040260
X094270Y-042300
X094400Y-034730
X094680Y-037580
X095370Y-037040
X095400Y-037580
X095680Y-034730
X096360Y-050080
X096390Y-034750
X096680Y-037580
X097380Y-037060
X097410Y-037580
X097440Y-050530
X097680Y-034730
X098400Y-034740
X098410Y-040140
X098680Y-037580
X098730Y-050730
X099020Y-043950
X099370Y-037060
X099400Y-037580
X099670Y-040140
X099680Y-034720
X100340Y-046970
X100400Y-034730
X100680Y-037580
X100830Y-043880
X101030Y-039960
X101380Y-037060
X101400Y-050090
X101410Y-037580
X101680Y-034730
X101980Y-044370
X102270Y-040270
X102410Y-034730
X102470Y-050490
X102530Y-042240
X102670Y-037580
X103380Y-037050
X103410Y-037580
X103680Y-034730
X103720Y-050720
X104400Y-034730
X104680Y-037580
X105380Y-037050
X105410Y-037580
X105670Y-034730
X106080Y-040020
X106410Y-034730
X106420Y-050090
X106680Y-037580
X106930Y-043940
X107380Y-037050
X107430Y-037580
X107530Y-050450
X107670Y-034730
X107780Y-040020
X108000Y-046970
X108410Y-034730
X108690Y-037580
X108730Y-050720
X108860Y-043870
X109020Y-039990
X109370Y-037070
X109410Y-037580
X109680Y-034730
X109790Y-044370
X110290Y-040260
X110410Y-034730
X110410Y-042260
X110680Y-037580
X111380Y-037090
X111390Y-050070
X111420Y-037580
X111670Y-034730
X112400Y-034720
X112520Y-050380
X112690Y-037590
X113380Y-037060
X113410Y-037580
X113680Y-034730
X113730Y-050580
X114220Y-039980
X114400Y-034730
X114690Y-037580
X114930Y-043920
X115380Y-037060
X115410Y-037580
X115680Y-034730
X115720Y-039920
X115960Y-046970
X116410Y-034730
X116430Y-055520
X116460Y-050010
X116690Y-037580
X116820Y-043830
X116920Y-040060
X117380Y-037050
X117400Y-037580
X117680Y-034720
X117710Y-055140
X117730Y-044120
X118370Y-042230
X118400Y-034730
X118680Y-037580
X118680Y-054750
X118730Y-040020
X119390Y-037060
X119410Y-037580
X119680Y-034730
X119760Y-054360
X120400Y-034730
X120690Y-037580
X120890Y-053970
X121360Y-037040
X121400Y-037580
X121680Y-034730
X122030Y-040070
X122080Y-053560
X122400Y-034730
X122680Y-037580
X122830Y-043980
X123020Y-053180
X123360Y-037060
X123400Y-037580
X123680Y-034730
X123910Y-046970
X123920Y-039980
X124210Y-052800
X124400Y-034730
X124680Y-037580
X124750Y-043840
X124900Y-040030
X125380Y-037070
X125410Y-037580
X125640Y-044070
X125680Y-034730
X125960Y-040190
X126300Y-042220
X126400Y-034730
X126690Y-037580
X127370Y-037070
X127400Y-037590
X127680Y-034730
X128680Y-037580
T2
X063030Y-037040
X063030Y-038040
X063030Y-046190
X063030Y-047190
X063030Y-048190
X065040Y-033280
X066040Y-033280
X067040Y-033280
X068040Y-033280
X069040Y-033280
X070040Y-033280
X071040Y-033280
X072040Y-033280
X073040Y-033280
X074040Y-033280
X075040Y-033280
X076040Y-033280
X077040Y-033280
X078040Y-033280
X078320Y-052100
X079040Y-033280
X079320Y-052100
X080040Y-033280
X080320Y-052100
X081040Y-033280
X082040Y-033280
X083040Y-033280
X083340Y-052100
X084040Y-033280
X084340Y-052100
X085040Y-033280
X085340Y-052100
X086040Y-033280
X087040Y-033280
X088040Y-033280
X088380Y-052100
X089040Y-033280
X089380Y-052100
X090040Y-033280
X090380Y-052100
X091040Y-033280
X092040Y-033280
X093040Y-033280
X093420Y-052100
X094040Y-033280
X094420Y-052100
X095040Y-033280
X095420Y-052100
X096040Y-033280
X097040Y-033280
X098040Y-033280
X098420Y-052100
X099040Y-033280
X099420Y-052100
X100040Y-033280
X100420Y-052100
X101040Y-033280
X102040Y-033280
X103040Y-033280
X103440Y-052100
X104040Y-033280
X104440Y-052100
X105040Y-033280
X105440Y-052100
X106040Y-033280
X107040Y-033280
X108040Y-033280
X108480Y-052110
X109040Y-033280
X109480Y-052110
X110040Y-033280
X110480Y-052110
X111040Y-033280
X112040Y-033280
X113040Y-033280
X113500Y-052100
X114040Y-033280
X114500Y-052100
X115040Y-033280
X115500Y-052100
X116040Y-033280
X117040Y-033280
X117850Y-051350
X118040Y-033280
X118850Y-051350
X119040Y-033280
X119850Y-051350
X120040Y-033280
X120850Y-051350
X121040Y-033280
X121850Y-051350
X122040Y-033280
X122850Y-051350
X123040Y-033280
X123850Y-051350
X124040Y-033280
X124850Y-051350
X125040Y-033280
X126040Y-033280
X127040Y-033280
X128040Y-033280
T3
X127650Y-048460
X127650Y-050460
T0
M30
