M48
;DRILL file {Pcbnew (2013-07-07 BZR 4022)-stable} date 07/01/2016 19:49:48
;FORMAT={2:4/ absolute / inch / keep zeros}
FMAT,2
INCH,TZ
T1C0.025
T2C0.040
T3C0.051
%
G90
G05
M72
T1
X064280Y-035160
X064610Y-037410
X065240Y-037820
X065760Y-035130
X066080Y-040440
X066120Y-043870
X066300Y-034470
X066680Y-046790
X066770Y-037150
X066770Y-046190
X066860Y-037850
X067090Y-040010
X067220Y-048750
X067350Y-047210
X067430Y-037350
X067740Y-034510
X067820Y-048190
X067910Y-044110
X068100Y-040280
X068460Y-034550
X068720Y-037790
X069090Y-044190
X069100Y-040450
X069300Y-042290
X069350Y-037070
X069350Y-046340
X069450Y-037620
X069630Y-034560
X070440Y-034560
X070670Y-037650
X071340Y-037060
X071390Y-037520
X071680Y-034800
X072390Y-034520
X072670Y-037580
X073380Y-037540
X073400Y-037040
X073680Y-034770
X074390Y-034710
X074400Y-040280
X074710Y-037630
X074910Y-044060
X075390Y-037040
X075390Y-037510
X075710Y-034720
X075900Y-040090
X076100Y-048190
X076140Y-047190
X076390Y-034550
X076400Y-044180
X076690Y-037580
X077040Y-040130
X077390Y-037040
X077400Y-037490
X077690Y-034770
X077860Y-044120
X078090Y-058460
X078230Y-040170
X078250Y-042390
X078390Y-034670
X078700Y-037580
X078760Y-055620
X079210Y-058660
X079350Y-037080
X079390Y-037660
X079690Y-034710
X080380Y-034560
X080680Y-037560
X081380Y-037090
X081400Y-037580
X081690Y-034720
X082000Y-057950
X082400Y-034720
X082440Y-040080
X082680Y-037590
X082740Y-044020
X083080Y-058470
X083360Y-037070
X083390Y-037570
X083690Y-034720
X083720Y-056000
X083730Y-040090
X083950Y-047080
X083950Y-048190
X084250Y-058690
X084280Y-044100
X084400Y-034740
X084680Y-037570
X084900Y-040130
X085370Y-037100
X085390Y-037590
X085680Y-034720
X085730Y-044270
X086100Y-040240
X086180Y-042270
X086390Y-034730
X086690Y-037590
X086930Y-057980
X087360Y-037080
X087400Y-037580
X087680Y-034710
X088170Y-058560
X088380Y-034730
X088680Y-037580
X088850Y-056430
X089360Y-037050
X089370Y-058700
X089390Y-037580
X089690Y-034730
X090360Y-040250
X090400Y-034720
X090670Y-037580
X090820Y-043970
X091370Y-037050
X091400Y-037580
X091690Y-034730
X091750Y-047000
X091750Y-048190
X091810Y-040110
X091980Y-058040
X092400Y-034730
X092590Y-043990
X092680Y-037580
X092800Y-039930
X093140Y-058480
X093360Y-037040
X093400Y-037580
X093680Y-034740
X093790Y-044150
X093920Y-056340
X093930Y-040260
X094270Y-042300
X094400Y-034730
X094440Y-058680
X094680Y-037580
X095370Y-037040
X095400Y-037580
X095680Y-034730
X095710Y-052940
X096220Y-050990
X096390Y-034750
X096680Y-037580
X097040Y-058020
X097170Y-051260
X097380Y-037060
X097410Y-037580
X097680Y-034730
X098130Y-058480
X098330Y-048870
X098400Y-034740
X098410Y-040140
X098680Y-037580
X098850Y-055290
X098860Y-051230
X099020Y-043950
X099370Y-037060
X099400Y-037580
X099420Y-058680
X099670Y-040140
X099680Y-034720
X100280Y-048190
X100340Y-046970
X100400Y-034730
X100680Y-037580
X100830Y-043880
X101030Y-039960
X101380Y-037060
X101410Y-037580
X101680Y-034730
X101980Y-044370
X102070Y-058020
X102270Y-040270
X102410Y-034730
X102530Y-042240
X102670Y-037580
X103160Y-058440
X103380Y-037050
X103410Y-037580
X103680Y-034730
X103860Y-056280
X104400Y-034730
X104410Y-058670
X104680Y-037580
X105380Y-037050
X105410Y-037580
X105670Y-034730
X106080Y-040020
X106410Y-034730
X106680Y-037580
X106930Y-043940
X107110Y-058030
X107380Y-037050
X107430Y-037580
X107670Y-034730
X107780Y-040020
X107970Y-048190
X108000Y-046970
X108220Y-058400
X108410Y-034730
X108690Y-037580
X108860Y-043870
X108900Y-056410
X109020Y-039990
X109370Y-037070
X109410Y-037580
X109420Y-058670
X109680Y-034730
X109790Y-044370
X110290Y-040260
X110410Y-034730
X110410Y-042260
X110680Y-037580
X111380Y-037090
X111420Y-037580
X111670Y-034730
X112070Y-058020
X112400Y-034720
X112690Y-037590
X113210Y-058330
X113380Y-037060
X113410Y-037580
X113680Y-034730
X113930Y-056060
X114220Y-039980
X114400Y-034730
X114420Y-058530
X114690Y-037580
X114930Y-043920
X115380Y-037060
X115410Y-037580
X115680Y-034730
X115720Y-039920
X115950Y-048190
X115960Y-046970
X116410Y-034730
X116690Y-037580
X116820Y-043830
X116920Y-040060
X117130Y-057960
X117380Y-037050
X117400Y-037580
X117680Y-034720
X117730Y-044120
X118370Y-042230
X118400Y-034730
X118680Y-037580
X118730Y-040020
X119390Y-037060
X119410Y-037580
X119680Y-034730
X120400Y-034730
X120690Y-037580
X121360Y-037040
X121400Y-037580
X121680Y-034730
X122030Y-040070
X122400Y-034730
X122680Y-037580
X122830Y-043980
X123360Y-037060
X123400Y-037580
X123680Y-034730
X123870Y-048190
X123910Y-046970
X123920Y-039980
X124400Y-034730
X124680Y-037580
X124750Y-043840
X124900Y-040030
X125380Y-037070
X125410Y-037580
X125640Y-044070
X125680Y-034730
X125960Y-040190
X126300Y-042220
X126400Y-034730
X126690Y-037580
X127370Y-037070
X127400Y-037590
X127680Y-034730
X128680Y-037580
T2
X063030Y-037040
X063030Y-038040
X063030Y-046190
X063030Y-047190
X063030Y-048190
X065040Y-033280
X066040Y-033280
X067040Y-033280
X068040Y-033280
X069040Y-033280
X070040Y-033280
X071040Y-033280
X072040Y-033280
X073040Y-033280
X074040Y-033280
X075040Y-033280
X076040Y-033280
X077040Y-033280
X078040Y-033280
X079010Y-060050
X079040Y-033280
X080010Y-060050
X080040Y-033280
X081010Y-060050
X081040Y-033280
X082040Y-033280
X083040Y-033280
X084030Y-060050
X084040Y-033280
X085030Y-060050
X085040Y-033280
X086030Y-060050
X086040Y-033280
X087040Y-033280
X088040Y-033280
X089040Y-033280
X089070Y-060050
X090040Y-033280
X090070Y-060050
X091040Y-033280
X091070Y-060050
X092040Y-033280
X093040Y-033280
X093170Y-063600
X094040Y-033280
X094110Y-060050
X094170Y-063600
X095040Y-033280
X095110Y-060050
X095170Y-063600
X096040Y-033280
X096110Y-060050
X096170Y-063600
X097040Y-033280
X097170Y-063600
X098040Y-033280
X098170Y-063600
X099040Y-033280
X099110Y-060050
X099170Y-063600
X100040Y-033280
X100110Y-060050
X100170Y-063600
X101040Y-033280
X101110Y-060050
X102040Y-033280
X103040Y-033280
X104040Y-033280
X104130Y-060050
X105040Y-033280
X105130Y-060050
X106040Y-033280
X106130Y-060050
X107040Y-033280
X108040Y-033280
X109040Y-033280
X109170Y-060060
X110040Y-033280
X110170Y-060060
X111040Y-033280
X111170Y-060060
X112040Y-033280
X113040Y-033280
X114040Y-033280
X114190Y-060050
X115040Y-033280
X115190Y-060050
X116040Y-033280
X116190Y-060050
X117040Y-033280
X118040Y-033280
X119040Y-033280
X120040Y-033280
X121040Y-033280
X122040Y-033280
X123040Y-033280
X124040Y-033280
X125040Y-033280
X126040Y-033280
X127040Y-033280
X128040Y-033280
T3
X127650Y-048460
X127650Y-050460
T0
M30
